<svg id="_レイヤー_2" xmlns="http://www.w3.org/2000/svg" viewBox="0 0 308.61 172.95"><defs><style>.cls-1{fill:#aeced6}</style></defs><g id="_レイヤー_1-2"><path class="cls-1" d="M9.12 161.85c.33-.82 1-1.22 1.72-1.37s1.3.22 1.22 1c0 0 .05.24-.14.53 0 0 .05.24-.14.53.05.24-.14.53-.33.82.05.24-.14.53-.09.77-.19 3.81 2.38 5.27 5.18 5.43 2.85.4 6.21-.32 8.37-.78 22.58-4.81 42.51-13.84 62.87-30.23 4.29-3.43 14.78-11.94 15.13-18.55.19-3.81-2.09-5.08-5.45-4.36-2.16.46-5.66 1.71-9.16 2.96-12.13 4.34-24.13 8.16-36.86 10.87C34.86 133-.98 140.39.02 116.82c.43-3.86 1.59-7.87 2.98-11.94 1.58-4.36 3.75-8.33 5.43-12.21C22.89 62.72 44.56 35.99 70.71 16.1 78.92 9.83 89.37 2.33 98.26.43c9.13-1.95 17.38 2.57 16.78 12.75-1.19 23.86-34.64 56.61-50.97 71.9-.48.1-.67.4-.91.45-.48.1-1.17-.76-1.08-1.53.14-.53.28-1.06.65-1.65 13.38-12.65 33.6-32.03 41.34-48.75 1.31-3.29 3.15-6.45 4.45-9.74 1.5-3.58 2.51-7.07 2.81-10.39.32-9.11-7.23-11.52-14.43-9.98-4.56.97-9.54 3.54-14.18 6.54-34.89 24.77-62.87 56.1-78.06 96.76-1.07 3.24-1.94 6.19-2.05 9.23-1.14 20.58 34.57 13.72 47.06 11.06 14.89-3.18 30.1-8.43 45.06-13.63.96-.21 2.11-.7 3.07-.91 5.04-1.08 8.06 1.29 7.94 6.6-.49 7.14-6.29 12.89-11.39 17.25-18.63 16.28-41.39 29.67-65.65 34.84-3.6.77-8.94 1.66-13.09 1.03-4.39-.57-7.31-2.46-7.13-7.52.09-.77.31-2.08.64-2.9zm108.82-64.39c-.77-.09-1.54-.17-2.37-.5s-1.17-.76-1.03-1.29c.04-1.01.84-1.94 1.56-2.09 2.64-.56 5.25-.12 7.48.92q.58.38.63.62c.29.19.58.38 1.11.52 2.71.93 12.76-.21 16.13-.93 1.44-.31 2.64-.56 4.03-1.11l.72-.15-.05-.24c.53.14.63.62.79 1.34-.04 1.01-.89 1.7-2.28 2.24-.96.2-1.68.36-2.4.51-4.08.87-8.17 1.74-12.46 1.65l-1.25.02.26 1.2c.99 2.3 1.32 4.99 1.16 7.79-.26 5.83-3.6 16.09-9.61 17.37-5.28 1.13-6.17-4.21-5.99-9.27.26-5.83 1.49-11.87 3.77-17.63l.38-.58-.58-.38zm6.39 21.74l.28-1.06c1.65-2.86 2.53-5.81 2.63-8.85.19-3.81-.95-10.35-4.91-11.26l-.77-.09-.09.77c-2.48 6.05-3.51 11.8-3.72 17.87-.09.77-.02 2.26.24 3.47.26 1.2.8 2.59 2.49 2.23 1.44-.31 2.82-2.11 3.57-3.27l.29.19z"/><path class="cls-1" d="M145.16 104.96c2.74-8.37 6.9-18.3 15.79-20.19.72-.15 1.73-.12 2.45-.27l.63.62c.48-.1.82.33.74 1.1-.09.77-.65 1.65-1.37 1.8-.24.05-.72.15-1.2.26-.29-.19-.53-.14-.53-.14-7.69 1.64-10.87 9.1-13.19 15.87-2.46 7.31-4 15.42-5.58 19.77-.33.82-.94 1.46-1.67 1.61s-1.3-.22-1.27-1.24c-.13-2.99.11-6.55.4-9.88.33-7.86.72-18.99 2.02-27.05.04-1.01.65-1.65 1.61-1.85.96-.2 1.3.22 1.27 1.24-.45 6.12-1.14 12.3-1.55 18.66l-.18 5.06 1.62-5.37zm24.98-5.32c2.74-8.37 6.9-18.3 15.79-20.19.72-.15 1.73-.12 2.45-.27l.63.62c.48-.1.82.33.74 1.1-.09.77-.65 1.65-1.38 1.8-.24.05-.72.15-1.2.26-.29-.19-.53-.14-.53-.14-7.69 1.64-10.87 9.1-13.19 15.87-2.46 7.31-4 15.42-5.58 19.77-.33.82-.94 1.46-1.67 1.61-.72.15-1.3-.22-1.27-1.24-.13-2.99.11-6.55.4-9.88.33-7.86.72-18.99 2.02-27.05.03-1.01.65-1.65 1.61-1.85s1.3.22 1.27 1.24c-.45 6.12-1.14 12.3-1.55 18.66l-.18 5.06 1.62-5.37zm28.73 66.45c14.95-25.29 20.56-54.36 19.13-83.44l-.13-2.99-1.36 3.05c-3.51 8.28-13.49 22.72-21.66 24.46-3.6.77-5.37-1.62-5.23-5.67.12-5.3 1.45-10.86 2.06-16.26.09-.77.65-1.65 1.61-1.85.72-.15 1.3.22 1.27 1.24-.66 5.16-1.98 10.72-2.16 15.78.05.24-.09.77.02 1.25-.14.53-.04 1.01.07 1.49.5 1.15 1.13 1.77 2.57 1.46 2.16-.46 5.12-3.1 6.78-4.71 5.7-6.24 10.43-13.52 13.56-21.22.6-1.89 1.2-3.77 1.81-5.66.33-.82.76-1.17 1.48-1.32.72-.15 1.3.22 1.51 1.19.9 6.59.44 23.26.06 30.88-1.07 22.08-6.67 47.63-21.15 68.05-.38.58-1.05.98-1.53 1.08-.96.2-1.3-.22-1.46-.95.14-.53.04-1.01.12-1.78.14-.53.04-1.01.17-1.54.04-1.01 1.08-1.99 1.85-1.9l.48-.1.14-.53zm41.62-72.16l.24-.05q-.24.05-.29-.19l-.24.05c-.63-.62-.93-.81-.7-2.11.04-1.01.17-1.54.55-2.13l.57-.87c.43-.34.62-.63 1.05-.98.19-.29.43-.34.38-.58.19-.29.43-.34.62-.63s.43-.34.67-.39c.48-.1 1.54.17 1.94.84l.05.24.1.48.15.72.1.48c-.22 1.3-.93 2.71-1.98 3.69l-.24.05.1.48c-.24.05-1.05.98-1.53 1.08s-.72.15-1.01-.04l-.53-.14zm31.47-6.71l.24-.05q-.24.05-.29-.19l-.24.05c-.63-.62-.93-.81-.7-2.11.04-1.01.17-1.54.55-2.13l.57-.87c.43-.34.62-.63 1.05-.98.19-.29.43-.34.38-.58.19-.29.43-.34.62-.63s.43-.34.67-.39c.48-.1 1.54.17 1.94.84l.05.24.1.48.15.72.1.48c-.22 1.3-.93 2.71-1.98 3.69l-.24.05.1.48c-.24.05-1.05.98-1.53 1.08-.48.1-.72.15-1.01-.04l-.53-.14zm31.47-6.71l.24-.05q-.24.05-.29-.19l-.24.05c-.63-.62-.93-.81-.7-2.11.03-1.01.17-1.54.55-2.13l.57-.87c.43-.34.62-.63 1.05-.98.19-.29.43-.34.38-.58.19-.29.43-.34.62-.63s.43-.34.67-.39c.48-.1 1.54.17 1.94.84l.05.24.1.48.15.72.1.48c-.22 1.3-.93 2.71-1.98 3.69l-.24.05.1.48c-.24.05-1.05.98-1.53 1.08s-.72.15-1.01-.04l-.53-.14z"/></g></svg>