<svg xmlns="http://www.w3.org/2000/svg" viewBox="0 0 111.27 99.55"><path d="M60.99 3.12l49.47 87.23c2.33 4.11-.64 9.2-5.36 9.2H6.17c-4.72 0-7.68-5.09-5.36-9.2L50.28 3.12c2.36-4.16 8.35-4.16 10.71 0z" fill="#fcee21"/><path d="M54.1 62.72c0-2.43-1.79-12.17-2.93-17.18-.64-3.08-1.22-6.37-1.22-9.02 0-1.86 1-6.37 5.65-6.37s5.65 4.51 5.65 6.37c0 2.65-.5 5.94-1.22 9.02-1.07 5.01-2.86 14.75-2.86 17.18l-.07 4.8c0 .86-.72 1.29-1.5 1.29-.72 0-1.43-.43-1.43-1.29l-.07-4.8zm1.58 21.55c-3.15 0-5.73-2.43-5.73-5.37s2.58-5.44 5.73-5.44 5.65 2.43 5.65 5.44c-.07 3.01-2.65 5.37-5.65 5.37z"/></svg>