<svg xmlns="http://www.w3.org/2000/svg" viewBox="0 0 71.67 57.5"><path d="M15.51 57.5C6.68 57.5 0 50.01 0 41.99 0 20.59 24.34 0 27.01 0c1.61 0 2.67 1.61 2.67 2.94 0 1.6-6.42 6.95-7.49 8.29-2.41 2.94-5.35 6.95-5.35 10.7 0 1.34.8 3.48 2.67 4.81 7.75 4.81 11.5 6.95 11.5 15.24S23.79 57.49 15.5 57.49zm40.65 0c-8.82 0-15.51-7.49-15.51-15.51C40.65 20.59 64.99 0 67.66 0c1.6 0 2.67 1.61 2.67 2.94 0 1.6-6.42 6.95-7.49 8.29-2.41 2.94-5.08 6.95-5.08 10.7 0 1.34.53 3.48 2.41 4.81 7.75 4.81 11.5 6.95 11.5 15.24s-7.22 15.51-15.51 15.51z" fill="#29abe2" opacity=".31"/></svg>