<svg xmlns="http://www.w3.org/2000/svg" viewBox="0 0 32.62 31.39"><path fill="none" stroke="#1a1311" stroke-miterlimit="10" stroke-width="1.33" d="M.67 1.47h29.26v29.26H.67z"/><path d="M6.62 16.33c0-.18.18-1.27 1.58-1.27 1.75 0 2.63.96 3.2 1.58.96 1.01 2.8 3.06 3.41 3.55.13.09.17.18.26.18s.17-.09.31-.26c1.27-1.84 3.5-5.21 5.73-8.41 3.06-4.38 6.48-8.89 7.35-9.94.88-1.05.79-1.44 2.32-1.66.31-.04.61-.09.83-.09.96 0 1.01.48 1.01.92 0 .53-.53.79-.96 1.18-2.01 2.06-5.56 6.92-8.41 11.21-2.15 3.24-4.25 6.92-4.77 10.29-.18 1.23-.66 2.01-1.75 2.01s-2.15-.53-2.8-1.01c-.83-.61-.92-.83-1.53-1.71-.92-1.31-2.23-2.63-5.3-5.69-.31-.31-.48-.57-.48-.88z" fill="#ff1d25"/></svg>