<svg xmlns="http://www.w3.org/2000/svg" viewBox="0 0 71.67 57.5"><path d="M15.51 0c8.82 0 15.51 7.49 15.51 15.51 0 21.4-24.34 41.99-27.01 41.99-1.61 0-2.68-1.61-2.68-2.94 0-1.6 6.42-6.95 7.49-8.29 2.4-2.94 5.08-6.95 5.08-10.7 0-1.34-.54-3.48-2.41-4.81C3.74 25.94 0 23.8 0 15.51S7.22 0 15.51 0zm40.65 0c8.83 0 15.51 7.49 15.51 15.51 0 21.4-24.34 41.99-27.01 41.99-1.61 0-2.67-1.61-2.67-2.94 0-1.6 6.42-6.95 7.49-8.29 2.41-2.94 5.35-6.95 5.35-10.7 0-1.34-.8-3.48-2.67-4.81-7.75-4.81-11.5-6.95-11.5-15.24S47.87 0 56.16 0z" fill="#29abe2" opacity=".31"/></svg>