<svg xmlns="http://www.w3.org/2000/svg" viewBox="0 0 56.55 56.39"><defs><linearGradient id="a" x1="-67.4" y1="-30.77" x2="-10.85" y2="-30.77" gradientTransform="translate(67.4 58.97)" gradientUnits="userSpaceOnUse"><stop offset="0" stop-color="#0071bc"/><stop offset="1" stop-color="#2e3192"/></linearGradient></defs><path d="M45.24 0c-6.25 0-11.31 5.06-11.31 11.31s5.06 11.31 11.31 11.31 11.31-5.06 11.31-11.31S51.49 0 45.24 0zm-25.9 29.15l15.6-8.5c-1.33-1.47-2.37-3.21-2.98-5.15l-15.18 9.17a9.771 9.771 0 00-6.94-2.87C4.4 21.8 0 26.2 0 31.64s4.4 9.83 9.84 9.83 9.83-4.4 9.83-9.83c0-.86-.12-1.69-.33-2.48zm20 10.52c-2.39 0-4.54 1.01-6.07 2.62l-11.6-6.78a12.43 12.43 0 01-2.29 4.12l11.89 6.27c-.18.68-.28 1.39-.28 2.12 0 4.62 3.74 8.36 8.36 8.36s8.36-3.74 8.36-8.36-3.74-8.36-8.36-8.36z" fill="url(#a)"/></svg>