<svg xmlns="http://www.w3.org/2000/svg" viewBox="0 0 76.13 57.68"><defs><linearGradient id="a" x1="0" y1="28.84" x2="76.13" y2="28.84" gradientUnits="userSpaceOnUse"><stop offset="0" stop-color="#0071bc"/><stop offset="1" stop-color="#2e3192"/></linearGradient></defs><path d="M73.15 17.12L62.6 26.31l-.04.93c-.03.52-.21 1.26-.5 2.03-.16.4-.35.81-.54 1.21L49.55 20.15c-.47-.4-1.09-.59-1.7-.51-.11.02-8.89 1.12-17.64 4.81-.87.37-1.52.48-1.96.48-.36 0-.57-.07-.73-.14-.24-.12-.4-.27-.57-.59-.16-.3-.27-.75-.27-1.23 0-.67.24-1.36.51-1.7.34-.44.75-1.03 1.32-1.81.85-1.14 2-2.62 3.37-4.07 1.37-1.45 2.96-2.84 4.62-3.82 2.25-1.33 4.18-1.65 5.99-1.66 1.12 0 2.2.14 3.25.29 1.04.15 2.06.35 3.15.35.7 0 1.44-.08 2.21-.39h.01c1.2-.51 2.37-1.26 3.56-2.11 1.76-1.28 3.5-2.8 4.83-4 .26-.23.5-.46.72-.66L57.26.23c-.65.61-1.5 1.37-2.42 2.14-.94.81-1.95 1.62-2.9 2.3-.96.69-1.87 1.23-2.49 1.48-.03.02-.21.07-.54.07-.52.01-1.41-.13-2.51-.29-1.1-.16-2.42-.35-3.9-.35-1.28-.01-2.71.15-4.21.57-1.49-.41-2.92-.57-4.21-.57-1.48 0-2.78.19-3.88.35-1.1.16-1.99.3-2.52.29-.33 0-.5-.04-.53-.07-.66-.26-1.65-.87-2.68-1.61-1.56-1.12-3.21-2.56-4.46-3.7-.34-.3-.64-.59-.91-.84l-2.98 3.17c.64.6 1.48 1.37 2.41 2.19 1.04.89 2.21 1.85 3.38 2.71 1.19.85 2.36 1.6 3.56 2.11.77.32 1.52.39 2.21.39 1.1 0 2.12-.18 3.17-.35.08-.01.14-.01.21-.02-1.45 1.24-2.71 2.59-3.78 3.84a60.71 60.71 0 00-2.26 2.86c-.59.81-1.04 1.46-1.25 1.72-.99 1.28-1.41 2.83-1.42 4.36.01 1.44.39 2.94 1.38 4.2.49.62 1.14 1.17 1.93 1.54.78.37 1.69.57 2.61.57 1.16 0 2.37-.28 3.66-.83 4.03-1.7 8.18-2.84 11.3-3.54 1.57-.35 2.87-.59 3.79-.74.17-.03.32-.05.46-.08l13.68 11.78.01.01c0 .04-.02.16-.12.35-.16.3-.52.71-.98.99-.46.28-.99.45-1.49.45-.18 0-.36.03-.53.06-.3-.06-.62-.15-.92-.28-.95-.37-1.83-.96-2.45-1.47-.32-.25-.57-.48-.73-.64l-.18-.17-.04-.04c-.33-.36-.77-.53-1.21-.53-.39 0-.78.14-1.1.42a1.64 1.64 0 00-.1 2.31c.05.07.87.96 2.22 1.88.66.46 1.48.92 2.41 1.29.21.08.43.16.66.23.07.14.14.28.24.41.03.08.1.34.09.65.01.6-.21 1.38-.52 1.82-.15.23-.3.36-.46.45-.16.09-.32.14-.61.15h-.11c-.05-.01-.12 0-.17.01h-.01c-1.41 0-2.73-.61-3.7-1.27-.49-.33-.88-.66-1.14-.9-.13-.12-.23-.22-.28-.28l-.07-.06h-.01v-.02c-.32-.37-.77-.55-1.23-.55-.38 0-.76.13-1.07.4-.69.59-.76 1.62-.16 2.3.05.08.82.94 2.12 1.83.86.59 1.99 1.2 3.33 1.54-.02.03-.03.08-.04.11-.17.39-.41.78-1.09 1.18-.45.26-.77.39-1 .47-.23.06-.35.08-.51.08-.22 0-.53-.04-1.06-.15-.1-.02-.2-.02-.29-.03-.03-.01-.06-.02-.11-.04-.53-.26-1.2-.72-1.69-1.11-.24-.18-.45-.37-.59-.49l-.16-.15-.03-.03h-.01c-.65-.63-1.69-.6-2.31.04-.62.65-.6 1.69.05 2.31.03.03.72.7 1.69 1.38.16.13.36.25.54.37-.26.43-.54.72-.82.9-.43.3-.9.45-1.51.45-.54 0-1.19-.13-1.83-.4-.22-.09-.42-.22-.63-.33.12-.47.18-.94.18-1.41 0-.98-.26-1.98-.82-2.87a5.43 5.43 0 00-4.15-2.53c0-.06.01-.12.01-.17 0-1.08-.29-2.18-.89-3.16a5.95 5.95 0 00-5.05-2.82h-.03c-.09 0-.16.01-.24.01-.1-.85-.37-1.69-.85-2.45a5.93 5.93 0 00-4-2.72 6 6 0 00-.89-3.09 5.977 5.977 0 00-5.08-2.82c-1.08 0-2.18.29-3.16.9l-2.09 1.29c-.05-.11-.12-.23-.16-.34-.37-.87-.6-1.74-.62-2.33l-.04-.93-10.59-9.22L0 20.29l9.35 8.15c.16.98.47 1.91.83 2.78.23.57.49 1.1.75 1.6a5.915 5.915 0 00.02 6.24c.92 1.48 2.4 2.42 4 2.71a6 6 0 00.89 3.09 5.987 5.987 0 005.08 2.83c.08 0 .15-.01.23-.02.11.85.38 1.69.86 2.46a5.977 5.977 0 005.08 2.82c.2 0 .39-.02.59-.04.1.76.35 1.52.77 2.21a5.446 5.446 0 004.62 2.57c.98 0 1.98-.26 2.87-.82l2.72-1.69c.53.35 1.09.65 1.69.89 1.09.47 2.28.75 3.51.75 1.35.01 2.79-.36 4.02-1.23.79-.55 1.47-1.32 2.02-2.22.09 0 .16.01.25.01.57 0 1.18-.08 1.79-.27.61-.18 1.22-.47 1.87-.84A6.87 6.87 0 0056.76 49c.1-.25.17-.48.24-.7.37-.12.74-.26 1.07-.46 1.2-.69 1.98-1.74 2.47-2.8.48-1.07.7-2.18.7-3.24 0-.11-.01-.21-.02-.32.79-.32 1.5-.77 2.1-1.3.62-.54 1.14-1.18 1.52-1.89.38-.71.64-1.53.64-2.43 0-.59-.12-1.2-.38-1.77-.08-.18-.2-.35-.32-.52.47-.83.93-1.75 1.32-2.75.29-.76.53-1.56.67-2.38l9.35-8.16-2.98-3.17z" fill="url(#a)"/></svg>