<svg xmlns="http://www.w3.org/2000/svg" viewBox="0 0 76.13 35.6"><defs><linearGradient id="a" x1="0" y1="17.8" x2="76.13" y2="17.8" gradientUnits="userSpaceOnUse"><stop offset="0" stop-color="#0071bc"/><stop offset="1" stop-color="#2e3192"/></linearGradient></defs><path d="M22.84 9.76c-.9 1.7-1.47 3.53-1.76 5.39-.14.88-.23 1.77-.23 2.66 0 2.76.66 5.53 1.98 8.04l2.77-1.46c-1.08-2.05-1.62-4.32-1.62-6.58s.54-4.53 1.63-6.58l-2.77-1.46zm-6.45-3.42l-2.77-1.46c-.53 1.01-1 2.04-1.4 3.1-.53 1.4-.93 2.84-1.23 4.3-.37 1.82-.56 3.67-.56 5.53 0 4.44 1.06 8.89 3.19 12.92l2.77-1.46a24.597 24.597 0 01-2.83-11.46c0-.83.05-1.66.13-2.49.31-3.1 1.21-6.16 2.69-8.98zM4.4 0C1.46 5.55 0 11.68 0 17.81S1.46 30.05 4.39 35.6l2.77-1.46c-2.69-5.09-4.03-10.71-4.03-16.33S4.47 6.56 7.16 1.46L4.4 0zm67.33 0l-2.77 1.46a34.947 34.947 0 014.03 16.33c0 5.63-1.34 11.25-4.03 16.34l2.77 1.46c2.93-5.56 4.4-11.68 4.4-17.81 0-6.12-1.47-12.24-4.39-17.79zm-7.24 9.69s-.02-.09-.04-.13c-.05-.15-.1-.29-.15-.44-.48-1.45-1.07-2.88-1.79-4.25l-2.77 1.46c1.88 3.57 2.83 7.51 2.83 11.45s-.95 7.89-2.83 11.47l2.77 1.46c.89-1.68 1.58-3.44 2.1-5.23a27.614 27.614 0 001.1-7.7c0-.95-.06-1.91-.16-2.86-.18-1.77-.53-3.53-1.05-5.24zm-11.21.06l-.71.37-2.06 1.09c1.08 2.05 1.62 4.31 1.62 6.58s-.54 4.53-1.63 6.58l2.77 1.46c1.32-2.51 1.99-5.28 1.99-8.05 0-1.09-.13-2.18-.34-3.26-.32-1.65-.84-3.26-1.64-4.78zm-15.23 2.83c-2.88 0-5.21 2.35-5.2 5.23a5.215 5.215 0 005.23 5.2c2.88 0 5.21-2.35 5.2-5.23 0-2.88-2.35-5.21-5.23-5.2z" fill="url(#a)"/></svg>