<svg xmlns="http://www.w3.org/2000/svg" viewBox="0 0 313.11 38.08"><path d="M85.65 10.28C85.65 2.64 82.18 0 77.47 0h-9.78v37.57h9.78c2.17 0 8.18-.07 8.18-11.11 0-4.28-1.48-6.91-3.29-8.53 1.85-1.63 3.29-4.09 3.29-7.64m-5.18 16.32c0 2.98-1.22 5.74-3 5.74h-3.88V20.57h2.23c3.86 0 4.65 3.06 4.65 6.04m-6.88-11.26V5.22h3.88s2.61.37 2.61 4.57c0 0 .17 5.55-4.25 5.55H73.6zM208.74 0l-7.81 15.29V0h-5.89v37.57h5.89V26.84l1.8-3.52 6.01 14.25h5.9l-8.63-20.67L214.64 0h-5.9zm-25.61 11.15c0-8.28-3.47-11.15-8.18-11.15h-9.78v37.57h5.9V22.29c6.64 0 6.61 5.48 6.61 5.48v9.79h5.45V26.45s-.12-4.37-3.03-7.28c1.73-1.76 3.03-4.37 3.03-8.03m-12.06 5.49V5.66h3.88s2.6.4 2.6 4.96c0 0 .17 6.02-4.25 6.02h-2.23zM117.26 0h-2.6l-4.62 24.6L105.41 0h-7.97v37.57h5.37V11.74l4.78 25.83h4.9l4.77-25.82v25.82h5.37V0h-5.37zm118.15 16.9c-3.36-3.36-4.94-4.92-4.94-7.47 0-2.88 1.46-3.94 3.11-3.94s3.13 1.18 3.13 4.75h5.18S242.44 0 233.8 0s-9.01 7.03-9.01 9.65c0 4.88 3.59 8.3 6.01 10.72s5.42 5.18 5.42 7.78-.94 4.56-3.15 4.56c-2.05 0-3.15-.95-3.15-6.44h-5.42s-.09 3.46 0 4.33c.09.86.46 7.48 8.57 7.48s8.83-8.19 8.83-9.4.06-5.24-6.49-11.79m-214.08 9.9L17.88 0h-5.67L8.76 26.79 6.28 0H0l4.81 37.57h7.4l2.83-18.79 2.84 18.79h7.4L30.09 0h-6.28l-2.48 26.79zM145.01 0h-5.37l-5.95 37.57h5.37l1.1-6.97h7.42l1.1 6.97h5.37L148.1 0h-3.09zm-4.07 25.71l2.93-18.51 2.93 18.51h-5.87zM40.08 0v37.57h15.84v-5.22h-9.94V21.1h8.29v-5.23h-8.29V5.22h9.94V0H40.08z"/><path d="M256.9 20.47c.81-.08 1.8-.25 2.98-.52a.62.62 0 01.18-.05c.09 0 .15.08.18.23.12.59.2 1.23.22 1.94 0 .16-.1.26-.29.28-.83.17-2.15.39-3.96.64-1.66 4.4-3.22 7.84-4.67 10.3-.09.16-.18.23-.27.23-.05 0-.15-.04-.28-.12-.67-.41-1.23-.82-1.66-1.23-.11-.09-.16-.17-.16-.26s.04-.19.12-.29c1.77-2.93 3.16-5.72 4.16-8.36-.61.03-1.41.05-2.4.05-.48 0-.93 0-1.32-.02-.18 0-.29-.13-.34-.39-.09-.38-.17-1.06-.23-2.04.87.06 1.61.09 2.23.09.93 0 1.85-.04 2.76-.12.21-.74.42-1.64.62-2.68.1-.56.15-1.21.15-1.94 1.37.19 2.31.36 2.8.5.26.05.39.16.39.35 0 .16-.07.32-.21.46-.13.18-.26.48-.39.89-.04.13-.14.48-.29 1.04-.11.41-.2.74-.28 1zm3.85 10.03a56.61 56.61 0 01-.21-4.12c-.02-.65-.09-1.21-.2-1.7 1.08.11 1.96.26 2.61.46.23.05.34.17.34.38 0 .05-.05.22-.14.5-.07.22-.11.46-.11.71 0 .06 0 .15.01.27 0 1.23.09 2.58.26 4.08 1.82.73 3.26 1.48 4.32 2.24.14.1.21.2.21.28 0 .05-.02.13-.07.22-.36.73-.73 1.38-1.1 1.94-.07.11-.14.16-.22.16-.06 0-.14-.05-.23-.14-.72-.62-1.69-1.3-2.93-2.01 0 1.24-.45 2.16-1.36 2.76-.76.49-1.79.74-3.09.74-1.42 0-2.54-.35-3.35-1.05-.71-.61-1.07-1.39-1.07-2.35 0-1.12.45-2.01 1.36-2.65.8-.57 1.82-.85 3.08-.85.65 0 1.28.05 1.89.14zm.05 2.28c-.71-.24-1.36-.36-1.96-.36-.67 0-1.2.13-1.59.4-.36.25-.54.58-.54 1 0 .77.68 1.15 2.04 1.15.68 0 1.21-.18 1.59-.54.32-.3.48-.69.48-1.16 0-.23 0-.39-.02-.48zm1.42-10.03c.66-1.16 1.01-1.79 1.08-1.87.09-.15.19-.22.29-.22.05 0 .12.02.21.05 1.44.39 3.01 1.14 4.71 2.26.14.09.21.18.21.26 0 .09-.03.18-.09.29-.25.55-.59 1.14-1.01 1.78-.07.11-.14.16-.22.16-.05 0-.12-.03-.21-.09-1.87-1.27-3.53-2.14-4.97-2.61zm13.89-1.22c1.29.37 2.12.66 2.5.87.26.12.39.27.39.46 0 .11-.04.23-.12.36-.23.41-.39.83-.48 1.27-.28 1.44-.48 2.89-.58 4.37 1.23-1.25 2.57-2.21 4.02-2.87 1.34-.62 2.68-.93 4.01-.93 1.85 0 3.28.53 4.29 1.59.87.91 1.3 2.08 1.3 3.54 0 2.37-1.21 4.17-3.62 5.38-1.53.77-3.58 1.32-6.15 1.65-.16.02-.29.04-.38.04-.25 0-.45-.11-.59-.34-.51-.91-1.05-1.59-1.63-2.04 2.79-.17 4.99-.62 6.59-1.35 1.89-.81 2.83-2.02 2.83-3.62 0-.77-.25-1.37-.76-1.82-.51-.44-1.21-.66-2.12-.66-1.12 0-2.33.37-3.63 1.1-1.13.63-2.23 1.48-3.28 2.54-.4.41-.74.85-1.03 1.32-.09.14-.18.21-.29.21-.05 0-.14-.02-.26-.05-.67-.23-1.21-.44-1.63-.64-.23-.09-.34-.25-.34-.48.12-2.41.37-4.99.74-7.74.15-1.08.22-1.81.22-2.17zm1.68-3.33c.61-.91 1.08-1.54 1.42-1.87.1-.1.2-.15.3-.15.05 0 .1 0 .15.02 1.71.67 3.28 1.62 4.71 2.86.11.09.16.18.16.27 0 .05-.04.15-.12.28-.36.59-.77 1.15-1.23 1.69-.1.12-.19.19-.26.19-.09 0-.18-.05-.29-.16-1.5-1.31-3.12-2.35-4.85-3.12zm21.94 14.39v3.31h-3.43v-3.31h3.43zm6.69 0v3.31h-3.43v-3.31h3.43zm6.69 0v3.31h-3.43v-3.31h3.43z" fill="#1a1311"/></svg>