<svg xmlns="http://www.w3.org/2000/svg" viewBox="0 0 51.83 36.76"><defs><linearGradient id="a" x1="0" y1="18.38" x2="51.83" y2="18.38" gradientUnits="userSpaceOnUse"><stop offset="0" stop-color="#ff7d62"/><stop offset="1" stop-color="#ff5562"/></linearGradient></defs><path d="M0 0v36.76h51.83V0H0zm7.24 9.39H4.85a.77.77 0 01-.77-.77V4.27c0-.43.35-.77.77-.77h2.39c.43 0 .77.35.77.77v4.35c0 .43-.35.77-.77.77zm-2.39 5.53h2.39c.43 0 .77.35.77.77v4.35c0 .43-.35.77-.77.77H4.85a.77.77 0 01-.77-.77v-4.35c0-.43.35-.77.77-.77zm0 12.44h2.39c.43 0 .77.35.77.77v4.35c0 .43-.35.77-.77.77H4.85a.77.77 0 01-.77-.77v-4.35c0-.43.35-.77.77-.77zm15.29-1.81V11.21c0-.59.64-.97 1.16-.67l12.42 7.17a.77.77 0 010 1.34L21.3 26.22a.77.77 0 01-1.16-.67zM46.98 9.39h-2.39a.77.77 0 01-.77-.77V4.27c0-.43.35-.77.77-.77h2.39c.43 0 .77.35.77.77v4.35c0 .43-.35.77-.77.77zm-2.39 5.53h2.39c.43 0 .77.35.77.77v4.35c0 .43-.35.77-.77.77h-2.39a.77.77 0 01-.77-.77v-4.35c0-.43.35-.77.77-.77zm0 12.44h2.39c.43 0 .77.35.77.77v4.35c0 .43-.35.77-.77.77h-2.39a.77.77 0 01-.77-.77v-4.35c0-.43.35-.77.77-.77z" fill="url(#a)"/></svg>