<svg id="_レイヤー_2" xmlns="http://www.w3.org/2000/svg" viewBox="0 0 192.44 155.05"><defs><linearGradient id="_名称未設定グラデーション_24" x1="-193.07" y1="-191.56" x2="1145.07" y2="1491.61" gradientUnits="userSpaceOnUse"><stop offset="0" stop-color="#168fbd"/><stop offset="1" stop-color="#0077a0"/></linearGradient><style>.cls-1{fill:#fff}</style></defs><g id="_レイヤー_1-2"><path class="cls-1" d="M8.28 102.45c0-29.36 14.87-52.85 42.85-52.85s42.73 23.49 42.73 52.85-14.74 52.6-42.73 52.6-42.85-23.24-42.85-52.6zm78.09 0c0-24.74-11.62-45.23-35.23-45.23s-35.36 20.5-35.36 45.23 11.74 45.1 35.36 45.1 35.23-20.37 35.23-45.1zm85.45 31.24v17.62c0 2.5-2 3.75-3.87 3.75s-3.75-1.25-3.75-3.75v-17.62h-59.47c-2.75 0-4.37-1.25-4.37-3.12 0-.88.5-2 1.37-3.12l63.34-76.09c1.12-1.37 2.37-2 3.5-2 1.75 0 3.25 1.62 3.25 4.37v72.34h16.87c2.5 0 3.75 2 3.75 3.87s-1.25 3.75-3.75 3.75h-16.87zm-7.62-70.47l-52.22 62.84h52.22V63.22zM58.92 18.01h-2.95v-3h2.95v-4.68h-3.24V7.38h9.53v2.95h-2.98v4.68h2.69v3h-2.69v5.46c1.47-.52 2.63-1.01 3.09-1.27v.4c0 .63 0 1.82.12 2.37 0 .03.03.06.03.09 0 .43-8.06 3.32-8.35 3.41 0 .09.03.17.03.26 0 .43-.14.61-.32.61-.14 0-.32-.12-.43-.35-.81-1.39-1.68-3.32-1.68-3.32 1.33-.26 2.77-.66 4.19-1.07v-6.59zm5.23 10.28h7.54v-2.37h-5.55v-2.98h5.55v-2.92h-2.48v1.3h-3.09V6.89h14.53v14.24h-3.12v-1.1H74.9v2.92h6.01v2.98H74.9v2.37h7.28v2.98H64.16V28.3zm7.54-16.26V9.52h-2.48v2.51h2.48zm0 5.34v-2.71h-2.48v2.71h2.48zm5.83-5.34V9.52h-2.63v2.51h2.63zm0 5.34v-2.71h-2.63v2.71h2.63zm8.97-5.63h9.07V9.05s0-1.62-.09-2.98c0 0 2.86.06 3.96.17.35.03.55.2.55.38s-.26.41-.84.52l-.09 2.2v2.4h9.59v20.31h-3.47v-1.96H89.89v2.17h-3.41V11.74zm9.07 7.37v-4.39H89.9v4.39h5.66zm0 7.89v-4.88H89.9V27h5.66zm9.65-7.89v-4.39h-6.15v4.39h6.15zm-.03 7.89l.03-4.88h-6.15V27h6.12z"/><path fill="none" stroke="#fff" stroke-miterlimit="10" stroke-width="1.87" d="M43.09.93h78.27v36.22H43.09z"/><path d="M42.01 61.77a51.137 51.137 0 00-20.14 35.29C14.58 96.25 7.29 95.45 0 94.64a73.184 73.184 0 0128.8-50.47c4.4 5.87 8.81 11.74 13.21 17.6z" fill="url(#_名称未設定グラデーション_24)"/><path class="cls-1" d="M7.9 89.45l.55-2.22c.22-.87.81-1.18 1.77-.93l2.09.52c.74.19 1.15.53 1.23 1.02l3.72.09-.27 1.07-3.6-.11-.17.68 3.42.86-.28 1.13-8.47-2.12zm4.36-.11l.19-.74c.08-.34-.08-.56-.49-.66l-1.83-.46c-.41-.1-.66.02-.74.35l-.19.74 3.05.76zm5.97-4.29l-8.15-3.11 1.03-2.7.99.38-.62 1.61 2.48.95.55-1.43.99.38-.55 1.43 2.71 1.04.62-1.61.99.38-1.03 2.7zm2.79-6.43l-.55 1.03-6.38-3.42c-.88-.47-1.1-1.12-.66-1.94l.41-.77c.44-.82 1.1-1 1.98-.53l6.37 3.42-.55 1.03-2.82-1.51-.63 1.18 2.82 1.51zm-3.12-3.19l-2.56-1.37c-.3-.16-.53-.09-.69.21l-.15.28c-.16.3-.09.53.21.69l2.56 1.37.63-1.18zm2.2-7.29l-.62-.46c-.28-.21-.52-.17-.72.1l-.11.15c-.2.27-.16.5.12.71l1.16.86c.13.1.24.14.32.12.08-.02.21-.06.36-.12l1.14-.54c.25-.11.44-.19.57-.22.12-.04.24-.04.37-.02s.31.12.55.3l1.5 1.1c.79.58.9 1.25.35 2.01l-.43.58c-.55.75-1.26.81-2.12.17l-.35-.26.69-.94.38.28c.27.2.51.16.72-.12l.12-.17c.18-.25.14-.47-.14-.68l-1.19-.88c-.13-.1-.24-.13-.32-.12-.08.02-.21.06-.36.12l-1.16.52c-.25.12-.44.2-.58.23-.14.04-.28.03-.42-.01s-.31-.14-.49-.27L18 69.52c-.8-.59-.93-1.26-.37-2.01l.43-.59c.55-.75 1.23-.83 2.03-.24l.68.5-.69.94zm8.81-.43c-.67.66-1.35.63-2.05-.08l-4.01-4.12c-.7-.71-.71-1.4-.04-2.05l.8-.78c.67-.65 1.35-.62 2.04.09l4.01 4.12c.69.71.7 1.39.03 2.05l-.78.76zm-.54-.95l.43-.42c.22-.22.21-.45-.03-.69l-3.9-4c-.24-.25-.48-.25-.73 0l-.39.38c-.24.24-.25.48 0 .72l3.9 4c.24.24.48.24.73 0zm4.25-7.84l-2.34-3.51.97-.65 4.84 7.26-.97.65-.96-1.45-3.25-2.61 3.17 4.75-.97.65-4.84-7.26.97-.65 3.38 2.81z"/></g></svg>