<svg id="_レイヤー_2" xmlns="http://www.w3.org/2000/svg" viewBox="0 0 220.56 220.56"><defs><style>.cls-1{fill:#fff}</style></defs><g opacity=".17" id="_レイヤー_1-2"><circle class="cls-1" cx="3.44" cy="3.44" r="3.44"/><circle class="cls-1" cx="21.25" cy="3.44" r="3.44"/><circle class="cls-1" cx="39.05" cy="3.44" r="3.44"/><circle class="cls-1" cx="56.86" cy="3.44" r="3.44"/><circle class="cls-1" cx="74.67" cy="3.44" r="3.44"/><circle class="cls-1" cx="92.48" cy="3.44" r="3.44"/><circle class="cls-1" cx="110.28" cy="3.44" r="3.44"/><circle class="cls-1" cx="128.09" cy="3.44" r="3.44"/><circle class="cls-1" cx="145.9" cy="3.44" r="3.44"/><circle class="cls-1" cx="163.7" cy="3.44" r="3.44"/><circle class="cls-1" cx="181.51" cy="3.44" r="3.44"/><circle class="cls-1" cx="199.32" cy="3.44" r="3.44"/><circle class="cls-1" cx="217.13" cy="3.44" r="3.44"/><circle class="cls-1" cx="3.44" cy="21.25" r="3.44"/><circle class="cls-1" cx="21.25" cy="21.25" r="3.44"/><circle class="cls-1" cx="39.05" cy="21.25" r="3.44"/><circle class="cls-1" cx="56.86" cy="21.25" r="3.44"/><circle class="cls-1" cx="74.67" cy="21.25" r="3.44"/><circle class="cls-1" cx="92.48" cy="21.25" r="3.44"/><circle class="cls-1" cx="110.28" cy="21.25" r="3.44"/><circle class="cls-1" cx="128.09" cy="21.25" r="3.44"/><circle class="cls-1" cx="145.9" cy="21.25" r="3.44"/><circle class="cls-1" cx="163.7" cy="21.25" r="3.44"/><circle class="cls-1" cx="181.51" cy="21.25" r="3.44"/><circle class="cls-1" cx="199.32" cy="21.25" r="3.44"/><circle class="cls-1" cx="217.13" cy="21.25" r="3.44"/><circle class="cls-1" cx="3.44" cy="39.05" r="3.44"/><circle class="cls-1" cx="21.25" cy="39.05" r="3.44"/><circle class="cls-1" cx="39.05" cy="39.05" r="3.44"/><circle class="cls-1" cx="56.86" cy="39.05" r="3.44"/><circle class="cls-1" cx="74.67" cy="39.05" r="3.44"/><circle class="cls-1" cx="92.48" cy="39.05" r="3.44"/><circle class="cls-1" cx="110.28" cy="39.05" r="3.44"/><circle class="cls-1" cx="128.09" cy="39.05" r="3.44"/><circle class="cls-1" cx="145.9" cy="39.05" r="3.44"/><circle class="cls-1" cx="163.7" cy="39.05" r="3.44"/><circle class="cls-1" cx="181.51" cy="39.05" r="3.44"/><circle class="cls-1" cx="199.32" cy="39.05" r="3.44"/><circle class="cls-1" cx="217.13" cy="39.05" r="3.44"/><circle class="cls-1" cx="3.44" cy="56.86" r="3.44"/><circle class="cls-1" cx="21.25" cy="56.86" r="3.44"/><circle class="cls-1" cx="39.05" cy="56.86" r="3.44"/><circle class="cls-1" cx="56.86" cy="56.86" r="3.44"/><circle class="cls-1" cx="74.67" cy="56.86" r="3.44"/><circle class="cls-1" cx="92.48" cy="56.86" r="3.44"/><circle class="cls-1" cx="110.28" cy="56.86" r="3.44"/><circle class="cls-1" cx="128.09" cy="56.86" r="3.44"/><circle class="cls-1" cx="145.9" cy="56.86" r="3.44"/><circle class="cls-1" cx="163.7" cy="56.86" r="3.44"/><circle class="cls-1" cx="181.51" cy="56.86" r="3.44"/><circle class="cls-1" cx="199.32" cy="56.86" r="3.44"/><circle class="cls-1" cx="217.13" cy="56.86" r="3.44"/><circle class="cls-1" cx="3.44" cy="74.67" r="3.44"/><circle class="cls-1" cx="21.25" cy="74.67" r="3.44"/><circle class="cls-1" cx="39.05" cy="74.67" r="3.44"/><circle class="cls-1" cx="56.86" cy="74.67" r="3.44"/><circle class="cls-1" cx="74.67" cy="74.67" r="3.44"/><circle class="cls-1" cx="92.48" cy="74.67" r="3.44"/><circle class="cls-1" cx="110.28" cy="74.67" r="3.44"/><circle class="cls-1" cx="128.09" cy="74.67" r="3.44"/><circle class="cls-1" cx="145.9" cy="74.67" r="3.44"/><circle class="cls-1" cx="163.7" cy="74.67" r="3.44"/><circle class="cls-1" cx="181.51" cy="74.67" r="3.44"/><circle class="cls-1" cx="199.32" cy="74.67" r="3.44"/><circle class="cls-1" cx="217.13" cy="74.67" r="3.44"/><circle class="cls-1" cx="3.44" cy="92.48" r="3.44"/><circle class="cls-1" cx="21.25" cy="92.48" r="3.44"/><circle class="cls-1" cx="39.05" cy="92.48" r="3.44"/><circle class="cls-1" cx="56.86" cy="92.48" r="3.44"/><circle class="cls-1" cx="74.67" cy="92.48" r="3.44"/><circle class="cls-1" cx="92.48" cy="92.48" r="3.44"/><circle class="cls-1" cx="110.28" cy="92.48" r="3.44"/><circle class="cls-1" cx="128.09" cy="92.48" r="3.44"/><circle class="cls-1" cx="145.9" cy="92.48" r="3.44"/><circle class="cls-1" cx="163.7" cy="92.48" r="3.44"/><circle class="cls-1" cx="181.51" cy="92.48" r="3.44"/><circle class="cls-1" cx="199.32" cy="92.48" r="3.44"/><circle class="cls-1" cx="217.13" cy="92.48" r="3.44"/><circle class="cls-1" cx="3.44" cy="110.28" r="3.44"/><circle class="cls-1" cx="21.25" cy="110.28" r="3.44"/><circle class="cls-1" cx="39.05" cy="110.28" r="3.44"/><circle class="cls-1" cx="56.86" cy="110.28" r="3.44"/><circle class="cls-1" cx="74.67" cy="110.28" r="3.44"/><circle class="cls-1" cx="92.48" cy="110.28" r="3.44"/><circle class="cls-1" cx="110.28" cy="110.28" r="3.44"/><circle class="cls-1" cx="128.09" cy="110.28" r="3.44"/><circle class="cls-1" cx="145.9" cy="110.28" r="3.44"/><circle class="cls-1" cx="163.7" cy="110.28" r="3.44"/><circle class="cls-1" cx="181.51" cy="110.28" r="3.44"/><circle class="cls-1" cx="199.32" cy="110.28" r="3.44"/><circle class="cls-1" cx="217.13" cy="110.28" r="3.44"/><circle class="cls-1" cx="3.44" cy="128.09" r="3.44"/><circle class="cls-1" cx="21.25" cy="128.09" r="3.44"/><circle class="cls-1" cx="39.05" cy="128.09" r="3.44"/><circle class="cls-1" cx="56.86" cy="128.09" r="3.44"/><circle class="cls-1" cx="74.67" cy="128.09" r="3.44"/><circle class="cls-1" cx="92.48" cy="128.09" r="3.44"/><circle class="cls-1" cx="110.28" cy="128.09" r="3.44"/><circle class="cls-1" cx="128.09" cy="128.09" r="3.44"/><circle class="cls-1" cx="145.9" cy="128.09" r="3.44"/><circle class="cls-1" cx="163.7" cy="128.09" r="3.44"/><circle class="cls-1" cx="181.51" cy="128.09" r="3.44"/><circle class="cls-1" cx="199.32" cy="128.09" r="3.44"/><circle class="cls-1" cx="217.13" cy="128.09" r="3.44"/><circle class="cls-1" cx="3.44" cy="145.9" r="3.44"/><circle class="cls-1" cx="21.25" cy="145.9" r="3.44"/><circle class="cls-1" cx="39.05" cy="145.9" r="3.44"/><circle class="cls-1" cx="56.86" cy="145.9" r="3.44"/><circle class="cls-1" cx="74.67" cy="145.9" r="3.44"/><circle class="cls-1" cx="92.48" cy="145.9" r="3.44"/><circle class="cls-1" cx="110.28" cy="145.9" r="3.44"/><circle class="cls-1" cx="128.09" cy="145.9" r="3.44"/><circle class="cls-1" cx="145.9" cy="145.9" r="3.44"/><circle class="cls-1" cx="163.7" cy="145.9" r="3.44"/><circle class="cls-1" cx="181.51" cy="145.9" r="3.44"/><circle class="cls-1" cx="199.32" cy="145.9" r="3.44"/><circle class="cls-1" cx="217.13" cy="145.9" r="3.44"/><circle class="cls-1" cx="3.44" cy="163.7" r="3.44"/><circle class="cls-1" cx="21.25" cy="163.7" r="3.44"/><circle class="cls-1" cx="39.05" cy="163.7" r="3.44"/><circle class="cls-1" cx="56.86" cy="163.7" r="3.44"/><circle class="cls-1" cx="74.67" cy="163.7" r="3.44"/><circle class="cls-1" cx="92.48" cy="163.7" r="3.44"/><circle class="cls-1" cx="110.28" cy="163.7" r="3.44"/><circle class="cls-1" cx="128.09" cy="163.7" r="3.44"/><circle class="cls-1" cx="145.9" cy="163.7" r="3.44"/><circle class="cls-1" cx="163.7" cy="163.7" r="3.44"/><circle class="cls-1" cx="181.51" cy="163.7" r="3.44"/><circle class="cls-1" cx="199.32" cy="163.7" r="3.44"/><circle class="cls-1" cx="217.13" cy="163.7" r="3.44"/><g><circle class="cls-1" cx="3.44" cy="181.51" r="3.44"/><circle class="cls-1" cx="21.25" cy="181.51" r="3.44"/><circle class="cls-1" cx="39.05" cy="181.51" r="3.44"/><circle class="cls-1" cx="56.86" cy="181.51" r="3.44"/><circle class="cls-1" cx="74.67" cy="181.51" r="3.44"/><circle class="cls-1" cx="92.48" cy="181.51" r="3.44"/><circle class="cls-1" cx="110.28" cy="181.51" r="3.44"/><circle class="cls-1" cx="128.09" cy="181.51" r="3.44"/><circle class="cls-1" cx="145.9" cy="181.51" r="3.44"/><circle class="cls-1" cx="163.7" cy="181.51" r="3.44"/><circle class="cls-1" cx="181.51" cy="181.51" r="3.44"/><circle class="cls-1" cx="199.32" cy="181.51" r="3.44"/><circle class="cls-1" cx="217.13" cy="181.51" r="3.44"/></g><g><circle class="cls-1" cx="3.44" cy="199.32" r="3.44"/><circle class="cls-1" cx="21.25" cy="199.32" r="3.44"/><circle class="cls-1" cx="39.05" cy="199.32" r="3.44"/><circle class="cls-1" cx="56.86" cy="199.32" r="3.44"/><circle class="cls-1" cx="74.67" cy="199.32" r="3.44"/><circle class="cls-1" cx="92.48" cy="199.32" r="3.44"/><circle class="cls-1" cx="110.28" cy="199.32" r="3.44"/><circle class="cls-1" cx="128.09" cy="199.32" r="3.44"/><circle class="cls-1" cx="145.9" cy="199.32" r="3.44"/><circle class="cls-1" cx="163.7" cy="199.32" r="3.44"/><circle class="cls-1" cx="181.51" cy="199.32" r="3.44"/><circle class="cls-1" cx="199.32" cy="199.32" r="3.44"/><circle class="cls-1" cx="217.13" cy="199.32" r="3.44"/></g><g><circle class="cls-1" cx="3.44" cy="217.13" r="3.44"/><circle class="cls-1" cx="21.25" cy="217.13" r="3.44"/><circle class="cls-1" cx="39.05" cy="217.13" r="3.44"/><circle class="cls-1" cx="56.86" cy="217.13" r="3.44"/><circle class="cls-1" cx="74.67" cy="217.13" r="3.44"/><circle class="cls-1" cx="92.48" cy="217.13" r="3.44"/><circle class="cls-1" cx="110.28" cy="217.13" r="3.44"/><circle class="cls-1" cx="128.09" cy="217.13" r="3.44"/><circle class="cls-1" cx="145.9" cy="217.13" r="3.44"/><circle class="cls-1" cx="163.7" cy="217.13" r="3.44"/><circle class="cls-1" cx="181.51" cy="217.13" r="3.44"/><circle class="cls-1" cx="199.32" cy="217.13" r="3.44"/><circle class="cls-1" cx="217.13" cy="217.13" r="3.44"/></g></g></svg>