<svg id="_レイヤー_2" xmlns="http://www.w3.org/2000/svg" viewBox="0 0 71.78 54.62"><defs><linearGradient id="_新規グラデーションスウォッチ_5" x1="97.19" y1="-24.11" x2="168.97" y2="-24.11" gradientTransform="translate(-97.19 51.43)" gradientUnits="userSpaceOnUse"><stop offset="0" stop-color="#0071bc"/><stop offset="1" stop-color="#2e3192"/></linearGradient><style>.cls-1{fill:url(#_新規グラデーションスウォッチ_5)}</style></defs><g id="_レイヤー_1-2"><path class="cls-1" d="M19.93 19.53c-2.2 0-3.99 1.79-3.99 3.99s1.79 3.99 3.99 3.99 3.99-1.79 3.99-3.99-1.78-3.99-3.99-3.99zm15.96 0c-2.2 0-3.99 1.79-3.99 3.99s1.79 3.99 3.99 3.99 3.99-1.79 3.99-3.99-1.79-3.99-3.99-3.99zm15.95 0c-2.2 0-3.99 1.79-3.99 3.99s1.79 3.99 3.99 3.99 3.99-1.79 3.99-3.99-1.78-3.99-3.99-3.99z"/><path class="cls-1" d="M71.77 23.1c-.06-6.18-2.48-11.98-6.82-16.33C60.61 2.41 54.82 0 48.64 0H23.13C10.38 0 0 10.38 0 23.12c0 12.75 10.38 23.13 23.13 23.13h21.01c.33 0 .51.14.6.26.22.29.12.69.09.81-.13.48-.47 1.14-1.13 2.21-.51.84-.98 1.55-1.08 1.7-.71 1.07-.96 1.97-.69 2.55.2.43.7.7 1.49.79.26.03.63.05.98.05.18 0 .36 0 .51-.02 1.63-.14 3.83-.4 6.4-1.17 3.75-1.13 9.12-3.52 13.43-8.5 4.62-5.32 7.05-12.69 7.04-21.32v-.51zm-7.16 14.46c-2.29 4.56-5.89 8.04-10.68 10.35a27.71 27.71 0 01-5.16 1.84l-.47.11.3-.66c.11-.24.22-.47.31-.72.17-.51.33-1.07.34-1.8 0-.61-.13-1.22-.39-1.77-.41-.89-1.19-1.68-2.14-2.15-.98-.49-2.13-.73-3.52-.73H23.13c-5.04 0-9.79-1.97-13.37-5.54-3.57-3.57-5.54-8.32-5.54-13.37s1.97-9.79 5.54-13.37c3.58-3.57 8.32-5.54 13.37-5.54h25.52c5.03 0 9.76 1.97 13.32 5.53 3.55 3.57 5.53 8.32 5.59 13.39v.47c0 5.37-.99 10.06-2.94 13.94z"/></g></svg>