<svg xmlns="http://www.w3.org/2000/svg" viewBox="0 0 41.19 40.88"><path d="M28.32 15.15c-7.1 0-12.86 5.76-12.86 12.86s5.76 12.86 12.86 12.86 12.86-5.76 12.86-12.86-5.76-12.86-12.86-12.86zm5.11 11.81h-3.52l-.38.59v1.41h3.9v2h-3.9v3.02h-2.42v-3.02h-3.9v-2h3.9v-1.41l-.38-.59h-3.52v-1.71h2.42l-2.06-3.2h2.05l2.7 4.19 2.7-4.19h2.05l-2.06 3.2h2.42v1.71zM20.89 4.45c0 2.46-4.68 4.45-10.45 4.45S0 6.9 0 4.45 4.68 0 10.45 0 20.9 1.99 20.9 4.45zM0 11.98c0 2.46 4.68 4.45 10.45 4.45s10.45-1.99 10.45-4.45v-1.11a1 1 0 00-.45-.84c-.28-.19-.64-.22-.95-.09 0 0-3.27 2.02-9.04 2.02S1.41 9.94 1.41 9.94c-.31-.13-.67-.1-.96.09-.28.19-.45.51-.45.84v1.11zm13.82 7.52c-.85 1.43-1.49 3-1.87 4.66-.49.03-.99.05-1.51.05C4.68 24.2 0 22.21 0 19.75v-1.1c0-.34.17-.66.45-.85.28-.19.64-.22.95-.09 0 0 3.27 2.02 9.04 2.02 1.25 0 2.37-.09 3.38-.24zm-1.86 12.43c-.49.03-1.01.05-1.52.05C4.68 31.98 0 29.99 0 27.54v-1.11c0-.34.17-.66.45-.85.28-.19.64-.22.95-.09 0 0 3.27 2.02 9.04 2.02.37 0 .72 0 1.07-.02-.01.17-.01.35-.01.52 0 1.35.16 2.66.47 3.92zm3.76 7.21c-1.55.39-3.35.61-5.27.61C4.68 39.76 0 37.76 0 35.31V34.2c0-.34.17-.66.45-.85.28-.19.64-.22.95-.09 0 0 3.27 2.02 9.04 2.02.95 0 1.83-.05 2.64-.15.69 1.46 1.57 2.81 2.63 4z" fill="#fff"/></svg>