<svg id="_レイヤー_2" xmlns="http://www.w3.org/2000/svg" viewBox="0 0 40.72 40.72"><defs><style>.cls-1{fill:#fff}</style></defs><g id="_レイヤー_2-2"><g id="_レイヤー_1-2"><path class="cls-1" d="M8.52 32.75h6.41c.45 0 .81-.34.81-.76v-9.52c0-.42-.36-.76-.81-.76H8.52c-.45 0-.81.34-.81.76v9.52c0 .42.36.76.81.76zm11.69-13.98c-.45 0-.82.34-.82.76v12.46c0 .42.36.76.82.76h6.41c.45 0 .81-.34.81-.76V19.53c0-.42-.36-.76-.81-.76h-6.41zm10.87-4.58v17.8c0 .42.36.76.81.76h6.41c.45 0 .81-.34.81-.76v-17.8c0-.42-.37-.76-.81-.76h-6.41c-.45 0-.81.34-.81.76z"/><path class="cls-1" d="M39.4 36.19H4.53V0H0v40.72h40.72v-4.53H39.4z"/><path class="cls-1" d="M17.83 9.47l6.61 6.57 9.5-9.45 2.16 2.16L37.57 0l-8.79 1.46 2.17 2.15-6.51 6.48-6.61-6.57L7.7 13.59l2.99 2.98 7.14-7.1z"/></g></g></svg>