<svg xmlns="http://www.w3.org/2000/svg" viewBox="0 0 46.1 50.35"><path d="M46.1 50.34c-.42-2.02-.88-3.91-1.23-6.41-.24-1.76-1.2-2.7-3.15-3.78l-12.51-6.64h.01l.01-.02-.39-3.32.02-.02c.13-.12 1.28-1.19 2.16-2.37 1.18-1.58 1.51-4.95 1.51-4.95s.89-.64 1.35-1.15c.65-.7 1.21-2.17 1.16-3.86-.04-1.31-1.21-2.06-1.64-1.86 3.51-5.83-1.15-13.03-1.15-13.03.9-.65.46-2.93.46-2.93s-2.48 1.52-5.17 1.09c-2.7-.43-7.75.22-7.75.22s-3.33.47-5.53 2.46c-2.68 2.43-3.02 4.3-2.45 7.98.26 1.64.95 4.19.95 4.27-.33-.35-1.67.41-1.72 1.81-.05 1.69.51 3.16 1.16 3.86.46.51 1.17 1.15 1.17 1.15s.51 3.37 1.69 4.95c.88 1.18 2.03 2.24 2.16 2.37l.02.02-.39 3.32.02.02-12.51 6.64c-1.96 1.09-2.91 2.02-3.15 3.78-.3 2.18-.68 3.89-1.06 5.64-.06.25-.11.51-.17.78H46.1z" fill="#fff"/></svg>