<svg id="_レイヤー_2" xmlns="http://www.w3.org/2000/svg" viewBox="0 0 34.04 35"><defs><style>.cls-1{fill:#fff}</style></defs><g id="_レイヤー_2-2"><g id="_レイヤー_1-2"><path class="cls-1" d="M9.72 7.08c1.09 0 1.98-.89 1.98-1.98V1.98C11.7.89 10.81 0 9.72 0S7.74.89 7.74 1.98V5.1c0 1.09.89 1.98 1.98 1.98zm14.6 0c1.09 0 1.98-.89 1.98-1.98V1.98C26.3.89 25.41 0 24.32 0s-1.98.89-1.98 1.98V5.1c0 1.09.89 1.98 1.98 1.98z"/><path class="cls-1" d="M29.27 2.82h-1.23v2.27c0 2.05-1.67 3.72-3.72 3.72S20.6 7.14 20.6 5.09V2.82h-7.16v2.27c0 2.05-1.67 3.72-3.72 3.72S6 7.14 6 5.09V2.82H4.77C2.14 2.82 0 4.96 0 7.59v22.64C0 32.86 2.14 35 4.77 35h24.5c2.63 0 4.77-2.14 4.77-4.77V7.59c0-2.63-2.14-4.77-4.77-4.77zm2.45 27.41c0 1.35-1.1 2.45-2.45 2.45H4.77c-1.35 0-2.45-1.1-2.45-2.45V10.61h29.4v19.62z"/><path class="cls-1" d="M12.07 25.81h3.88v3.88h-3.88zm0-6.01h3.88v3.88h-3.88zm-6.01 6.01h3.88v3.88H6.06zm0-6.01h3.88v3.88H6.06zm18.04-6.01h3.88v3.88H24.1zm-6.02 0h3.88v3.88h-3.88zm0 6.01h3.88v3.88h-3.88zm6.02 6.01h3.88v3.88H24.1zm0-6.01h3.88v3.88H24.1zm-6.02 6.01h3.88v3.88h-3.88zm-6.01-12.02h3.88v3.88h-3.88zm-6.01 0h3.88v3.88H6.06z"/></g></g></svg>