<svg xmlns="http://www.w3.org/2000/svg" viewBox="0 0 69.03 22.72"><defs><linearGradient id="a" x1="0" y1="11.36" x2="69.03" y2="11.36" gradientUnits="userSpaceOnUse"><stop offset="0" stop-color="#be965d"/><stop offset=".28" stop-color="#976f40"/><stop offset="1" stop-color="#976f40"/></linearGradient></defs><path d="M6.09 10.18v.16c0 .05-.01.12 0 .2 0 .07.02.16.02.26.05.19.1.44.28.67.17.23.43.46.78.62.35.16.77.25 1.24.28h.36c.06 0 .13 0 .18-.01.07 0 .13-.02.2-.03h.1l.09-.04c.06-.02.12-.03.18-.05.06-.02.12-.05.18-.07l.09-.04.09-.05c.24-.12.45-.29.64-.5.19-.21.35-.46.46-.74.12-.28.19-.59.23-.91.03-.32.01-.66-.05-.99-.06-.33-.17-.67-.33-.98-.16-.31-.38-.61-.64-.86s-.57-.47-.92-.64c-.35-.16-.73-.27-1.13-.34-.1-.01-.2-.03-.31-.04-.1-.01-.21-.01-.31-.02h-.31c-.12 0-.23 0-.35.01-.12 0-.24 0-.35.01-.11.01-.21.03-.32.04-.11.01-.21.03-.32.04-.11.02-.22.05-.33.07-.87.2-1.72.57-2.39 1.19l-.24.24c-.09.08-.15.17-.22.26-.15.17-.26.37-.39.57a5 5 0 00-.5 1.32c-.21.94-.16 1.97.14 2.95.15.49.35.97.63 1.41.27.44.58.87.97 1.23l.14.14s.1.09.15.13c.1.08.2.17.31.26.22.15.43.31.67.44.23.14.48.24.73.36.12.06.26.09.39.14.13.05.26.1.4.12 2.22.55 4.82.2 7.47-.34l.25-.05.11-.02.13-.03.51-.12c.34-.08.69-.15 1.02-.24.66-.18 1.33-.35 2.02-.55 1.37-.38 2.79-.77 4.26-1.06 1.46-.3 2.97-.51 4.51-.59.77-.03 1.55-.03 2.34.05.79.08 1.58.22 2.35.5 3.46.88 4.16 6.4.84 7.91-.39.16-.81.25-1.22.28-.1 0-.21.02-.31 0h-.31c-.12-.03-.2-.04-.31-.06l-.32-.09c-.79-.3-1.46-.89-1.85-1.64-.19-.38-.3-.81-.26-1.23.02-.21.07-.43.15-.62.02-.05.03-.1.07-.15l.08-.13.11-.13s.09-.07.13-.11c.19-.14.47-.16.68-.02.21.14.29.4.26.63-.03.23-.14.43-.26.6l-.2.24c-.07.08-.16.15-.23.22a2.9 2.9 0 01-1.13.58c-.41.11-.85.14-1.28.1a3.94 3.94 0 01-1.25-.34c-.2-.09-.39-.2-.57-.33l-.13-.1s-.04-.03-.07-.06l-.06-.05c-.08-.07-.15-.13-.23-.22-.63-.65-1.03-1.49-1.21-2.38-.09-.45-.12-.91-.1-1.37 0-.12.01-.23.03-.35 0-.06.01-.1.02-.19l.02-.16.05-.31.07-.34c.11-.45.25-.9.48-1.34.23-.43.51-.84.84-1.19.65-.7 1.39-1.23 2.11-1.7.37-.24.73-.47 1.1-.69l1.08-.63c.68-.41 1.34-.87 1.98-1.37 1.27-1 2.49-2.13 3.48-3.46.49-.66.93-1.37 1.23-2.13.14-.37.25-.77.24-1.12-.02-.37-.15-.48-.44-.45-.05.01-.09.03-.12.07-.04.04-.07.09-.09.16-.06.14-.07.33-.06.52.01.38.11.78.23 1.17.25.78.65 1.51 1.1 2.2.92 1.37 2.09 2.55 3.4 3.44.65.45 1.34.83 2.06 1.12.09.04.18.07.27.11l.31.12c.2.08.39.15.6.24.21.09.42.18.62.28.2.1.4.2.6.31.79.44 1.58 1 2.19 1.77.3.38.54.82.72 1.26.18.44.29.88.39 1.32.05.22.09.43.12.64l.03.16c.01.06 0 .06.01.09v.08c.02.05.02.1.03.16v.18c.05.48.02.93-.06 1.39-.17.9-.56 1.77-1.2 2.43-.08.09-.16.16-.25.24l-.06.06s-.05.04-.08.06l-.12.09c-.07.06-.19.13-.29.19-.1.07-.2.11-.3.16-.41.19-.85.3-1.29.34-.87.08-1.8-.14-2.46-.72-.08-.08-.16-.15-.23-.23-.07-.09-.13-.16-.21-.26-.11-.16-.23-.39-.25-.62-.03-.23.06-.51.28-.66.22-.14.52-.12.71.03.71.65.67 1.67.28 2.41-.19.38-.46.71-.78.99s-.68.5-1.08.64l-.31.08c-.11.01-.21.03-.32.04h-.3c-.1.01-.21 0-.31 0-.42-.03-.83-.12-1.21-.28-.77-.33-1.4-.97-1.73-1.74-.16-.38-.28-.78-.32-1.19-.02-.1-.02-.2-.03-.31 0-.11-.02-.2-.01-.31 0-.2 0-.39.02-.59.03-.2.05-.42.1-.62.06-.2.09-.4.18-.59l.12-.29.15-.27c.09-.19.23-.35.35-.51.54-.64 1.28-1.07 2.03-1.35.76-.28 1.55-.41 2.33-.48s1.56-.07 2.32-.03c1.53.08 3.03.32 4.48.62.73.15 1.44.32 2.16.51.7.19 1.39.37 2.08.57.69.2 1.37.38 2.04.57.34.09.67.16 1 .25l.5.12.12.03h.06l.06.03.25.05c.17.04.34.07.51.11.17.03.33.06.49.1.33.07.66.12.98.18.33.06.65.09.98.14.32.04.65.06.97.1.32.01.64.04.95.04h.7l.23-.02c.15 0 .31-.02.46-.03h.11s.02-.01.03-.01h.06l.24-.04.24-.04c.08-.01.17-.02.23-.04.14-.03.27-.07.4-.1s.27-.08.41-.13c.13-.05.27-.09.4-.15.26-.12.52-.22.76-.38.25-.13.47-.3.7-.46.11-.09.21-.18.32-.27.05-.05.11-.09.16-.14l.14-.15c.39-.38.72-.83.99-1.29.28-.46.47-.97.62-1.47.29-1.02.31-2.08.09-3.04-.11-.48-.31-.93-.54-1.34-.13-.2-.25-.4-.41-.57-.08-.09-.14-.19-.23-.26-.08-.08-.17-.16-.25-.24-1.4-1.24-3.43-1.48-5.06-1.27-.4.07-.79.19-1.14.35-.35.17-.66.39-.92.65s-.48.56-.64.87c-.16.32-.27.65-.33.99-.06.34-.08.67-.04.99.04.32.12.63.23.91.12.28.27.53.46.74.19.21.4.38.64.5.47.26.99.3 1.46.29.47-.03.9-.12 1.25-.27.35-.15.62-.38.79-.62.18-.24.24-.49.29-.68.01-.1.02-.19.03-.27v-.35s0 .05.02.16c0 .05.02.12.02.2v.28c-.03.21-.07.48-.24.75-.16.27-.43.54-.8.75-.37.2-.82.34-1.33.4-.27.02-.52.04-.81 0-.14 0-.29-.05-.43-.07-.07-.02-.14-.05-.22-.07l-.11-.04-.11-.05c-.29-.12-.57-.31-.82-.55-.25-.24-.46-.52-.62-.85-.16-.33-.27-.69-.34-1.06-.06-.38-.06-.78-.01-1.18.05-.4.16-.81.34-1.21.18-.39.43-.77.74-1.1.31-.33.68-.63 1.1-.85.42-.22.88-.38 1.36-.49.12-.02.25-.04.38-.07.12-.02.23-.02.35-.04l.17-.02h.94c.12 0 .25.02.38.03.13 0 .25.02.38.03l.38.06c1.02.18 2.09.57 2.98 1.31.11.1.22.19.33.29.11.09.2.21.3.32.21.21.37.46.54.7.31.51.58 1.06.74 1.65.33 1.18.33 2.47.01 3.71-.16.62-.39 1.23-.72 1.8-.32.57-.71 1.12-1.19 1.6l-.18.18c-.06.06-.13.11-.19.17-.13.11-.26.23-.39.33-.28.2-.55.41-.86.57-.29.18-.61.32-.93.46-.16.07-.33.12-.49.18-.17.06-.33.12-.51.15l-.53.12c-.18.04-.32.05-.49.08l-.24.03h-.06s0 .01-.09.02h-.13c-.17.02-.34.03-.52.04h-.26l-.26.01h-.52c-.35 0-.69-.04-1.03-.06-1.37-.13-2.75-.4-4.1-.71l-.25-.06-.06-.02-.07-.02-.13-.03c-.17-.05-.34-.09-.51-.14-.34-.1-.69-.18-1.03-.29-.68-.21-1.36-.42-2.04-.64-.68-.22-1.36-.43-2.05-.65-.68-.21-1.37-.41-2.08-.59-1.4-.36-2.85-.65-4.32-.79-.74-.07-1.48-.11-2.22-.08-.74.03-1.48.12-2.18.34-.7.22-1.36.58-1.85 1.12-.48.54-.77 1.26-.87 1.99-.02.19-.03.39-.04.59v.28c0 .1 0 .19.02.28.03.38.13.75.27 1.1.28.7.84 1.29 1.53 1.61.35.16.73.25 1.11.29.1 0 .19.02.29.01h.3c.09-.02.19-.03.28-.04l.28-.08a3.17 3.17 0 001.73-1.49c.18-.34.28-.73.25-1.11 0-.1-.03-.18-.04-.28 0-.09-.06-.19-.09-.28a.818.818 0 00-.31-.43c-.14-.1-.32-.1-.44-.02-.13.09-.18.26-.16.43.03.18.1.32.23.5l.19.21c.07.07.15.13.22.19.31.24.67.4 1.05.48.38.08.78.08 1.16.01.38-.07.75-.2 1.08-.39.08-.05.17-.1.23-.15.07-.06.14-.09.22-.17l.12-.11.04-.04.05-.05c.06-.07.13-.14.18-.22.46-.6.7-1.35.76-2.1.03-.38 0-.76-.06-1.12l-.02-.13-.03-.15-.03-.14-.04-.15c-.05-.2-.11-.39-.17-.58-.24-.77-.56-1.43-1.04-1.95-.48-.53-1.11-.94-1.81-1.3l-.54-.26c-.18-.08-.36-.15-.54-.23l-1.19-.47c-.85-.36-1.64-.84-2.35-1.41-1.41-1.15-2.5-2.62-3.3-4.19-.4-.79-.73-1.61-.96-2.48-.11-.43-.19-.88-.2-1.35 0-.24.02-.48.12-.74.05-.13.12-.26.24-.38.11-.12.28-.2.43-.23.28-.05.63-.01.88.23.12.12.2.26.25.39.05.14.07.27.08.4.02.26 0 .49-.04.72-.04.23-.09.45-.16.67-.13.43-.29.85-.47 1.25-.18.41-.37.8-.59 1.19-.42.78-.9 1.52-1.44 2.23-.53.71-1.13 1.37-1.79 1.98-.66.61-1.37 1.16-2.14 1.63-.4.24-.76.43-1.13.64l-1.08.61c-.71.41-1.39.83-1.95 1.31-.27.24-.52.5-.73.79-.2.29-.36.63-.5.99l-.1.27-.09.3-.05.15-.03.12c-.03.09-.05.18-.06.28-.07.37-.1.76-.08 1.14.02.38.09.77.21 1.14.12.36.31.72.53 1.02.05.07.13.15.19.23l.05.06.05.04.11.1c.14.13.3.24.48.34.34.2.72.33 1.11.4.78.13 1.64-.03 2.25-.54.07-.07.15-.12.22-.2l.2-.23c.11-.16.2-.34.22-.52.02-.18-.04-.36-.18-.45a.408.408 0 00-.47.03c-.03.03-.07.05-.1.09l-.08.1-.08.13s-.04.09-.05.13c-.08.18-.12.37-.13.56-.03.39.08.78.26 1.12.18.35.44.65.73.91.3.25.64.46 1 .57l.27.07c.1.01.21.03.29.03h.29c.1 0 .19-.01.29-.02.38-.04.76-.13 1.1-.29.69-.32 1.23-.9 1.5-1.6.13-.35.23-.72.25-1.08.01-.09.01-.19.01-.29v-.28c-.02-.19-.02-.38-.05-.56-.1-.74-.39-1.43-.86-1.95-.48-.52-1.13-.86-1.82-1.07-.69-.21-1.43-.3-2.16-.32-.73-.03-1.47.02-2.2.09-1.46.16-2.89.46-4.29.82-1.4.36-2.75.82-4.11 1.26-.67.22-1.37.44-2.05.65-.34.11-.68.19-1.01.29-.17.05-.34.09-.5.14l-.13.04-.14.04-.26.06c-1.36.34-2.74.61-4.13.75-.35.02-.69.05-1.05.06h-.81l-.25-.01c-.16 0-.33-.02-.49-.03h-.12c-.09-.01-.06-.01-.1-.02h-.07l-.27-.05c-.18-.03-.36-.04-.53-.08l-.53-.12c-.18-.04-.35-.1-.52-.16-.17-.06-.34-.11-.51-.18-.33-.15-.66-.29-.96-.48-.32-.17-.6-.39-.88-.59-.14-.11-.27-.23-.4-.34-.07-.06-.13-.11-.2-.18l-.18-.19a7.763 7.763 0 01-1.93-3.52c-.32-1.28-.28-2.6.07-3.8.17-.6.45-1.16.77-1.68.18-.25.35-.5.56-.71.1-.11.2-.23.31-.32.11-.1.22-.19.34-.29.92-.75 2.01-1.13 3.04-1.3l.39-.06c.13 0 .26-.02.39-.03.13 0 .26-.02.39-.03h.91l.19.03c.12.01.25.02.37.04s.24.05.36.07c.48.11.94.27 1.37.5a4.322 4.322 0 011.85 1.98c.18.4.29.81.33 1.21.05.4.04.8-.02 1.18-.06.38-.18.74-.34 1.06-.16.33-.37.62-.62.85-.25.24-.52.43-.82.55l-.11.05-.11.04c-.07.02-.15.05-.22.07-.08.02-.15.03-.23.04l-.11.02h-.1c-.07.01-.13.02-.2.02h-.21c-.13 0-.27-.02-.39-.02-.51-.06-.96-.2-1.33-.4-.37-.2-.65-.47-.81-.75-.17-.28-.22-.55-.25-.76v-.28c0-.08.02-.14.02-.2.01-.1.02-.16.02-.16 0-.02.02-.04.04-.03.02 0 .04.02.03.04z" fill="url(#a)"/></svg>