<svg xmlns="http://www.w3.org/2000/svg" viewBox="0 0 141.94 139.81"><defs><filter id="a" filterUnits="userSpaceOnUse"><feOffset dx="4.35" dy="4.35"/><feGaussianBlur result="blur" stdDeviation="2.9"/><feFlood flood-color="#000" flood-opacity=".27"/><feComposite in2="blur" operator="in"/><feComposite in="SourceGraphic"/></filter></defs><g filter="url(#a)"><path fill="#fcee21" d="M141.94 69.91l-15.33 9.82 11.07 14.46-17.78 3.96 5.44 17.38-18.06-2.35-.81 18.2L90.3 123l-7.01 16.81-12.32-13.42-12.32 13.42-7-16.81-16.17 8.38-.82-18.2-18.06 2.35 5.44-17.38-17.78-3.96 11.07-14.46L0 69.91l15.33-9.82L4.26 45.63l17.78-3.97-5.43-17.38 18.05 2.35.82-18.19 16.17 8.37 7-16.81 12.32 13.42L83.29 0l7.01 16.81 16.17-8.37.81 18.19 18.06-2.35-5.43 17.38 17.77 3.97-11.07 14.46 15.33 9.82z"/><path d="M34 72.73c.17.84-1.62 2-2.18 2.38-.33.2-.34.31-.21 1.21.06.57.48 2.64.51 2.77.03.15.09.46.32.41.08-.02 2-1.31 2.38-1.54 2.34-1.46 3.48-1.77 4.14-1.9 1.87-.38 4.23.66 4.72 3.07.68 3.38-2.56 5.63-4.66 6.05-1.46.29-2.78-.21-3.05-1.54-.24-1.2.64-2.23.87-2.28.08-.02.14.05.15.1.02.08-.03.14-.06.23-.06.12-.17.35-.09.74.25 1.23 1.65.94 1.91.89 1.69-.34 3.61-1.9 3.2-3.95-.37-1.82-1.92-2.54-3.02-2.32-.72.14-2.23.8-4.91 2.99-1.28 1.06-1.42 1.16-1.33 1.6.06.28.37 1.42.42 1.67.24 1.18.19 2.94-.73 3.13-.69.14-1.08-.34-1.37-.71-1.14-1.42-1.27-1.39-1.6-1.33-.23.05-.47.2-.61.28-.14.11-.69.67-.87.71-.28.06-1.74-.45-1.91-1.29-.09-.46.08-1.05.54-1.15.15-.03.92-.05 1.07-.08.69-.14 1.13-.36 2.48-1.41 1.18-.9 1.31-1.01 1.17-1.73-.12-.59-.58-2.76-.7-3.19-.04-.18-.19-.55-.47-.49-.31.06-.99.39-1.13.47-1.22.7-1.33.78-1.72.85-.87.17-2.2-1.39-2.23-1.57-.03-.13.07-.2.17-.22.08-.02.4.03.48 0 .48-.02.87-.04 1.2-.11.92-.19 2.97-1.24 3.09-1.42.09-.2-.25-2.56-.31-2.84-.16-.79-.39-1.28-1.26-1.87-.06-.04-.43-.29-.44-.34-.05-.23.35-.36.51-.39 1.71-.35 2.89.72 2.99 1.21.05.23-.25 1.25-.27 1.44 0 .18-.01 1.25.08 1.71.02.1.11.27.26.24.18-.04.84-.46.77-.82 0-.05-.19-.28-.2-.33 0-.03.04-.09.08-.12.35-.12 1.65-.01 1.81.78zM30.15 83.7c.08.38.93 1.06 1.32.99.36-.07.57-.86.32-2.11-.02-.1-.07-.36-.16-.39-.08.02-1.55 1.17-1.48 1.52zm15.2-11.35c.11.54-.06 1.29-.6 1.4-.15.03-.75.1-.88.12-.12.05-.63.31-.73.33-.05.01-.13 0-.15-.1-.01-.05.04-.19.04-.22.02-.17.05-.3 0-.48-.21-1.02-1.56-1.12-2.43-.95-.41.08-.62.23-.95.46-.09.07-.16.11-.24.13-.08.02-.11 0-.12-.08-.04-.18.75-1.83 2.44-2.17 1.97-.4 3.38.38 3.62 1.56zm4.06-3.19c1.76-.36 4.98-1.56 6.78-2.27 1.28-.5 1.43-.55 1.3-1.22-.25-1.25-.72-2.78-1.06-3.4-.05-.12-.55-.5-.58-.63-.04-.18.35-.26.5-.29 1.13-.23 2.22.03 2.38.85.03.13.03.69.06.81.12.59.94.82 2.58 1.16.69.13 1.41.25 2.35.06.26-.05 1.3-.39 1.51-.44.33-.07 1.48-.19 1.66.7.13.67-.3.99-1.2 1.17-.54.11-2.96.36-3.45.46-.61.12-2.27.51-2.71.81-.33.23-.31.59.15 2.84.15.72.21.89.67 1.6.65.99 1.13 1.79 1.44 3.3 1 4.96-2.22 8.91-3.01 9.07-.05.01-.13 0-.15-.08-.01-.05.79-1.49.92-1.78.46-1.13.9-2.95.67-4.05-.02-.08-.07-.36-.33-.31-.08.01-.45.14-.53.16-1.38.28-2.87-.78-3.29-2.82-.07-.33-.63-3.15 1.77-4.03.7-.25.67-.4.4-1.7-.28-1.38-.31-1.54-.82-1.43-.26.05-2.77 1.06-4.32 1.94-.41.22-2.1 1.49-2.53 1.58-.56.11-2.9-.53-3.11-1.58-.02-.1 0-.24.08-.28.26-.03 1.52-.12 1.88-.19zm8.45 2.71c-.64.13-1.25 1.34-.98 2.65.29 1.43 1.41 1.85 2.08 1.71 1-.2.71-1.74.63-2.15-.19-.92-.58-1.53-.69-1.72-.11-.16-.52-.59-1.03-.48zm1.12-6.59c.08.41.2.47.56.39.1-.02 1.75-.41 1.68-.79-.04-.21-2-1.06-2.22-.96-.17.09-.15.7-.02 1.36zm13.97-.87c1.76-.36 4.98-1.56 6.78-2.27 1.28-.5 1.43-.55 1.3-1.22-.25-1.25-.72-2.78-1.06-3.41-.05-.12-.55-.5-.58-.63-.04-.18.35-.26.5-.29 1.13-.23 2.22.03 2.38.85.03.13.03.69.06.81.12.59.94.82 2.58 1.16.69.13 1.41.25 2.35.06.26-.05 1.3-.4 1.51-.44.33-.07 1.48-.19 1.66.7.13.67-.3.99-1.2 1.17-.54.11-2.96.36-3.45.46-.61.12-2.27.51-2.71.81-.33.23-.31.59.15 2.84.15.72.21.89.67 1.6.65.99 1.13 1.79 1.44 3.3 1 4.96-2.22 8.91-3.01 9.07-.05 0-.13 0-.15-.08-.01-.05.79-1.49.92-1.78.46-1.13.9-2.95.67-4.05-.02-.08-.07-.36-.33-.31-.08.02-.45.14-.53.16-1.38.28-2.87-.78-3.29-2.82-.07-.33-.63-3.15 1.77-4.03.7-.25.67-.4.4-1.7-.28-1.38-.31-1.54-.82-1.43-.26.05-2.77 1.07-4.32 1.94-.41.22-2.09 1.49-2.53 1.58-.56.11-2.9-.53-3.11-1.58-.02-.1 0-.24.08-.28.26-.03 1.52-.12 1.88-.19zm8.45 2.71c-.64.13-1.25 1.34-.98 2.65.29 1.43 1.41 1.85 2.08 1.71 1-.2.71-1.74.63-2.15-.19-.92-.58-1.53-.69-1.72-.11-.16-.52-.59-1.03-.48zm1.12-6.59c.08.41.2.47.56.39.1-.02 1.75-.41 1.68-.79-.04-.21-2-1.06-2.22-.96-.17.09-.15.7-.02 1.36zm24.22 11.84c-.44.09-.49.1-.51-.03-.02-.08.05-.14.67-.48 3.15-1.78 7.39-4.95 6.45-9.58-.81-3.99-4.86-4.45-6.02-4.21-.38.08-.4.24-.75 1.93-.39 1.89-.69 2.67-1.21 4.05-.07.2-.08.28-.06.38.06.31.29.37.48.41.96.29 1.29.43 1.41 1.05.13.67-.37.93-.78 1.01-.59.12-.9.05-1.52-.14-.39-.11-.42-.13-.58-.1-.25.05-.3.11-.66.69-1.63 2.59-3.19 3.57-3.91 3.72-1.66.34-2.47-2.22-2.68-3.24-.54-2.66.66-5.03 1.52-6.32.19-.25.19-.49.15-.72-.05-.23-1.69-3.09-1.89-3.42-.12-.19-.76-1.02-.78-1.09 0-.03-.02-.08.04-.09.82-.17 2.15.5 2.35.96.64 1.58 1.04 2.24 1.18 2.4.11.14.31.23.52.19.21-.04.96-.67 1.12-.78 1.33-.93 2.58-1.35 3.8-1.73.23-.05.48-.15.57-.46.12-.34.08-1.45-.02-1.96-.03-.13-.2-1-.96-2.01a.488.488 0 01-.08-.12c-.02-.08.19-.12.24-.13 1.15-.23 2.72.44 2.85 1.05.02.1-.45 2.38-.36 2.81.08.41.37.4.58.39 3.71-.11 6.75 1.94 7.43 5.31 1.1 5.47-4.05 9.36-8.6 10.28zm-4.38-6.92c-.91-.69-1.86-1.81-2.33-2.59-.2-.33-.35-.57-.58-.52-.33.07-1.72 2.18-1.19 4.77.28 1.38.98 2.2 1.56 2.08.95-.19 2.93-2.77 2.82-3.31-.05-.23-.11-.3-.27-.42zm2.62-7.05c-1.71.35-2.97 1.13-3.7 1.73-.38.34-.6.57-.53.93.09.43 2.11 2.95 2.8 2.81.25-.05.35-.12.71-1.1.95-2.56 1.16-4.01 1.13-4.14-.06-.31-.32-.26-.42-.24z"/></g></svg>