<svg xmlns="http://www.w3.org/2000/svg" viewBox="0 0 332.32 121.51"><defs><linearGradient id="b" x1="-32.73" y1="2641.1" x2="-31.48" y2="2641.1" gradientTransform="matrix(99.43 0 0 -99.43 3347.63 262625.22)" gradientUnits="userSpaceOnUse"><stop offset="0" stop-color="#ad327e"/><stop offset=".21" stop-color="#864f96"/><stop offset=".42" stop-color="#5c6bb0"/><stop offset=".6" stop-color="#4084b7"/><stop offset=".82" stop-color="#2b9caa"/><stop offset="1" stop-color="#1aafa1"/></linearGradient><clipPath id="a"><path d="M116.41 6.65c-8.5 5.18-23.74 20.56-23.74 20.56-.94 3.11 4.42 3.49 6.69 2.56 2.27-.93 10.14-10.49 16.25-15.68 6.11-5.18 14.04-8.84 17.32-8.37 4.82.69 6.64 8.73 10.49 17.36 3.85 8.63 14.3 6.85 17.72 4.51 3.42-2.34 13.86-14.3 15.5-14.3s4.69 4.78 6.02 6.78c1.33 1.99 6.47 10.63 14.84 10.63s18.02-12.62 19.48-15.28c1.46-2.66 0-3.59-2.48-3.73-2.47-.13-3.84.77-4.39 1.33-.54.56-8.41 11.78-11.69 11.43-2.25-.24-7.21-6.25-8.81-8.91-1.59-2.66-5.11-8.77-9.76-8.77s-9.82 2.66-12.88 6.48c-3.06 3.81-9.42 11.26-11.68 10-.88-.49-3.13-2.92-5.63-10C146.36 3.9 142.01 0 135.18 0c-5.05 0-10.28 1.47-18.79 6.65" fill="none"/></clipPath></defs><path d="M3.67 117.85C1.22 115.41 0 112.21 0 108.28V77.34c0-3.93 1.22-7.12 3.67-9.57s5.63-3.67 9.57-3.67 7.12 1.22 9.57 3.67c2.44 2.45 3.67 5.64 3.67 9.57v6.54h-8.29v-6.54c0-1.59-.45-2.87-1.36-3.83-.9-.96-2.07-1.44-3.51-1.44s-2.61.48-3.51 1.44c-.9.96-1.36 2.23-1.36 3.83v30.94c0 1.6.45 2.87 1.36 3.83.9.96 2.07 1.44 3.51 1.44s2.6-.48 3.51-1.44c.9-.96 1.36-2.23 1.36-3.83v-7.98h8.29v7.98c0 3.94-1.22 7.13-3.67 9.57s-5.64 3.67-9.57 3.67-7.13-1.22-9.57-3.67zm33.57-.04c-2.5-2.47-3.75-5.73-3.75-9.77V77.57c0-4.04 1.25-7.3 3.75-9.77 2.5-2.47 5.77-3.71 9.81-3.71s7.31 1.24 9.81 3.71c2.5 2.47 3.75 5.73 3.75 9.77v30.47c0 4.04-1.25 7.3-3.75 9.77-2.5 2.47-5.77 3.71-9.81 3.71s-7.31-1.24-9.81-3.71zm13.56-5.7c.9-.96 1.36-2.31 1.36-4.07V77.57c0-1.75-.45-3.11-1.36-4.07-.9-.96-2.15-1.44-3.75-1.44s-2.84.48-3.75 1.44c-.9.96-1.36 2.31-1.36 4.07v30.47c0 1.75.45 3.11 1.36 4.07.9.96 2.15 1.44 3.75 1.44s2.84-.48 3.75-1.44zm56.79-47.22v55.83h-8.45V82.44l-7.9 38.28h-5.9l-7.9-38.28v38.28h-8.29V64.89h11.96l7.34 35.65 7.02-35.65h12.12zm9.25 0h13.24c4.04 0 7.26 1.21 9.65 3.63 2.39 2.42 3.59 5.65 3.59 9.69v6.54c0 4.04-1.2 7.27-3.59 9.69-2.39 2.42-5.61 3.63-9.65 3.63h-4.79v22.65h-8.45V64.89zm12.84 25.2c1.65 0 2.92-.45 3.83-1.36s1.36-2.18 1.36-3.83v-6.86c0-1.65-.45-2.92-1.36-3.83-.9-.9-2.18-1.36-3.83-1.36h-4.39v17.23h4.39zm37.4 18.27h-9.09l-1.83 12.36h-8.45l9.25-55.83h11.32l9.25 55.83h-8.61l-1.83-12.36zm-1.12-8.13l-3.43-23.37-3.43 23.37h6.86zm37.09 20.49l-6.14-23.05h-4.39v23.05h-8.45V64.89h13.24c4.04 0 7.26 1.21 9.65 3.63 2.39 2.42 3.59 5.65 3.59 9.69v6.14c0 2.55-.51 4.81-1.52 6.78-1.01 1.97-2.45 3.51-4.31 4.63l7.1 24.96h-8.77zM192.52 89.7h4.39c1.65 0 2.92-.45 3.83-1.36.9-.9 1.36-2.18 1.36-3.83v-6.46c0-1.65-.45-2.92-1.36-3.83-.9-.9-2.18-1.36-3.83-1.36h-4.39v16.83zm26.24-24.81h8.45v55.83h-8.45V64.89zm22.33 54.87c-2.07-1.17-3.68-2.79-4.82-4.86-1.14-2.07-1.71-4.44-1.71-7.1v-1.99l8.13-.88V107c0 2.02.48 3.62 1.44 4.79s2.29 1.75 3.99 1.75 2.96-.48 3.95-1.44c.98-.96 1.47-2.26 1.47-3.91 0-1.81-.52-3.54-1.55-5.18-1.04-1.65-3.1-3.93-6.18-6.86-4.15-3.93-6.98-7.2-8.49-9.81-1.51-2.6-2.27-5.45-2.27-8.53 0-4.2 1.14-7.54 3.43-10.01s5.42-3.71 9.41-3.71 7.12 1.25 9.41 3.75 3.43 5.85 3.43 10.05v1.44l-8.13.88v-1.59c0-2.13-.4-3.75-1.2-4.87-.8-1.12-1.94-1.67-3.43-1.67s-2.63.45-3.43 1.36c-.8.9-1.2 2.23-1.2 3.99s.53 3.44 1.59 5.06c1.06 1.62 3.11 3.95 6.14 6.98 4.15 4.15 6.98 7.48 8.49 10.01 1.52 2.53 2.27 5.3 2.27 8.33 0 2.66-.57 5.02-1.71 7.1-1.14 2.07-2.75 3.7-4.83 4.86s-4.44 1.75-7.1 1.75-5.02-.59-7.1-1.75zm30.94-1.95c-2.5-2.47-3.75-5.73-3.75-9.77V77.57c0-4.04 1.25-7.3 3.75-9.77 2.5-2.47 5.77-3.71 9.81-3.71s7.31 1.24 9.81 3.71c2.5 2.47 3.75 5.73 3.75 9.77v30.47c0 4.04-1.25 7.3-3.75 9.77-2.5 2.47-5.77 3.71-9.81 3.71s-7.31-1.24-9.81-3.71zm13.56-5.7c.9-.96 1.36-2.31 1.36-4.07V77.57c0-1.75-.45-3.11-1.36-4.07s-2.15-1.44-3.75-1.44-2.84.48-3.75 1.44c-.91.96-1.36 2.31-1.36 4.07v30.47c0 1.75.45 3.11 1.36 4.07.9.96 2.15 1.44 3.75 1.44s2.84-.48 3.75-1.44zm18.34-47.22h9.33l10.77 37.48V64.89h8.29v55.83h-8.93l-11.17-35.73v35.73h-8.29V64.89z"/><g clip-path="url(#a)"><path fill="url(#b)" d="M91.73 0h126.71v31.71H91.73z"/></g></svg>