<svg xmlns="http://www.w3.org/2000/svg" viewBox="0 0 335 162.81"><defs><linearGradient id="c" x1="126.28" y1="2292.74" x2="127.25" y2="2292.74" gradientTransform="matrix(99.43 0 0 -99.43 -12436.19 228001.31)" gradientUnits="userSpaceOnUse"><stop offset="0" stop-color="#ad327e"/><stop offset=".21" stop-color="#864f96"/><stop offset=".42" stop-color="#5c6bb0"/><stop offset=".6" stop-color="#4084b7"/><stop offset=".82" stop-color="#2b9caa"/><stop offset="1" stop-color="#1aafa1"/></linearGradient><clipPath id="b"><path d="M137.97 22.66c-6.6 4.02-18.42 15.95-18.42 15.95-.73 2.42 3.43 2.71 5.19 1.99 1.76-.72 7.87-8.14 12.61-12.16 4.74-4.02 10.89-6.86 13.44-6.49 3.74.54 5.15 6.77 8.14 13.47 2.99 6.7 11.09 5.32 13.75 3.5 2.65-1.82 10.75-11.1 12.02-11.1s3.64 3.71 4.67 5.26c1.03 1.55 5.02 8.25 11.51 8.25s13.98-9.79 15.12-11.85c1.13-2.06 0-2.79-1.92-2.89-1.92-.1-2.98.59-3.4 1.03-.42.44-6.53 9.14-9.07 8.87-1.74-.18-5.6-4.85-6.83-6.91-1.24-2.06-3.96-6.8-7.57-6.8s-7.62 2.07-9.99 5.03c-2.37 2.96-7.31 8.74-9.06 7.76-.69-.38-2.43-2.26-4.37-7.76-2.56-7.25-5.93-10.28-11.23-10.28-3.92 0-7.98 1.14-14.58 5.16" fill="none"/></clipPath><filter id="a" filterUnits="userSpaceOnUse"><feOffset/><feGaussianBlur result="blur" stdDeviation="10.06"/><feFlood flood-color="#f15a24" flood-opacity=".57"/><feComposite in2="blur" operator="in"/><feComposite in="SourceGraphic"/></filter></defs><path fill="#fff" filter="url(#a)" stroke="#f15a24" stroke-miterlimit="10" stroke-width="5.98" d="M0 0h335v138.08l-167.5 24.73L0 138.08V0z"/><path d="M131.05 79.21c0-7.92-3.6-10.66-8.48-10.66h-10.13v38.94h10.13c2.25 0 8.48-.07 8.48-11.52 0-4.44-1.54-7.16-3.41-8.84 1.92-1.69 3.41-4.24 3.41-7.92m-5.37 16.92c0 3.09-1.26 5.95-3.11 5.95h-4.02v-12.2h2.31c4.01 0 4.82 3.17 4.82 6.26m-7.13-11.67V73.98h4.02s2.7.38 2.7 4.74c0 0 .18 5.75-4.41 5.75h-2.31zm140.07-15.92l-8.09 15.84V68.55h-6.11v38.93h6.11V96.36l1.86-3.64 6.23 14.76h6.11l-8.94-21.41 8.94-17.52h-6.11zM232.08 80.1c0-8.58-3.6-11.55-8.48-11.55h-10.13v38.94h6.11V91.66c6.88 0 6.85 5.68 6.85 5.68v10.15h5.65V95.98s-.12-4.52-3.14-7.54c1.79-1.83 3.14-4.52 3.14-8.33m-12.5 5.69V74.43h4.02s2.7.41 2.7 5.14c0 0 .18 6.24-4.41 6.24h-2.31zm-55.77-17.25h-2.69l-4.8 25.5-4.79-25.5h-8.26v38.93h5.57V80.72l4.94 26.76h5.08l4.95-26.76v26.76h5.57V68.55h-5.57zm122.45 17.51c-3.48-3.48-5.12-5.1-5.12-7.74 0-2.99 1.51-4.09 3.23-4.09s3.24 1.22 3.24 4.92h5.37s.57-10.6-8.39-10.6-9.34 7.28-9.34 10.01c0 5.06 3.72 8.6 6.23 11.11 2.51 2.51 5.62 5.37 5.62 8.06s-.98 4.72-3.27 4.72c-2.13 0-3.27-.99-3.27-6.67h-5.62s-.1 3.59 0 4.49c.1.89.47 7.75 8.88 7.75s9.15-8.49 9.15-9.74.06-5.43-6.72-12.22M64.38 96.32l-3.57-27.77h-5.88l-3.57 27.77-2.57-27.77h-6.51l4.99 38.93h7.66l2.94-19.46 2.94 19.46h7.67l4.99-38.93h-6.51l-2.58 27.77zm128.19-27.77H187l-6.17 38.94h5.57l1.14-7.22h7.69l1.14 7.22h5.57l-6.17-38.94h-3.2zm-4.22 26.65l3.04-19.18 3.04 19.18h-6.08zM83.82 68.55v38.93h16.41v-5.41h-10.3V90.41h8.59V85h-8.59V73.96h10.3v-5.41H83.82z"/><g clip-path="url(#b)"><path fill="url(#c)" d="M118.82 17.5h98.31v24.61h-98.31z"/></g></svg>