<svg xmlns="http://www.w3.org/2000/svg" viewBox="0 0 276.31 157.89"><defs><linearGradient id="c" x1="60.34" y1="2305.52" x2="61.14" y2="2305.52" gradientTransform="matrix(99.43 0 0 -99.43 -5900.69 229278.07)" gradientUnits="userSpaceOnUse"><stop offset="0" stop-color="#ad327e"/><stop offset=".21" stop-color="#864f96"/><stop offset=".42" stop-color="#5c6bb0"/><stop offset=".6" stop-color="#4084b7"/><stop offset=".82" stop-color="#2b9caa"/><stop offset="1" stop-color="#1aafa1"/></linearGradient><clipPath id="b"><path d="M113.79 30.49c-5.44 3.32-15.19 13.16-15.19 13.16-.6 1.99 2.83 2.23 4.28 1.64 1.45-.59 6.49-6.72 10.4-10.03 3.91-3.32 8.98-5.66 11.09-5.36 3.09.44 4.25 5.59 6.72 11.11 2.47 5.53 9.15 4.39 11.34 2.89 2.19-1.5 8.87-9.15 9.92-9.15s3 3.06 3.85 4.34c.85 1.27 4.14 6.8 9.5 6.8s11.53-8.08 12.47-9.78c.93-1.7 0-2.3-1.59-2.38-1.58-.08-2.46.49-2.81.85-.35.36-5.38 7.54-7.48 7.32-1.44-.15-4.62-4-5.64-5.7-1.02-1.7-3.27-5.61-6.25-5.61s-6.29 1.71-8.24 4.15c-1.96 2.44-6.03 7.21-7.48 6.4-.57-.32-2-1.87-3.6-6.4-2.11-5.98-4.89-8.48-9.27-8.48-3.23 0-6.58.94-12.02 4.25" fill="none"/></clipPath><filter id="a" filterUnits="userSpaceOnUse"><feOffset/><feGaussianBlur result="blur" stdDeviation="9"/><feFlood flood-color="#f15a24" flood-opacity=".57"/><feComposite in2="blur" operator="in"/><feComposite in="SourceGraphic"/></filter></defs><path fill="#fff" filter="url(#a)" stroke="#f15a24" stroke-miterlimit="10" stroke-width="7" d="M0 0h276.31v133.91l-138.16 23.98L0 133.91V0z"/><path d="M108.09 77.13c0-6.53-2.97-8.79-6.99-8.79h-8.36v32.11h8.36c1.85 0 6.99-.06 6.99-9.5 0-3.66-1.27-5.91-2.82-7.29 1.59-1.39 2.82-3.5 2.82-6.53m-4.43 13.95c0 2.55-1.04 4.9-2.57 4.9h-3.32V85.91h1.91c3.3 0 3.98 2.61 3.98 5.16m-5.88-9.63v-8.65h3.32s2.23.31 2.23 3.91c0 0 .15 4.75-3.63 4.75h-1.91zm115.53-13.1l-6.67 13.07V68.34h-5.04v32.11h5.04v-9.17l1.53-3.01 5.14 12.18h5.04l-7.37-17.66 7.37-14.45h-5.04zm-21.89 9.53c0-7.08-2.97-9.53-6.99-9.53h-8.36v32.11h5.04V87.39c5.67 0 5.65 4.69 5.65 4.69v8.37h4.66v-9.5s-.1-3.73-2.59-6.22c1.48-1.51 2.59-3.73 2.59-6.87m-10.31 4.69v-9.38h3.32s2.23.34 2.23 4.24c0 0 .15 5.14-3.63 5.14h-1.91zm-46-14.21h-2.22l-3.95 21.03-3.95-21.03h-6.82v32.11h4.59V78.38l4.08 22.07h4.19l4.08-22.07v22.07h4.59V68.34h-4.59zm101 14.44c-2.87-2.87-4.22-4.2-4.22-6.39 0-2.46 1.24-3.37 2.66-3.37s2.67 1 2.67 4.06h4.43s.47-8.75-6.92-8.75-7.7 6.01-7.7 8.25c0 4.17 3.07 7.1 5.14 9.16 2.07 2.07 4.63 4.43 4.63 6.65s-.81 3.89-2.7 3.89c-1.75 0-2.69-.81-2.69-5.5h-4.63s-.08 2.96 0 3.7c.08.73.39 6.39 7.33 6.39s7.55-7 7.55-8.03.05-4.48-5.54-10.08M53.1 91.25l-2.94-22.91h-4.85l-2.95 22.91-2.12-22.91h-5.37l4.12 32.11h6.32l2.42-16.05 2.43 16.05h6.32l4.12-32.11h-5.37L53.1 91.25zm105.74-22.91h-4.59l-5.09 32.11h4.59l.94-5.96h6.34l.94 5.96h4.59l-5.09-32.11h-2.64zm-3.48 21.98l2.51-15.82 2.51 15.82h-5.01zM69.13 68.34v32.11h13.54v-4.46h-8.49v-9.62h7.08v-4.46h-7.08v-9.1h8.49v-4.47H69.13z"/><g clip-path="url(#b)"><path fill="url(#c)" d="M98 26.24h81.09v20.3H98z"/></g></svg>