<svg xmlns="http://www.w3.org/2000/svg" viewBox="0 0 177.88 64.22"><defs><linearGradient id="b" x1="-99.91" y1="1302.64" x2="-99.22" y2="1302.64" gradientTransform="matrix(99.43 0 0 -99.43 9989.42 129532.62)" gradientUnits="userSpaceOnUse"><stop offset="0" stop-color="#ad327e"/><stop offset=".21" stop-color="#864f96"/><stop offset=".42" stop-color="#5c6bb0"/><stop offset=".6" stop-color="#4084b7"/><stop offset=".82" stop-color="#2b9caa"/><stop offset="1" stop-color="#1aafa1"/></linearGradient><clipPath id="a"><path d="M67.89 3.66c-4.68 2.85-13.07 11.32-13.07 11.32-.52 1.71 2.43 1.92 3.68 1.41s5.58-5.78 8.95-8.63c3.36-2.85 7.73-4.87 9.54-4.61 2.66.38 3.66 4.81 5.78 9.56 2.12 4.75 7.87 3.77 9.75 2.48s7.63-7.87 8.53-7.87 2.58 2.63 3.31 3.73 3.56 5.85 8.17 5.85 9.92-6.95 10.73-8.41c.8-1.46 0-1.98-1.36-2.05-1.36-.07-2.12.42-2.41.73-.3.31-4.63 6.48-6.44 6.29-1.24-.13-3.97-3.44-4.85-4.9-.88-1.46-2.81-4.83-5.37-4.83S97.42 5.2 95.74 7.3c-1.68 2.1-5.19 6.2-6.43 5.51-.49-.27-1.72-1.61-3.1-5.51C84.39 2.16 82 .01 78.24.01c-2.78 0-5.66.81-10.34 3.66" fill="none"/></clipPath></defs><path d="M15.68 55.92l-2.53-19.7H8.98l-2.54 19.7-1.82-19.7H0l3.54 27.62h5.44l2.08-13.81 2.09 13.81h5.44l3.54-27.62h-4.62l-1.83 19.7zm90.95-19.7h-3.95L98.3 63.85h3.95l.81-5.12h5.45l.81 5.12h3.95l-4.38-27.63h-2.27zm-3 18.9l2.16-13.61 2.16 13.61h-4.31zm-74.16-18.9v27.62h11.65V60h-7.31v-8.27h6.1v-3.84h-6.1v-7.83h7.31v-3.84H29.47zm33.51 7.56c0-5.62-2.55-7.56-6.02-7.56h-7.19v27.63h7.19c1.59 0 6.02-.05 6.02-8.17 0-3.15-1.09-5.08-2.42-6.27 1.36-1.2 2.42-3.01 2.42-5.62m-3.81 12c0 2.19-.89 4.22-2.21 4.22h-2.85v-8.66h1.64c2.84 0 3.42 2.25 3.42 4.44m-5.06-8.28v-7.44h2.85s1.92.27 1.92 3.36c0 0 .13 4.08-3.13 4.08h-1.64zm99.39-11.29l-5.75 11.24V36.22h-4.33v27.62h4.33v-7.89l1.33-2.59 4.42 10.48h4.33l-6.34-15.2 6.34-12.42h-4.33zm-18.83 8.19c0-6.09-2.55-8.2-6.02-8.2h-7.19v27.63h4.34V52.61c4.88 0 4.86 4.03 4.86 4.03v7.2h4.01v-8.17s-.09-3.21-2.23-5.35c1.27-1.3 2.23-3.21 2.23-5.91m-8.87 4.03v-8.07h2.85s1.92.29 1.92 3.64c0 0 .13 4.42-3.13 4.42h-1.64zM86.23 36.22h-1.92l-3.4 18.09-3.39-18.09h-5.87v27.62h3.95V44.85l3.51 18.99h3.61l3.51-18.99v18.99h3.94V36.22h-3.94zm86.88 12.42c-2.47-2.47-3.63-3.62-3.63-5.49 0-2.12 1.07-2.9 2.29-2.9s2.3.86 2.3 3.49h3.81s.41-7.52-5.95-7.52-6.63 5.17-6.63 7.1c0 3.59 2.64 6.1 4.42 7.88 1.78 1.78 3.98 3.81 3.98 5.72s-.69 3.35-2.32 3.35c-1.51 0-2.32-.7-2.32-4.73h-3.98s-.07 2.55 0 3.18c.07.63.34 5.5 6.3 5.5s6.5-6.02 6.5-6.91.04-3.86-4.77-8.67" fill="#fff"/><g clip-path="url(#a)"><path fill="url(#b)" d="M54.31 0h69.75v17.46H54.31z"/></g></svg>