<svg xmlns="http://www.w3.org/2000/svg" viewBox="0 0 228.92 60.81"><defs><linearGradient id="b" x1="19.48" y1="7589.68" x2="20.14" y2="7589.68" gradientTransform="matrix(99.43 0 0 -99.43 -1855.52 754664.43)" gradientUnits="userSpaceOnUse"><stop offset="0" stop-color="#ad327e"/><stop offset=".21" stop-color="#864f96"/><stop offset=".42" stop-color="#5c6bb0"/><stop offset=".6" stop-color="#4084b7"/><stop offset=".82" stop-color="#2b9caa"/><stop offset="1" stop-color="#1aafa1"/></linearGradient><clipPath id="a"><path d="M93.25 3.55c-4.54 2.76-12.67 10.97-12.67 10.97-.5 1.66 2.36 1.86 3.57 1.37 1.21-.5 5.41-5.6 8.67-8.37 3.26-2.76 7.49-4.72 9.25-4.47 2.57.37 3.54 4.66 5.6 9.27 2.06 4.61 7.63 3.66 9.45 2.41 1.82-1.25 7.4-7.63 8.27-7.63s2.5 2.55 3.21 3.62c.71 1.06 3.45 5.67 7.92 5.67s9.62-6.74 10.4-8.15c.78-1.42 0-1.92-1.32-1.99-1.32-.07-2.05.41-2.34.71-.29.3-4.49 6.29-6.24 6.1-1.2-.13-3.85-3.34-4.7-4.75-.85-1.42-2.73-4.68-5.21-4.68s-5.24 1.42-6.87 3.46c-1.63 2.03-5.03 6.01-6.23 5.34-.47-.26-1.67-1.56-3-5.34-1.76-4.99-4.08-7.07-7.73-7.07-2.69 0-5.49.78-10.03 3.55" fill="none"/></clipPath></defs><path d="M0 30.21h7.15c2.18 0 3.92.65 5.21 1.96s1.94 3.05 1.94 5.23v15.77c0 2.18-.65 3.93-1.94 5.24s-3.03 1.96-5.21 1.96H0V30.21zm6.94 25.85c.89 0 1.58-.24 2.07-.73.49-.49.73-1.18.73-2.07V37.32c0-.89-.24-1.58-.73-2.07-.49-.49-1.18-.73-2.07-.73H4.57v21.54h2.37zm20.94-2.36h-4.91l-.99 6.68h-4.57l5-30.16h6.12l5 30.16h-4.65l-.99-6.68zm-.6-4.4l-1.85-12.62-1.85 12.62h3.71zm9.77-19.09h4.57v30.16h-4.57V30.21zm9.57 0h4.57v25.85h8.14v4.31H46.62V30.21zm31.41 0l-6.12 17.54v12.62h-4.57V47.75l-6.12-17.54h4.87l3.53 11.5 3.62-11.5h4.78zm14.48 29.65a6.668 6.668 0 01-2.61-2.63c-.62-1.12-.93-2.4-.93-3.83v-1.08l4.4-.47v1.12c0 1.09.26 1.95.78 2.59.52.63 1.23.95 2.15.95s1.6-.26 2.13-.78c.53-.52.8-1.22.8-2.11 0-.98-.28-1.91-.84-2.8-.56-.89-1.67-2.13-3.34-3.71-2.24-2.13-3.77-3.89-4.59-5.3a8.992 8.992 0 01-1.23-4.61c0-2.27.62-4.07 1.85-5.41 1.23-1.34 2.93-2 5.08-2s3.85.68 5.08 2.02c1.23 1.35 1.85 3.16 1.85 5.43v.78l-4.4.47v-.86c0-1.15-.22-2.03-.65-2.63-.43-.6-1.05-.9-1.85-.9s-1.42.24-1.85.73c-.43.49-.65 1.21-.65 2.15s.29 1.86.86 2.74c.57.88 1.68 2.13 3.32 3.77 2.24 2.24 3.77 4.04 4.59 5.41.82 1.36 1.23 2.87 1.23 4.5 0 1.44-.31 2.71-.93 3.83-.62 1.12-1.49 2-2.61 2.63-1.12.63-2.4.95-3.83.95s-2.71-.32-3.83-.95zm16.67-1.04c-1.32-1.32-1.98-3.04-1.98-5.17V36.93c0-2.13.66-3.85 1.98-5.17 1.32-1.32 3.04-1.98 5.17-1.98s3.85.66 5.17 1.98c1.32 1.32 1.98 3.04 1.98 5.17v3.53h-4.48v-3.53c0-.86-.24-1.55-.73-2.07-.49-.52-1.12-.78-1.9-.78s-1.41.26-1.9.78-.73 1.21-.73 2.07v16.72c0 .86.24 1.55.73 2.07.49.52 1.12.78 1.9.78s1.41-.26 1.9-.78.73-1.21.73-2.07v-4.31h4.48v4.31c0 2.13-.66 3.85-1.98 5.17-1.32 1.32-3.04 1.98-5.17 1.98s-3.85-.66-5.17-1.98zm16.5 1.55V30.21h4.57v12.71h5.43V30.21h4.57v30.16h-4.57V47.23h-5.43v13.14h-4.57zm19.56-30.16h12.97v4.31h-8.4v8.4h6.68v4.31h-6.68v8.83h8.4v4.31h-12.97V30.21zm16.81 0h7.15c2.18 0 3.92.65 5.21 1.96s1.94 3.05 1.94 5.23v15.77c0 2.18-.65 3.93-1.94 5.24s-3.03 1.96-5.21 1.96h-7.15V30.21zm6.94 25.85c.89 0 1.58-.24 2.07-.73.49-.49.73-1.18.73-2.07V37.32c0-.89-.24-1.58-.73-2.07-.49-.49-1.18-.73-2.07-.73h-2.37v21.54h2.37zm13.74 2.78c-1.32-1.31-1.98-3.01-1.98-5.11V30.21h4.57v23.53c0 .86.24 1.54.71 2.03.47.49 1.08.73 1.83.73s1.36-.24 1.83-.73.71-1.16.71-2.03V30.21h4.48v23.53c0 2.1-.65 3.8-1.94 5.11-1.29 1.31-2.99 1.96-5.08 1.96s-3.81-.65-5.13-1.96zm16.98-28.63h4.57v25.85h8.14v4.31h-12.71V30.21zm16.24 0h12.97v4.31h-8.4v8.4h6.68v4.31h-6.68v8.83h8.4v4.31h-12.97V30.21z" fill="#fff"/><g clip-path="url(#a)"><path fill="url(#b)" d="M80.08 0h67.62v16.93H80.08z"/></g></svg>