<svg xmlns="http://www.w3.org/2000/svg" viewBox="0 0 260.8 71.15"><defs><linearGradient id="b" x1="36" y1="7589.68" x2="36.66" y2="7589.68" gradientTransform="matrix(99.43 0 0 -99.43 -3482 754664.43)" gradientUnits="userSpaceOnUse"><stop offset="0" stop-color="#ad327e"/><stop offset=".21" stop-color="#864f96"/><stop offset=".42" stop-color="#5c6bb0"/><stop offset=".6" stop-color="#4084b7"/><stop offset=".82" stop-color="#2b9caa"/><stop offset="1" stop-color="#1aafa1"/></linearGradient><clipPath id="a"><path d="M109.77 3.55C105.23 6.31 97.1 14.52 97.1 14.52c-.5 1.66 2.36 1.86 3.57 1.37 1.21-.5 5.41-5.6 8.67-8.37 3.26-2.76 7.49-4.72 9.25-4.47 2.57.37 3.54 4.66 5.6 9.27 2.06 4.61 7.63 3.66 9.45 2.41 1.82-1.25 7.4-7.63 8.27-7.63s2.5 2.55 3.21 3.62c.71 1.06 3.45 5.67 7.92 5.67s9.62-6.74 10.4-8.15c.78-1.42 0-1.92-1.32-1.99-1.32-.07-2.05.41-2.34.71-.29.3-4.49 6.29-6.24 6.1-1.2-.13-3.85-3.34-4.7-4.75-.85-1.42-2.73-4.68-5.21-4.68s-5.24 1.42-6.87 3.46c-1.63 2.03-5.03 6.01-6.23 5.34-.47-.26-1.67-1.56-3-5.34-1.76-4.99-4.08-7.07-7.73-7.07-2.69 0-5.49.78-10.03 3.55" fill="none"/></clipPath></defs><text transform="translate(0 60.37)" fill="#fff" font-family="Bebas-Regular,'Bebas Regular'" font-size="43.09"><tspan x="0" y="0">Daily schedule</tspan></text><g clip-path="url(#a)"><path fill="url(#b)" d="M96.6 0h67.62v16.93H96.6z"/></g></svg>