<svg id="_レイヤー_2" xmlns="http://www.w3.org/2000/svg" viewBox="0 0 169.27 57.02"><defs><style>.cls-1{fill:#2e3192}</style></defs><g opacity=".43" id="_レイヤー_1-2"><path class="cls-1" d="M1.58 44.93c.09-.2.27-.29.45-.32.18-.03.32.08.29.27 0 0 0 .06-.04.13 0 0 0 .06-.04.13 0 .06-.04.13-.09.2 0 .06-.04.13-.03.19-.11.95.51 1.36 1.21 1.44.71.15 1.56.02 2.11-.06 5.73-.84 10.86-2.77 16.22-6.54 1.13-.79 3.89-2.75 4.09-4.39.11-.95-.44-1.3-1.29-1.18-.55.08-1.44.33-2.34.59-3.11.89-6.17 1.65-9.4 2.12-4.21.62-13.29 1.88-12.66-4 .17-.96.52-1.94.94-2.94.47-1.06 1.07-2.02 1.56-2.96 4.1-7.26 9.96-13.6 16.83-18.15 2.15-1.44 4.89-3.14 7.15-3.47 2.32-.34 4.31.93 3.99 3.46-.69 5.95-9.59 13.6-13.92 17.16-.12.02-.17.09-.24.1-.12.02-.28-.21-.24-.4.04-.13.09-.26.19-.4 3.55-2.95 8.93-7.47 11.13-11.53.38-.8.89-1.56 1.27-2.36.43-.87.74-1.73.87-2.56.23-2.27-1.62-3-3.45-2.73-1.16.17-2.45.73-3.65 1.41-9.17 5.63-16.67 13.01-21.13 22.94-.32.79-.59 1.52-.66 2.28-.62 5.13 8.43 3.99 11.6 3.53 3.78-.55 7.67-1.62 11.5-2.68.24-.04.54-.14.78-.18 1.28-.19 2 .46 1.88 1.78-.24 1.78-1.78 3.12-3.13 4.13-4.92 3.77-10.84 6.75-16.99 7.65-.91.13-2.26.27-3.29.05-1.09-.21-1.79-.73-1.66-2 .03-.19.11-.51.21-.71zm29.21-9.2c.43-.5 1.26-1.62 2.17-2.62.96-1.07 1.83-1.95 2.32-2.02s.71.15.83.56c.09.17.06.43.11.73-.03.25-.04.57-.06.88-.07 1.25-.04 2.68 1.54 2.45.98-.14 1.77-1.07 2.35-1.78.16-.21.62-.9 1.07-1.59.26-.35.46-.69.61-.96.1-.14.15-.27.2-.34.05-.07.04-.13.09-.2.04-.13.16-.21.28-.23.24-.04.39.13.36.32 0 .06-.04.13-.09.2-.24.47-.6 1.02-.95 1.57-.79 1.42-2.43 3.41-4.07 3.65-1.16.17-2-.51-2.05-1.69-.09-.61 0-1.31.03-1.93 0-.06.03-.25.05-.5 0-.06-.03-.18-.04-.3 0 0 0-.06-.08-.11 0-.06-.08-.11-.2-.09-.12.02-.29.17-.45.32-.23.16-.38.37-.65.65-.42.5-.95 1.14-1.48 1.77s-1.06 1.28-1.48 1.77c-.21.28-.43.44-.54.58-.16.15-.28.23-.28.23-.12.02-.33-.14-.5-.42-.11-.3-.23-.71-.35-1.13-.2-.97-.23-2.02-.29-2.38-.1-.67.03-1.5.11-2.26.63-5.51 3.92-12.77 6.84-17.93.88-1.62 1.98-3.47 3.69-3.71 2.13-.31 2.2 2.29 1.99 4.25-.68 5.58-4.33 10.41-7.88 14.6-1.33 1.56-2.65 3.13-3.84 4.79l-.05.07v.06c.02.93.16 1.91.41 2.74l.1.24.22-.22zm-.56-4.28c2.13-2.86 4.61-5.53 6.67-8.44 2.01-2.85 3.61-5.94 4.08-9.56.03-.25.03-.63.1-1.01 0-.37.01-.75-.04-1.11-.11-.73-.4-1.44-1.25-1.31-.49.07-1 .4-1.38.76-2.38 2.03-6.87 13.02-7.58 15.86-.36 1.36-.71 2.78-.88 4.17l-.08 1.13.36-.49z"/><path class="cls-1" d="M41.83 31.19c.07-.82.24-1.78.42-2.67.09-.2.26-.35.44-.38.24-.04.32.08.3.33-.06.88-.36 1.8-.48 2.68-.06.44-.1 1.45.04 2.36.12.79.43 1.68 1.22 1.56.3-.04.74-.48.95-.76.38-.37.74-.92 1.16-1.42.77-1.11 1.47-2.27 1.65-2.73.15-.27.2-.34.44-.38.12-.02.26.09.22.22-.02.69-1.53 2.71-2 3.34-.16.21-.36.49-.57.77-.15.27-.36.49-.57.77-.43.44-.94.82-1.42.89-1.89.28-1.98-2.88-1.79-4.59zm1.54-8.63c.12-.45.3-.92.5-1.26.19-.4.36-.49.49-.51.18-.03.33.14.3.33 0 .06-.05.07-.1.2-.58 1.14-.92 2.25-1.05 3.45-.03.25-.19.4-.43.44-.24.04-.32-.08-.3-.33.02-.31.24-1.34.59-2.33z"/><path class="cls-1" d="M54.87 26.73c-.16.15-.33.3-.55.46-.11.08-.23.16-.28.23-.11.08-.22.22-.33.3-.38.37-.85 1-1.37 1.69-.52.7-1.08 1.53-1.59 2.29-1.21 1.55-2.27 2.76-3 2.87-.67.1-.84-.62-.75-1.32.14-1.14.61-3.45.94-4.62.03-.25.19-.4.43-.44.18-.03.32.08.24.34-.14 1.58-.72 3.16-.86 4.73 0 0-.04.13-.03.19l.02.12c0 .06.08.11.2.1.18-.03.47-.19.69-.41.22-.22.48-.57.74-.92.57-.77 1.24-1.74 1.97-2.71 1.52-1.96 3.05-3.81 4.03-3.95.49-.07.67.34.71 1.02 0 .38-.01.75-.09 1.07-.07.38-.08.7-.12.89-.05.51-.07 1.19.07 1.73.15.6.53 1.04 1.26.94.79-.12 1.72-1 2.42-1.72.38-.37.7-.73.97-1.01.1-.14.21-.28.31-.42.13.04.23.28.19.47-.08.7-3.06 3.31-4.28 3.49-.49.07-.95-.11-1.3-.37-.44-.43-.59-1.03-.62-1.65.02-.69.16-1.46.18-2.14.07-.38.01-.75.08-1.13l.11-.51-.37.43z"/><path class="cls-1" d="M62.52 30.53c-.46-.62-1.06-1.28-1.49-2.09-.48-.74-.73-1.57-.65-2.33.19-1.71 2.11-3.42 3.21-3.58.43-.06.58.17.55.36 0 .06-.03.19-.32.36-1.18.42-2.56 1.25-2.67 2.57-.13.83.24 1.65.71 2.32.41.69.95 1.36 1.34 1.92l.08.11.1-.14c.51-.33 1.53-1.03 2.49-1.67 1.02-.65 1.95-1.16 2.37-1.22.24-.04.45.12.43.37 0 .06-.1.2-.95.76-.8.49-2.33 1.52-3.87 2.5l-.23.16.15.17c.31.45.59 1.03.48 1.55-.08 1.13-1.63 2.04-2.61 2.19-1.04.15-2.36-.4-2.26-1.41.1-.58.54-1.01 1.15-1.48.62-.46 1.37-.82 1.83-1.08l.23-.16-.09-.17zm-.48 3.55c.37-.05.72-.17 1-.4.89-.75.19-1.65-.03-2.3l-1.03.65c-.17.15-.57.33-.92.51-.23.16-.4.25-.57.39-.11.08-.28.23-.3.48-.03.19.11.29.18.41.14.1.27.15.46.18.32.08.77.14 1.19.08z"/><path class="cls-1" d="M73.16 27.1l-.78 1.05c-.26.35-.52.7-.85 1-.53.64-1.15 1.1-1.94 1.22-1.52.22-1.61-1.63-1.45-3.08.06-.88.23-1.84.54-2.69.04-.19.15-.27.27-.29.24-.04.39.13.36.32-.07.82-.38 1.67-.5 2.5-.02.31-.11.95-.03 1.5s.28 1.08.89.99c2.01-.29 4.19-4.97 4.82-6.62.1-.2.2-.34.38-.37.24-.04.32.08.3.33-.13 1.26-.74 2.6-.87 3.86-.06.45-.03 1.06.15 1.47s.47.68 1.01.54l-.03.19.24-.1c.05-.07.11-.08.17-.09.12-.02.27.15.24.34.02.12-.09.26-.2.34-.17.09-.36.11-.54.14-1.46.21-1.8-1.23-1.63-2.62l.05-.5-.6.59zm5.79 3.39c.19-.4.43-.87.72-1.47.29-.54.65-1.09 1-1.64.78-1.05 1.6-1.85 2.45-1.98.12-.02.3-.04.43 0s.2.09.16.23c-.05.51-.42.93-.86 1.37l-.32.36c-.1.14-.22.22-.26.35-.22.22-.36.49-.39.74-.08.7.61.78.98.73 2.07-.3 5.31-3.7 6.76-5.28.11-.08.17-.15.23-.16.18-.03.34.2.31.45 0 .06-.04.13-.09.26-1.36 1.76-5.44 5.34-7.27 5.61-.97.14-1.87-.41-1.7-1.43l.12-.89-.43.87c-.21.28-.68 1.28-1.18 2.16-.3.48-.55.89-.75 1.23-.1.14-.21.28-.32.36 0 .06-.05.07-.1.14-.18.03-.32-.08-.36-.32-.85-2.8-.83-7.78-.44-11.08.5-5.55 2.66-11.59 5.32-16.4C84 2.87 85.8.3 87.69.02c.97-.14 1.45.54 1.61 1.63.15 1.04.04 2.36-.03 3.18-.86 7.29-5.03 14.99-11.03 20.29l-.11.08.02.12c.01 1.8.2 3.52.45 5.22l.07.49.29-.54zm-.57-6.45c5.59-5.17 9.3-12.13 10.09-19.09.05-.5.21-1.52.14-2.45-.06-.86-.26-1.77-1.11-1.64-2.32.34-4.69 5.35-5.45 7.02l-.23.53.11-.08c-2.27 4.94-3.61 10.24-3.88 15.63v.37l.32-.3z"/><path class="cls-1" d="M89.98 25.08c.01.93.43 1.68 1.53 1.52 1.71-.25 3.74-2.1 4.91-3.46.11-.08.16-.15.23-.16.18-.03.4.19.38.44-.05.07-.1.14-.15.27-1.14 1.54-3.66 3.46-5.37 3.71-1.58.23-2.37-.9-2.18-2.54.25-1.72 1.06-4.26 2.95-4.54.55-.08 1.01.1 1.2.51l.03.18c.02.12.04.24 0 .38-.14 1.2-2.27 2.76-3.35 3.48l-.16.21zm.49-1.32c.63-.34 2.21-1.51 2.22-2.25.09-.26-.06-.43-.25-.46-.13-.04-.31-.02-.44 0-.55.08-.97.58-1.28 1.06-.23.53-.4 1.12-.53 1.51l-.07.38.34-.24zm3.96 30.43c.09-.2.27-.29.45-.32s.32.08.29.27c0 0 0 .06-.04.13 0 0 0 .06-.04.13 0 .06-.04.13-.09.2 0 .06-.04.13-.03.19-.11.95.51 1.36 1.21 1.44.71.15 1.56.02 2.11-.06 5.73-.84 10.86-2.77 16.22-6.54 1.13-.79 3.89-2.75 4.09-4.4.11-.95-.44-1.3-1.29-1.18-.55.08-1.44.33-2.34.59-3.11.89-6.17 1.65-9.4 2.12-4.21.62-13.29 1.88-12.66-4 .17-.96.53-1.94.94-2.94.47-1.06 1.07-2.02 1.56-2.96 4.1-7.26 9.96-13.6 16.83-18.15 2.16-1.44 4.89-3.14 7.15-3.47 2.31-.34 4.31.93 3.99 3.46-.69 5.95-9.59 13.6-13.92 17.16-.12.02-.17.09-.23.1-.12.02-.28-.21-.25-.4.04-.13.09-.26.19-.4 3.55-2.95 8.93-7.47 11.13-11.53.38-.8.89-1.56 1.27-2.36.43-.87.74-1.73.87-2.56.23-2.27-1.62-3-3.45-2.73-1.16.17-2.45.73-3.65 1.41-9.13 5.63-16.64 13.02-21.1 22.94-.32.79-.59 1.52-.66 2.28-.62 5.13 8.43 4 11.6 3.53 3.78-.55 7.67-1.62 11.5-2.68.24-.04.54-.14.78-.18 1.28-.19 2 .46 1.88 1.78-.24 1.78-1.78 3.12-3.13 4.13-4.93 3.77-10.84 6.75-16.99 7.65-.91.13-2.26.27-3.29.05-1.09-.21-1.79-.73-1.66-2 .03-.19.11-.51.21-.71zm32.71-12.13l-.78 1.05c-.26.35-.52.7-.85 1-.53.64-1.15 1.1-1.94 1.22-1.52.22-1.61-1.63-1.45-3.09.06-.88.23-1.84.54-2.69.03-.19.15-.27.27-.29.24-.04.39.13.36.32-.07.82-.38 1.67-.5 2.5-.02.31-.11.95-.03 1.5s.28 1.08.89.99c2.01-.29 4.19-4.97 4.82-6.62.1-.2.2-.34.38-.37.24-.04.32.08.3.33-.13 1.26-.74 2.6-.87 3.86-.06.44-.03 1.06.15 1.47.18.41.47.68 1.01.54l-.04.19.24-.1c.05-.07.11-.08.17-.09.12-.02.27.15.24.34.02.12-.09.26-.2.34-.17.09-.36.11-.54.14-1.46.21-1.8-1.23-1.63-2.62l.05-.51-.6.59zm9.87-4.44c-.64.28-1.3.5-1.91.59-.3.04-1.17.05-1.93-.03-.37 0-.7-.08-.96-.17-.27-.15-.35-.26-.3-.33.03-.19.19-.4.37-.43l.12-.02c.06 0 .13.04.19.03.19.03.45.12.71.15.44.06 1.08.15 1.69.06.61-.09 1.28-.19 1.92-.47.24-.1.4-.25.63-.34.17-.09.41-.19.59-.21.37-.05.58.1.51.49-.02.31-.33.73-.81 1.24-.42.5-.92.94-1.19 1.23-1.2 1.17-2.32 2.46-2.96 3.98-.05.07-.1.2-.15.27-.05.07-.09.2-.08.32-.05.07.02.12.03.18.07.05.13.04.13.04.07.05.19.04.31.02.19.03.38 0 .44 0 2.56-.38 5.41-3.03 7.24-4.98.1-.14.16-.21.22-.22.18-.03.4.19.38.44-.05.07-.1.14-.15.27-1.88 2.45-5.22 4.75-7.96 5.15-.73.11-1.45-.1-1.32-.93.12-.89.82-2.05 1.71-3.17.49-.51.96-1.08 1.45-1.58.43-.44.92-.94 1.24-1.3l.54-.58-.7.29z"/><path class="cls-1" d="M146.64 39.2l-.78 1.05c-.26.35-.52.7-.85 1-.53.64-1.15 1.1-1.94 1.22-1.52.22-1.61-1.63-1.45-3.09.06-.88.23-1.84.54-2.69.03-.19.15-.27.27-.29.24-.04.39.13.36.32-.07.82-.38 1.67-.5 2.5-.02.31-.11.95-.03 1.5s.28 1.08.89.99c2.01-.29 4.19-4.97 4.82-6.62.09-.2.2-.34.38-.37.24-.04.32.08.3.33-.13 1.26-.74 2.6-.87 3.86-.06.45-.03 1.06.15 1.47s.47.68 1.01.54l-.03.19.24-.1c.05-.07.11-.08.17-.09.12-.02.27.15.24.34.02.12-.09.26-.2.34-.17.09-.36.11-.54.14-1.46.21-1.8-1.23-1.63-2.62l.05-.51-.6.59zm5.78 3.39c.19-.4.43-.87.72-1.47.29-.54.65-1.09 1-1.64.78-1.05 1.6-1.85 2.45-1.98.12-.02.3-.04.44 0 .13.04.2.09.16.23-.05.51-.42.93-.86 1.37l-.32.36c-.1.14-.22.22-.26.35-.22.22-.36.49-.39.74-.08.7.61.78.98.73 2.07-.3 5.31-3.7 6.76-5.28.11-.08.17-.15.23-.16.18-.03.34.2.31.45 0 .06-.04.13-.09.26-1.36 1.75-5.44 5.34-7.27 5.61-.97.14-1.87-.41-1.7-1.43l.12-.89-.43.87c-.21.28-.68 1.28-1.18 2.16-.3.48-.55.89-.75 1.23-.1.14-.21.28-.32.36 0 .06-.05.07-.1.14-.18.03-.32-.08-.36-.32-.85-2.8-.83-7.78-.44-11.08.49-5.55 2.66-11.59 5.32-16.4 1.04-1.83 2.84-4.4 4.73-4.68.98-.14 1.45.54 1.61 1.63.15 1.04.03 2.36-.03 3.18-.86 7.29-5.03 14.99-11.04 20.29l-.11.08.02.12c.01 1.8.2 3.52.45 5.22l.07.49.29-.54zm-.57-6.45c5.59-5.17 9.3-12.13 10.09-19.09.05-.5.21-1.52.14-2.45-.06-.86-.26-1.77-1.11-1.64-2.32.34-4.69 5.36-5.45 7.02l-.23.53.11-.08c-2.26 4.94-3.61 10.24-3.87 15.63v.37l.32-.3z"/><path class="cls-1" d="M162.9 36.32c.07-.82.24-1.78.42-2.68.1-.2.26-.35.44-.38.24-.04.32.08.3.33-.06.88-.36 1.8-.48 2.68-.06.45-.1 1.45.04 2.36.12.79.43 1.68 1.22 1.56.3-.04.74-.48.95-.76.38-.37.74-.92 1.16-1.42.77-1.11 1.47-2.27 1.65-2.73.15-.27.2-.34.44-.38.12-.02.26.09.22.22-.02.69-1.53 2.71-2 3.34-.16.21-.36.49-.57.77-.15.27-.36.49-.57.77-.43.44-.94.82-1.43.89-1.89.28-1.98-2.88-1.79-4.59zm1.54-8.63c.12-.45.3-.92.5-1.26.19-.4.37-.49.49-.51.18-.03.33.14.3.33 0 .06-.05.07-.09.2-.58 1.14-.92 2.25-1.05 3.45-.03.25-.19.4-.43.44-.24.04-.32-.08-.3-.33.02-.31.24-1.34.59-2.33z"/></g></svg>