<svg xmlns="http://www.w3.org/2000/svg" viewBox="0 0 366.46 55.4"><path d="M.46 40.06c.15-.21.37-.28.59-.28s.37.14.29.35c0 0 0 .07-.07.14 0 0 0 .07-.07.14 0 .07-.07.14-.15.21 0 .07-.07.14-.07.21-.29 1.04.37 1.6 1.18 1.81.81.28 1.84.28 2.5.28 6.91 0 13.31-1.32 20.3-4.65 1.47-.69 5.07-2.43 5.59-4.23.29-1.04-.29-1.53-1.32-1.53-.66 0-1.77.14-2.87.28-3.82.49-7.58.83-11.47.83-5.07 0-16.03-.07-14.27-6.53.37-1.04.96-2.08 1.62-3.12.74-1.11 1.62-2.08 2.35-3.06C10.69 13.47 18.7 7.36 27.6 3.4 30.39 2.15 33.93.69 36.65.69s4.93 1.74 4.12 4.51c-1.84 6.53-13.68 13.61-19.42 16.87-.15 0-.22.07-.29.07-.15 0-.29-.28-.22-.49.07-.14.15-.28.29-.42 4.71-2.71 11.84-6.87 15.15-11.04.59-.83 1.32-1.6 1.91-2.43.66-.9 1.18-1.81 1.47-2.71.66-2.5-1.4-3.61-3.6-3.61-1.4 0-3.02.42-4.56.97C19.73 7.22 9.58 14.23 2.6 24.58c-.52.83-.96 1.6-1.18 2.43-1.62 5.62 9.27 5.83 13.09 5.83 4.56 0 9.34-.56 14.05-1.11.29 0 .66-.07.96-.07 1.54 0 2.28.83 1.91 2.29-.59 1.94-2.65 3.19-4.41 4.1-6.47 3.4-13.97 5.76-21.4 5.76-1.1 0-2.72-.07-3.9-.49C.47 42.9-.27 42.21.1 40.82c.07-.21.22-.56.37-.76zm35.23-7.71c-.15 1.04.22 1.94 1.54 1.94 2.06 0 4.78-1.74 6.4-3.06.15-.07.22-.14.29-.14.22 0 .44.28.37.56-.07.07-.15.14-.22.28-1.62 1.53-4.93 3.26-6.99 3.26-1.91 0-2.65-1.39-2.13-3.19.59-1.87 1.99-4.58 4.27-4.58.66 0 1.18.28 1.32.76v.21c0 .14 0 .28-.07.42-.37 1.32-3.16 2.71-4.56 3.33l-.22.21zm.81-1.39c.81-.28 2.87-1.32 3.02-2.15.15-.28 0-.49-.22-.56-.15-.07-.37-.07-.52-.07-.66 0-1.25.49-1.69.97-.37.56-.66 1.18-.88 1.6l-.15.42.44-.21z"/><path d="M43.27 34.3c.07-.07.29-.21.44-.21 0-.07.07-.07.15-.14 1.32-.83 2.43-1.94 3.46-2.99.51-.56 1.03-1.11 1.54-1.6.51-.56 1.03-1.04 1.62-1.53l.37-.28c.22-.21.51-.35.74-.56.15-.07.22-.14.37-.14.29 0 .37.14.37.49-.07.14-.07.28-.15.49-.07.14-.07.35-.15.49-.44 1.53-1.03 3.12-1.47 4.65-.07.49-.37 1.46-.44 2.36-.07.83 0 1.74.96 1.74.88 0 2.21-1.32 3.24-2.5 1.18-1.32 2.21-2.71 2.57-3.19.15-.28.29-.35.52-.35.15 0 .22.07.15.21-.29 1.04-4.71 5.76-6.03 6.46-.37.21-.74.28-1.1.28-.81 0-1.1-.56-1.25-1.39-.07-.83.15-1.87.29-2.5.44-1.6 1.18-3.19 1.69-4.79l.22-1.04-.51.49c-.88.83-2.35 2.5-3.97 3.96-1.54 1.53-3.09 2.64-4.04 2.64-.81 0-.96-.62-.74-1.39 1.03-2.43 5-7.22 7.72-7.22.22 0 .52 0 .66.07.15.07.22.14.15.35 0 .07-.07.14-.07.21l-.07.14h-.15c-.07.07-.15.07-.29.07s-.29-.07-.44-.07c-1.84 0-6.18 4.58-6.62 6.11 0 .14 0 .35-.07.56l-.15.49.52-.35z"/><path d="M57.76 32.35c1.32-2.15 3.16-4.65 5.88-4.65.22 0 .52.07.74.07l.15.21c.15 0 .22.14.15.35-.07.21-.29.42-.51.42h-.37c-.07-.07-.15-.07-.15-.07-2.35 0-3.75 1.87-4.85 3.61-1.18 1.87-2.13 4.03-2.87 5.14-.15.21-.37.35-.59.35s-.37-.14-.29-.42c.15-.83.44-1.81.74-2.71.59-2.15 1.4-5.21 2.28-7.36.07-.28.29-.42.59-.42s.37.14.29.42c-.51 1.67-1.1 3.33-1.62 5.07l-.37 1.39.81-1.39zm15.96-.62c-.15.14-.37.28-.59.49-.51.28-1.25.69-1.99 1.11-1.47.76-3.02 1.53-3.46 1.74-.74.42-1.4.69-2.13.69-1.69 0-2.28-1.67-1.84-3.19.59-2.08 3.53-6.11 5.96-6.11.22 0 .51 0 .66.07.15.07.22.14.15.28-.07.35-.22.42-.37.42h-.74c-1.91 0-4.34 3.96-4.71 5.28-.29.97-.07 2.36 1.25 2.36.96 0 2.72-1.04 4.34-1.94.74-.42 1.54-.9 2.13-1.25.29-.14.59-.28.81-.42.22-.07.29-.14.29-.14.29 0 .52.28.44.49-.07.07-.15.07-.22.14z"/><path d="M74.67 34.57c.59-.49 1.76-1.6 3.02-2.57 1.32-1.04 2.5-1.87 3.09-1.87s.81.28.88.76c.07.21 0 .49 0 .83-.07.28-.15.62-.22.97-.29 1.39-.51 2.99 1.4 2.99 1.18 0 2.28-.9 3.09-1.6.22-.21.88-.9 1.54-1.6.37-.35.66-.69.88-.97.15-.14.22-.28.29-.35.07-.07.07-.14.15-.21.07-.14.22-.21.37-.21.29 0 .44.21.37.42 0 .07-.07.14-.15.21-.37.49-.88 1.04-1.4 1.6-1.18 1.46-3.46 3.4-5.44 3.4-1.4 0-2.28-.9-2.13-2.22 0-.69.22-1.46.37-2.15 0-.07.07-.28.15-.56v-.35s0-.07-.07-.14c0-.07-.07-.14-.22-.14s-.37.14-.59.28c-.29.14-.51.35-.88.62-.59.49-1.32 1.11-2.06 1.74-.74.62-1.47 1.25-2.06 1.74-.29.28-.59.42-.74.56-.22.14-.37.21-.37.21-.15 0-.37-.21-.51-.56-.07-.35-.15-.83-.22-1.32-.07-1.11.07-2.29.07-2.71 0-.76.29-1.67.51-2.5 1.69-6.04 6.84-13.61 11.18-18.88 1.32-1.67 2.94-3.54 5-3.54 2.57 0 2.21 2.92 1.62 5.07-1.77 6.11-6.91 10.9-11.84 15-1.84 1.53-3.68 3.05-5.37 4.72l-.07.07v.07a10.87 10.87 0 000 3.12l.07.28.29-.21zm.07-4.86c3.02-2.85 6.4-5.42 9.34-8.33 2.87-2.85 5.29-6.04 6.47-10 .07-.28.15-.69.29-1.11.07-.42.15-.83.15-1.25 0-.83-.22-1.67-1.25-1.67-.59 0-1.25.28-1.77.62-3.16 1.87-10.37 13.4-11.69 16.45-.66 1.46-1.32 2.99-1.77 4.51l-.29 1.25.51-.49zm46.78-1.11c-3.75 1.04-7.5 2.15-11.25 3.4-1.32.42-2.43.76-3.6 1.25-1.1.49-2.21 1.04-3.38 1.87-.15.07-.22.14-.37.14-.22 0-.44-.28-.37-.49.07-.14.15-.21.22-.28 3.53-2.71 14.78-5.69 19.27-6.87l.15-.07.07-.14c2.79-6.11 5.88-12.15 9.12-18.19l.22-.42-.44.14c-4.49 1.39-9.12 2.99-13.09 5.97-.15.07-.22.14-.37.14-.22 0-.37-.21-.29-.49 0-.07.07-.21.22-.28 6.1-5.35 22.14-8.96 29.27-9.72 2.43-.21 5-.42 7.35-.42.66 0 1.25.07 1.84.07 2.06.21 3.97.97 4.34 2.78.07.07.07.21.07.42.07.07.07.14.07.21v.07c-.15.35-.29.56-.66.56-.22 0-.22-.07-.22-.28-.15-1.25-.96-1.87-1.99-2.15-.52-.14-1.03-.21-1.62-.28h-1.77c-6.1 0-12.28.83-18.61 2.36-.81.21-1.69.42-2.57.69l-.22.07v.21c.07.14.07.28.07.42v.35c-.07.21-.37.35-.66.35h-.15l-.15.21c-3.02 5.55-5.74 11.18-8.46 16.87l-.15.35.37-.07c5.15-1.32 10.3-2.43 15.44-3.26.59-.07 1.47-.28 2.28-.42s1.62-.28 2.13-.28c.44 0 .59.14.52.49-.07.21-.15.28-.37.35-1.03.21-2.06.28-3.02.42-2.06.28-4.04.62-6.1 1.04-3.82.69-7.65 1.53-11.47 2.5l-.15.07-.07.14c-1.62 3.54-3.16 7.15-4.63 10.69-.44 1.11-.88 2.15-1.18 3.26-.59 2.01-.59 4.51 2.13 4.51 2.28 0 6.25-1.74 8.38-2.78 2.06-.97 3.97-2.22 5.88-3.54 3.02-2.15 5.81-4.58 8.24-7.29.59-.69 1.1-1.39 1.69-2.01.15-.14.22-.21.37-.21.22 0 .37.21.29.42 0 .07 0 .14-.07.21-4.56 6.04-11.33 10.9-18.31 13.95-2.13.97-4.63 2.01-6.77 2.01-3.09 0-3.53-2.57-2.79-5.28.37-1.25.88-2.43 1.4-3.61 1.32-3.33 2.65-6.6 4.12-9.86l.15-.35-.37.07z"/><path d="M152.56 28.47c-.22.14-.44.28-.74.42-.15.07-.29.14-.37.21-.15.07-.29.21-.44.28-.52.35-1.18.97-1.91 1.67-.74.69-1.54 1.53-2.28 2.29-1.69 1.53-3.16 2.71-4.04 2.71-.81 0-.88-.83-.66-1.6.37-1.25 1.32-3.75 1.91-5 .07-.28.29-.42.59-.42.22 0 .37.14.22.42-.44 1.74-1.4 3.4-1.84 5.14 0 0-.07.14-.07.21v.14c0 .07.07.14.22.14.22 0 .59-.14.88-.35.29-.21.66-.56 1.03-.9.81-.76 1.77-1.74 2.79-2.71 2.13-1.94 4.27-3.75 5.44-3.75.59 0 .74.49.66 1.25-.07.42-.15.83-.29 1.18-.15.42-.22.76-.29.97-.15.56-.29 1.32-.22 1.94.07.69.44 1.25 1.32 1.25.96 0 2.21-.83 3.16-1.53.52-.35.96-.69 1.32-.97.15-.14.29-.28.44-.42.15.07.22.35.15.56-.22.76-4.19 3.19-5.66 3.19-.59 0-1.1-.28-1.47-.62-.44-.56-.52-1.25-.44-1.94.15-.76.44-1.6.59-2.36.15-.42.15-.83.29-1.25l.22-.56-.51.42z"/><path d="M158.96 33.19c.66-.49 1.25-.97 1.91-1.46.59-.49 1.18-.97 1.84-1.46.52-.49 1.99-1.67 2.65-1.67.51 0 .74.35.81.83v.76c0 .28-.07.56-.07.76 0 .62-.07 1.25-.15 1.87l-.07.42.37-.28c1.54-1.04 3.24-1.81 4.85-1.94h.15c.07.07.15.21.07.35-.07.28-.29.42-.51.49-2.06.28-3.38.97-5.07 2.29l-.15.14c-.66 5.14-4.78 11.04-8.97 14.16-.66.49-1.47 1.04-2.13 1.04-.59 0-.81-.28-.88-.76 0-4.37 7.72-12.22 11.11-14.79l.07-.07v-.07c.07-.35.22-1.32.37-2.29 0-.49.07-.9.07-1.32.07-.14.07-.35.07-.42v-.21s-.07-.07-.07-.14l-.07-.21-.29.21c-.44.42-.88.76-1.4 1.11-1.03.83-2.06 1.74-3.16 2.57-.59.42-1.18.9-1.77.9-.22 0-.37-.07-.52-.21l.96-.62zm-.37 12.5c2.79-2.92 4.63-6.39 5.59-9.79l.29-.97-.51.42c-3.6 2.99-8.16 8.12-9.34 12.22 0 .07-.07.28-.07.49 0 .14-.07.21-.07.28s.07.14.07.14c0 .07.07.14.15.14.29 0 .66-.21.96-.35.29-.21.74-.56 1.1-.83.74-.62 1.47-1.25 1.77-1.6h.07v-.14zm5-17.77c-1.91 1.53-3.38 3.12-4.93 5l-.66.9c-.22-.14-.29-.42-.15-.69.37-1.46 5-6.18 6.47-6.18.44 0 .74.35.66.69-.07.21-.37.49-.59.49-.07 0-.15 0-.15-.07s0-.21-.22-.21h-.29l-.15.07z"/><path d="M170.95 31.31c.22-.9.59-1.94.96-2.92.15-.21.37-.35.59-.35.29 0 .37.14.29.42-.22.97-.74 1.94-1.03 2.92-.15.49-.37 1.6-.37 2.64 0 .9.22 1.94 1.18 1.94.37 0 .96-.42 1.25-.69.51-.35 1.03-.9 1.62-1.39 1.1-1.11 2.13-2.29 2.43-2.78.22-.28.29-.35.59-.35.15 0 .29.14.22.28-.15.76-2.28 2.78-2.94 3.4-.22.21-.51.49-.81.76-.22.28-.51.49-.81.76-.59.42-1.25.76-1.84.76-2.28 0-1.84-3.54-1.32-5.42zm3.31-9.37c.22-.49.51-.97.81-1.32.29-.42.51-.49.66-.49.22 0 .37.21.29.42 0 .07-.07.07-.15.21-.88 1.18-1.47 2.36-1.84 3.68-.07.28-.29.42-.59.42s-.37-.14-.29-.42c.07-.35.52-1.46 1.1-2.5z"/><path d="M187.13 28.47c-.22.14-.44.28-.74.42-.15.07-.29.14-.37.21-.15.07-.29.21-.44.28-.51.35-1.18.97-1.91 1.67s-1.54 1.53-2.28 2.29c-1.69 1.53-3.16 2.71-4.04 2.71-.81 0-.88-.83-.66-1.6.37-1.25 1.32-3.75 1.91-5 .07-.28.29-.42.59-.42.22 0 .37.14.22.42-.44 1.74-1.4 3.4-1.84 5.14 0 0-.07.14-.07.21v.14c0 .07.07.14.22.14.22 0 .59-.14.88-.35.29-.21.66-.56 1.03-.9.81-.76 1.76-1.74 2.79-2.71 2.13-1.94 4.27-3.75 5.44-3.75.59 0 .74.49.66 1.25-.07.42-.15.83-.29 1.18-.15.42-.22.76-.29.97-.15.56-.29 1.32-.22 1.94.07.69.44 1.25 1.32 1.25.96 0 2.21-.83 3.16-1.53.51-.35.96-.69 1.32-.97.15-.14.29-.28.44-.42.15.07.22.35.15.56-.22.76-4.19 3.19-5.66 3.19-.59 0-1.1-.28-1.47-.62-.44-.56-.51-1.25-.44-1.94.15-.76.44-1.6.59-2.36.15-.42.15-.83.29-1.25l.22-.56-.51.42z"/><path d="M194.19 32.35c-.15 1.04.22 1.94 1.54 1.94 2.06 0 4.78-1.74 6.4-3.06.15-.07.22-.14.29-.14.22 0 .44.28.37.56-.07.07-.15.14-.22.28-1.62 1.53-4.93 3.26-6.99 3.26-1.91 0-2.65-1.39-2.13-3.19.59-1.87 1.99-4.58 4.27-4.58.66 0 1.18.28 1.32.76v.21c0 .14 0 .28-.07.42-.37 1.32-3.16 2.71-4.56 3.33l-.22.21zm.81-1.39c.81-.28 2.87-1.32 3.02-2.15.15-.28 0-.49-.22-.56-.15-.07-.37-.07-.51-.07-.66 0-1.25.49-1.69.97-.37.56-.66 1.18-.88 1.6l-.15.42.44-.21zm32.5-1.45c-3.16-2.57-4.49-6.67-3.16-11.25 1.84-6.53 8.31-12.22 14.86-15.62 2.94-1.53 5.66-2.64 8.6-2.64 9.19 0 8.9 9.72 6.84 16.87-1.03 3.68-2.87 8.05-5.29 11.46-3.16 4.37-7.13 8.4-11.47 11.87-2.87 2.29-7.21 5.62-10.59 5.62-4.19 0-4.04-4.24-3.09-7.57.81-2.85 2.13-5.76 3.38-8.54l.07-.14-.15-.07zm.81.76c-1.18 2.57-2.35 5.28-3.09 7.91-.74 2.5-1.4 6.73 2.43 6.73s10.44-5.69 13.31-8.33c3.75-3.47 7.21-7.36 9.71-11.66 1.18-2.08 1.99-4.3 2.57-6.46 1.4-4.93 2.87-15.34-2.65-17.22-.88-.28-1.76-.42-2.72-.42-7.28 0-17.5 7.71-21.04 14.09-.51 1.04-.96 2.01-1.18 3.06-1.18 4.03-.22 7.91 2.43 10.34l.22.21.15-.28c.37-.69 1.69-3.05 3.09-5.35.74-1.11 1.4-2.15 2.06-2.99.29-.35.59-.69.81-.9.22-.21.37-.28.37-.28.22 0 .44.21.37.49-.07 0-.07.14-.15.14-2.5 3.19-4.41 6.11-6.1 9.58l-.07.14.07.07c1.25.83 2.72 1.53 4.34 1.81.44.07.96.07 1.4.14.37.07.44.21.37.49s-.22.42-.51.42c-2.21 0-4.19-.9-5.81-1.87l-.22-.14-.15.28zm21.55 8.47c-.29 0-.59 0-.88-.07-.37 0-.59-.07-.88-.14-.44-.14-.74-.42-.51-1.04.22-.9 1.91-2.15 2.79-2.71.37-.28.74-.49 1.03-.69l.07-.07 1.91-5.97c.07-.28.29-.42.59-.42.22 0 .37.21.29.42l-1.77 5.35.51-.35c.88-.69 8.61-5.62 8.97-5.62.22 0 .29.07.29.28v.35c-.07.14-.07.28-.15.35-1.03 3.75-4.56 7.15-8.61 8.4q-.07.07-.15.07c-.22 0-.29-.21-.22-.42 0-.21.15-.28.29-.35.07-.07.22-.14.29-.14.15-.07.29-.14.37-.14 3.46-1.18 6.18-3.61 7.43-6.8l.15-.49-.44.35c-2.94 1.74-5.74 3.61-8.6 5.48h-.07l-1.25 3.61.07.07c2.43 1.18 1.4 5.42.66 8.05-.66 1.94-3.46 9.3-5.88 9.3-.59 0-.81-.35-.96-.9-.07-.49.07-1.18.22-1.67.29-.97.66-1.81.96-2.78 1.18-3.68 2.28-7.43 3.6-11.11l.07-.21h-.22zm1.69.49h-.44l-.07.14c-1.54 4.65-3.09 9.3-4.41 13.96 0 .07-.07.35-.15.62 0 .14 0 .28.07.35 0 .14.07.28.29.28.15 0 .29-.14.37-.21.15-.07.22-.21.29-.28.22-.21.37-.49.44-.56 1.76-2.64 3.02-5.55 3.75-8.4.51-1.74 1.1-4.65-.07-5.97l-.15.14.07-.07zm-.81-1.53l.74-2.5-.51.35c-.15.07-.29.21-.52.35s-.44.28-.66.42c-.37.28-.88.62-.96 1.04-.15.35.15.42.37.49h1.25l.29-.14z"/><path d="M268.69 19.16c-1.69.21-3.38.49-5.07.69-.29.07-.74.21-1.1.28-.44.07-.81.14-1.1.14-.44 0-.59-.21-.51-.56.07-.14.15-.21.37-.21.88-.28 2.43-.56 4.04-.76 1.54-.21 3.16-.42 4.19-.56h.15l.07-.14c.44-.83 3.68-6.39 4.27-6.39.22 0 .44.21.37.49 0 0-.07.07-.07.14-.74.69-3.09 4.51-3.46 5.42l-.22.28.37-.07c2.87-.28 5.88-.76 8.75-.76 1.32 0 4.49.42 5.74.97.51.28.74.49.66.62-.07.28-.37.49-.59.49-.07 0-.15-.07-.22-.07-1.69-.76-3.46-1.11-5.59-1.11-3.02 0-6.33.56-9.49.9h-.15l-.07.21c-.07.21-.22.49-.37.76-3.46 6.46-6.25 13.47-7.43 20.62-.29 2.22.07 4.17 2.35 4.79.29.07.44.21.37.49-.07.21-.22.35-.44.35-2.5 0-3.38-2.78-3.24-4.93.51-6.73 4.49-16.04 7.65-21.87l.15-.28-.37.07z"/><path d="M268.91 31.31c.22-.9.59-1.94.96-2.92.15-.21.37-.35.59-.35.29 0 .37.14.29.42-.22.97-.74 1.94-1.03 2.92-.15.49-.37 1.6-.37 2.64 0 .9.22 1.94 1.18 1.94.37 0 .96-.42 1.25-.69.51-.35 1.03-.9 1.62-1.39 1.1-1.11 2.13-2.29 2.43-2.78.22-.28.29-.35.59-.35.15 0 .29.14.22.28-.15.76-2.28 2.78-2.94 3.4-.22.21-.51.49-.81.76-.22.28-.51.49-.81.76-.59.42-1.25.76-1.84.76-2.28 0-1.84-3.54-1.32-5.42zm3.31-9.37c.22-.49.51-.97.81-1.32.29-.42.51-.49.66-.49.22 0 .37.21.29.42 0 .07-.07.07-.15.21-.88 1.18-1.47 2.36-1.84 3.68-.07.28-.29.42-.59.42s-.37-.14-.29-.42c.07-.35.51-1.46 1.1-2.5z"/><path d="M275.75 35.41c.44-.28 1.18-1.04 1.91-1.87.81-.9 1.69-1.94 2.65-2.92 1.91-2.08 3.75-3.82 4.85-3.82.37 0 .59.28.66.83 0 .56-.15 1.32-.29 2.15-.15.76-.37 1.6-.44 2.15-.07.35-.07.62 0 .83.07.21.22.35.51.35.51 0 1.1-.35 1.62-.76.22-.21.51-.49.81-.76.22-.28.51-.56.81-.83 1.18-1.18 2.43-2.22 3.9-2.22.22 0 .37.14.37.35 0 .35-.07.83-.07 1.32-.07.49-.07 1.04 0 1.46.15.97.59 1.8 1.91 1.8 1.18 0 2.65-1.04 3.16-2.08.15-.21.22-.28.37-.28.22 0 .37.21.29.42-.37 1.32-2.87 2.78-4.27 2.78-2.5 0-2.72-2.5-2.57-4.58l.07-.28-.29.07c-.59.21-1.18.62-1.69 1.11-.59.49-1.1 1.04-1.62 1.53-1.1 1.11-2.13 1.94-3.24 1.94-.66 0-.96-.42-1.1-.9-.07-.56 0-1.25.15-1.87.15-1.11.37-2.22.59-3.26l.15-.69-.51.56c0 .07-.07.14-.15.14-.07.07-.15.14-.29.21-1.1.83-2.13 1.87-3.16 2.92-.96 1.04-1.84 2.15-2.79 3.12-.15.21-.37.42-.59.69-.22.21-.44.42-.66.62-.51.49-.96.76-1.4.76-.51 0-.74-.28-.81-.56-.07-.35.07-.83.15-1.25.96-3.47 2.13-6.87 3.16-10.34.07-.21.29-.42.59-.42s.37.21.29.42c-1.03 3.54-2.21 7.01-3.24 10.55 0 .14 0 .28-.07.49l-.22.49.51-.35z"/><path d="M298.04 31.31c.22-.9.59-1.94.96-2.92.15-.21.37-.35.59-.35.29 0 .37.14.29.42-.22.97-.74 1.94-1.03 2.92-.15.49-.37 1.6-.37 2.64 0 .9.22 1.94 1.18 1.94.37 0 .96-.42 1.25-.69.51-.35 1.03-.9 1.62-1.39 1.1-1.11 2.13-2.29 2.43-2.78.22-.28.29-.35.59-.35.15 0 .29.14.22.28-.15.76-2.28 2.78-2.94 3.4-.22.21-.51.49-.81.76-.22.28-.52.49-.81.76-.59.42-1.25.76-1.84.76-2.28 0-1.84-3.54-1.32-5.42zm3.31-9.37c.22-.49.51-.97.81-1.32.29-.42.52-.49.66-.49.22 0 .37.21.29.42 0 .07-.07.07-.15.21-.88 1.18-1.47 2.36-1.84 3.68-.07.28-.29.42-.59.42s-.37-.14-.29-.42c.07-.35.51-1.46 1.1-2.5zm10.81 6.59c-.81.21-1.62.35-2.35.35-.37 0-1.4-.14-2.28-.35-.44-.07-.81-.21-1.1-.35-.29-.21-.37-.35-.29-.42.07-.21.29-.42.51-.42h.15c.07 0 .15.07.22.07.22.07.51.21.81.28.52.14 1.25.35 1.99.35s1.54 0 2.35-.21c.29-.07.51-.21.81-.28.22-.07.51-.14.74-.14.44 0 .66.21.51.62-.07.35-.51.76-1.18 1.25-.59.49-1.25.9-1.62 1.18-1.62 1.11-3.16 2.36-4.19 3.96-.07.07-.15.21-.22.28s-.15.21-.15.35c-.07.07 0 .14 0 .21.07.07.15.07.15.07.07.07.22.07.37.07.22.07.44.07.52.07 3.09 0 6.91-2.5 9.41-4.37.15-.14.22-.21.29-.21.22 0 .44.28.37.56-.07.07-.15.14-.22.28-2.65 2.43-6.99 4.44-10.3 4.44-.88 0-1.69-.35-1.4-1.25.29-.97 1.32-2.15 2.57-3.26.66-.49 1.32-1.04 1.99-1.53.59-.42 1.25-.9 1.69-1.25l.74-.56-.88.21z"/><path d="M316.86 34.3c.07-.07.29-.21.44-.21 0-.07.07-.07.15-.14 1.32-.83 2.43-1.94 3.46-2.99.52-.56 1.03-1.11 1.54-1.6.51-.56 1.03-1.04 1.62-1.53l.37-.28c.22-.21.52-.35.74-.56.15-.07.22-.14.37-.14.29 0 .37.14.37.49-.07.14-.07.28-.15.49-.07.14-.07.35-.15.49-.44 1.53-1.03 3.12-1.47 4.65-.07.49-.37 1.46-.44 2.36-.07.83 0 1.74.96 1.74.88 0 2.21-1.32 3.24-2.5 1.18-1.32 2.21-2.71 2.57-3.19.15-.28.29-.35.51-.35.15 0 .22.07.15.21-.29 1.04-4.71 5.76-6.03 6.46-.37.21-.74.28-1.1.28-.81 0-1.1-.56-1.25-1.39-.07-.83.15-1.87.29-2.5.44-1.6 1.18-3.19 1.69-4.79l.22-1.04-.52.49c-.88.83-2.35 2.5-3.97 3.96-1.54 1.53-3.09 2.64-4.05 2.64-.81 0-.96-.62-.74-1.39 1.03-2.43 5-7.22 7.72-7.22.22 0 .51 0 .66.07.15.07.22.14.15.35 0 .07-.07.14-.07.21l-.07.14h-.15c-.07.07-.15.07-.29.07s-.29-.07-.44-.07c-1.84 0-6.18 4.58-6.62 6.11 0 .14 0 .35-.07.56l-.15.49.51-.35z"/><path d="M335.4 19.16c-1.69.21-3.38.49-5.07.69-.29.07-.74.21-1.1.28-.44.07-.81.14-1.1.14-.44 0-.59-.21-.51-.56.07-.14.15-.21.37-.21.88-.28 2.43-.56 4.04-.76 1.54-.21 3.16-.42 4.19-.56h.15l.07-.14c.44-.83 3.68-6.39 4.27-6.39.22 0 .44.21.37.49 0 0-.07.07-.07.14-.74.69-3.09 4.51-3.46 5.42l-.22.28.37-.07c2.87-.28 5.88-.76 8.75-.76 1.32 0 4.49.42 5.74.97.51.28.74.49.66.62-.07.28-.37.49-.59.49-.07 0-.15-.07-.22-.07-1.69-.76-3.46-1.11-5.59-1.11-3.02 0-6.33.56-9.49.9h-.15l-.07.21c-.07.21-.22.49-.37.76-3.46 6.46-6.25 13.47-7.43 20.62-.29 2.22.07 4.17 2.35 4.79.29.07.44.21.37.49-.07.21-.22.35-.44.35-2.5 0-3.38-2.78-3.24-4.93.51-6.73 4.49-16.04 7.65-21.87l.15-.28-.37.07z"/><path d="M335.62 31.31c.22-.9.59-1.94.96-2.92.15-.21.37-.35.59-.35.29 0 .37.14.29.42-.22.97-.74 1.94-1.03 2.92-.15.49-.37 1.6-.37 2.64 0 .9.22 1.94 1.18 1.94.37 0 .96-.42 1.25-.69.51-.35 1.03-.9 1.62-1.39 1.1-1.11 2.13-2.29 2.43-2.78.22-.28.29-.35.59-.35.15 0 .29.14.22.28-.15.76-2.28 2.78-2.94 3.4-.22.21-.51.49-.81.76-.22.28-.52.49-.81.76-.59.42-1.25.76-1.84.76-2.28 0-1.84-3.54-1.32-5.42zm3.31-9.37c.22-.49.51-.97.81-1.32.29-.42.52-.49.66-.49.22 0 .37.21.29.42 0 .07-.07.07-.15.21-.88 1.18-1.47 2.36-1.84 3.68-.07.28-.29.42-.59.42s-.37-.14-.29-.42c.07-.35.51-1.46 1.1-2.5z"/><path d="M343.63 28.67c-.22-.07-.44-.14-.66-.28-.22-.14-.29-.28-.22-.42.07-.28.37-.49.59-.49.81 0 1.54.28 2.13.69q.15.14.15.21c.07.07.15.14.29.21.74.42 3.75.69 4.78.69.44 0 .81 0 1.25-.07h.22v-.07c.15.07.15.21.15.42-.07.28-.37.42-.81.49h-.74c-1.25 0-2.5 0-3.75-.28l-.37-.07v.35c.15.69.07 1.46-.15 2.22-.44 1.6-2.06 4.24-3.9 4.24-1.62 0-1.54-1.53-1.18-2.92.44-1.6 1.18-3.19 2.21-4.65l.15-.14-.15-.14zm.51 6.39l.15-.28c.66-.69 1.1-1.46 1.32-2.29.29-1.04.37-2.92-.74-3.4l-.22-.07-.07.21c-1.1 1.53-1.77 3.05-2.21 4.72-.07.21-.15.62-.15.97s.07.76.59.76c.44 0 .96-.42 1.25-.69l.07.07z"/><path d="M359.45 28.47c-.22.14-.44.28-.74.42-.15.07-.29.14-.37.21-.15.07-.29.21-.44.28-.51.35-1.18.97-1.91 1.67s-1.54 1.53-2.28 2.29c-1.69 1.53-3.16 2.71-4.04 2.71-.81 0-.88-.83-.66-1.6.37-1.25 1.32-3.75 1.91-5 .07-.28.29-.42.59-.42.22 0 .37.14.22.42-.44 1.74-1.4 3.4-1.84 5.14 0 0-.07.14-.07.21v.14c0 .07.07.14.22.14.22 0 .59-.14.88-.35.29-.21.66-.56 1.03-.9.81-.76 1.76-1.74 2.79-2.71 2.13-1.94 4.27-3.75 5.44-3.75.59 0 .74.49.66 1.25-.07.42-.15.83-.29 1.18-.15.42-.22.76-.29.97-.15.56-.29 1.32-.22 1.94.07.69.44 1.25 1.32 1.25.96 0 2.21-.83 3.16-1.53.51-.35.96-.69 1.32-.97.15-.14.29-.28.44-.42.15.07.22.35.15.56-.22.76-4.19 3.19-5.66 3.19-.59 0-1.1-.28-1.47-.62-.44-.56-.51-1.25-.44-1.94.15-.76.44-1.6.59-2.36.15-.42.15-.83.29-1.25l.22-.56-.52.42z"/></svg>