<svg id="_レイヤー_2" xmlns="http://www.w3.org/2000/svg" xmlns:xlink="http://www.w3.org/1999/xlink" viewBox="0 0 139 85.24"><defs><linearGradient id="_新規グラデーションスウォッチ_3" x1="0" y1="31.98" x2="53.59" y2="31.98" gradientUnits="userSpaceOnUse"><stop offset="0" stop-color="#ad327e"/><stop offset=".21" stop-color="#864f96"/><stop offset=".42" stop-color="#5c6bb0"/><stop offset=".6" stop-color="#4084b7"/><stop offset=".82" stop-color="#2b9caa"/><stop offset="1" stop-color="#1aafa1"/></linearGradient><linearGradient id="_新規グラデーションスウォッチ_3-2" x1="-.35" y1="32.2" x2="53.97" y2="32.2" xlink:href="#_新規グラデーションスウォッチ_3"/><clipPath id="clippath"><path class="cls-4" d="M10.22 28.25C6.58 30.47.05 37.07.05 37.07c-.4 1.33 1.89 1.5 2.87 1.1.97-.4 4.35-4.5 6.97-6.72 2.62-2.22 6.02-3.79 7.43-3.59 2.07.3 2.85 3.74 4.5 7.44s6.13 2.94 7.59 1.93c1.47-1 5.94-6.13 6.64-6.13s2.01 2.05 2.58 2.91c.57.85 2.77 4.56 6.36 4.56s7.73-5.41 8.35-6.55c.63-1.14 0-1.54-1.06-1.6-1.06-.06-1.65.33-1.88.57-.23.24-3.61 5.05-5.01 4.9-.96-.1-3.09-2.68-3.78-3.82-.68-1.14-2.19-3.76-4.18-3.76s-4.21 1.14-5.52 2.78c-1.31 1.63-4.04 4.83-5.01 4.29-.38-.21-1.34-1.25-2.41-4.29-1.41-4.01-3.28-5.68-6.21-5.68-2.16 0-4.41.63-8.05 2.85"/></clipPath><style>.cls-4{fill:url(#_新規グラデーションスウォッチ_3)}</style></defs><g id="_レイヤー_1-2"><path fill="none" stroke="#e3f1ff" stroke-miterlimit="10" stroke-width="1.22" d="M92.07 46.93L138.56.43"/><path d="M5.7 8.94h4.45c1.36 0 2.44.41 3.24 1.22s1.21 1.9 1.21 3.26v2.2c0 1.36-.4 2.44-1.21 3.26-.8.81-1.89 1.22-3.24 1.22H8.54v7.61H5.7V8.94zm4.32 8.47c.55 0 .98-.15 1.29-.46s.46-.73.46-1.29v-2.3c0-.55-.15-.98-.46-1.29-.3-.3-.73-.46-1.29-.46H8.55v5.79h1.47zm7.99 9.31c-.84-.83-1.26-1.92-1.26-3.28V13.2c0-1.36.42-2.45 1.26-3.28.84-.83 1.94-1.25 3.3-1.25s2.46.42 3.3 1.25c.84.83 1.26 1.93 1.26 3.28v10.24c0 1.36-.42 2.45-1.26 3.28-.84.83-1.94 1.25-3.3 1.25s-2.46-.41-3.3-1.25zm4.56-1.92c.3-.32.46-.78.46-1.37V13.2c0-.59-.15-1.04-.46-1.37-.3-.32-.72-.48-1.26-.48s-.96.16-1.26.48c-.3.32-.46.78-.46 1.37v10.24c0 .59.15 1.04.46 1.37.3.32.72.48 1.26.48s.96-.16 1.26-.48zm6.16-15.86h2.84V27.7h-2.84V8.94zm5.95 0h3.14l3.62 12.6V8.94h2.79V27.7h-3l-3.75-12.01V27.7h-2.79V8.94zm11.74 0h9.06v2.68h-3.11V27.7h-2.84V11.62h-3.11V8.94zm-8.79 62.08v3.9c0 3.2-.9 5.72-2.7 7.56-1.8 1.84-4.28 2.76-7.44 2.76s-5.64-.92-7.44-2.76c-1.8-1.84-2.7-4.36-2.7-7.56v-1.26l6.12-.6v1.38c0 3.2 1.3 4.8 3.9 4.8 1.24 0 2.2-.36 2.88-1.08.68-.72 1.02-1.76 1.02-3.12v-4.38c0-1.68-.38-2.9-1.14-3.66-.76-.76-1.98-1.14-3.66-1.14h-2.52v-6h2.1c1.68 0 2.9-.38 3.66-1.14.76-.76 1.14-1.98 1.14-3.66v-3.24c0-1.24-.31-2.18-.93-2.82-.62-.64-1.51-.96-2.67-.96-2.4 0-3.6 1.46-3.6 4.38v.96h-6.12v-1.44c0-3.04.87-5.45 2.61-7.23 1.74-1.78 4.15-2.67 7.23-2.67s5.49.89 7.23 2.67c1.74 1.78 2.61 4.19 2.61 7.23v2.76c0 1.88-.38 3.5-1.14 4.86-.76 1.36-1.88 2.42-3.36 3.18 3.28 1.52 4.92 4.28 4.92 8.28z" fill="#fff"/><path class="cls-4" d="M10.22 28.25C6.58 30.47.05 37.07.05 37.07c-.4 1.33 1.89 1.5 2.87 1.1.97-.4 4.35-4.5 6.97-6.72 2.62-2.22 6.02-3.79 7.43-3.59 2.07.3 2.85 3.74 4.5 7.44s6.13 2.94 7.59 1.93c1.47-1 5.94-6.13 6.64-6.13s2.01 2.05 2.58 2.91c.57.85 2.77 4.56 6.36 4.56s7.73-5.41 8.35-6.55c.63-1.14 0-1.54-1.06-1.6-1.06-.06-1.65.33-1.88.57-.23.24-3.61 5.05-5.01 4.9-.96-.1-3.09-2.68-3.78-3.82-.68-1.14-2.19-3.76-4.18-3.76s-4.21 1.14-5.52 2.78c-1.31 1.63-4.04 4.83-5.01 4.29-.38-.21-1.34-1.25-2.41-4.29-1.41-4.01-3.28-5.68-6.21-5.68-2.16 0-4.41.63-8.05 2.85"/><g clip-path="url(#clippath)"><path fill="url(#_新規グラデーションスウォッチ_3-2)" d="M-.35 25.4h54.32V39H-.35z"/></g></g></svg>