<svg id="_レイヤー_2" xmlns="http://www.w3.org/2000/svg" viewBox="0 0 401.1 89.33"><defs><filter id="drop-shadow-1" filterUnits="userSpaceOnUse"><feOffset dx="2.28" dy="2.28"/><feGaussianBlur result="blur" stdDeviation="1.52"/><feFlood flood-color="#000" flood-opacity=".33"/><feComposite in2="blur" operator="in"/><feComposite in="SourceGraphic"/></filter><filter id="drop-shadow-2" filterUnits="userSpaceOnUse"><feOffset dx="2.28" dy="2.28"/><feGaussianBlur result="blur-2" stdDeviation="1.52"/><feFlood flood-color="#000" flood-opacity=".33"/><feComposite in2="blur-2" operator="in"/><feComposite in="SourceGraphic"/></filter><filter id="drop-shadow-3" filterUnits="userSpaceOnUse"><feOffset dx="2.28" dy="2.28"/><feGaussianBlur result="blur-3" stdDeviation="1.52"/><feFlood flood-color="#000" flood-opacity=".33"/><feComposite in2="blur-3" operator="in"/><feComposite in="SourceGraphic"/></filter><style>.cls-1{fill:#fff}</style></defs><g id="_レイヤー_1-2"><g filter="url(#drop-shadow-1)"><path class="cls-1" d="M195 47.79l.06-6.28 28.3-.19c.5 0 .75-.5 1.18-.5.31 0 5.1 3.36 5.1 4.17 0 .44-.56.81-1.37 1-2.3 4.73-5.35 10.39-9.33 15.98 5.85 4.35 13.87 11.26 18.91 17.04l-6.03 4.6c-.12.06-.19.06-.25.06s-.12 0-.19-.12c-4.48-5.97-10.82-12.19-16.23-16.61-10.45 12.38-21.46 16.54-21.89 16.54-.12 0-.25 0-.37-.12-1.31-1.55-6.28-4.66-6.28-4.66 19.65-7.34 28.36-20.96 33.34-31.16l-24.94.25zm99.82 10.33h-18.41c-.56 11.2-5.22 23.14-21.08 27.24-.12.06-.25.06-.31.06-.12 0-.25-.06-.37-.25-1.24-1.87-6.16-5.35-6.16-5.35 17.04-3.17 20.09-12.19 20.77-21.71h-22.83v-6.47h48.39v6.47zm-6.53-13.75H252.9V37.9h35.39v6.47zm19.15 23.7c-.19.06-.31.12-.37.12-.12 0-.19-.12-.25-.43-1-4.48-3.42-9.33-5.72-12.56l5.35-2.18c2.12 2.99 4.98 8.52 6.03 12.69l-5.04 2.36zm4.23 18.6c-.12.06-.19.06-.31.06s-.25-.06-.37-.19c-1.18-1.49-5.04-3.92-5.72-4.35 14.93-4.54 23.45-14.62 24.69-31.22 0 0 4.67.68 6.72 1.24.68.19 1 .5 1 .81 0 .12 0 .19-.06.31-.19.44-.81.81-1.62 1-2.86 17.35-11.01 26.18-24.13 32.28l-.19.06zm6.09-36.57c2.05 3.3 4.35 8.83 5.29 13.12-4.23 1.68-5.16 1.99-5.35 2.05h-.25c-.19 0-.25-.06-.31-.31-.81-4.54-2.67-9.39-4.79-13.12l5.41-1.74zm32.59-3.8v-6.65l36.26-.19c.12 0 .31 0 .37-.06-.12-.56-.19-1.06-.19-1.68 0-3.92 3.23-7.09 7.15-7.09s7.15 3.17 7.15 7.09-3.17 7.15-7.15 7.15c-.62 0-1.31-.06-1.93-.25-5.97 23.01-18.85 33.65-32.34 39.25-.19.06-.31.12-.44.12-.19 0-.31-.12-.5-.31-1.43-1.8-7.09-5.41-7.09-5.41 17.66-4.54 28.48-16.92 32.22-32.16l-33.52.19zm43.6-12c-1.87 0-3.42 1.55-3.42 3.42s1.55 3.48 3.42 3.48 3.48-1.55 3.48-3.48-1.56-3.42-3.48-3.42z"/></g><g filter="url(#drop-shadow-2)"><path class="cls-1" d="M172.85 59.92v8.06c0 6.62-1.86 11.83-5.58 15.63-3.72 3.8-8.85 5.71-15.38 5.71s-11.66-1.9-15.38-5.71c-3.72-3.8-5.58-9.01-5.58-15.63v-2.6l12.65-1.24v2.85c0 6.62 2.69 9.92 8.06 9.92 2.56 0 4.55-.74 5.96-2.23 1.41-1.49 2.11-3.64 2.11-6.45v-9.06c0-3.47-.79-6-2.36-7.57-1.57-1.57-4.09-2.36-7.57-2.36h-5.21V36.83h4.34c3.47 0 6-.79 7.57-2.36 1.57-1.57 2.36-4.09 2.36-7.57v-6.7c0-2.56-.64-4.51-1.92-5.83-1.28-1.32-3.12-1.99-5.52-1.99-4.96 0-7.44 3.02-7.44 9.06v1.99h-12.65v-2.98c0-6.28 1.8-11.27 5.4-14.95 3.6-3.68 8.58-5.52 14.95-5.52s11.35 1.84 14.95 5.52c3.6 3.68 5.4 8.67 5.4 14.95v5.71c0 3.89-.79 7.24-2.36 10.05-1.57 2.81-3.89 5-6.95 6.58 6.78 3.14 10.17 8.85 10.17 17.12z"/></g><g filter="url(#drop-shadow-3)"><path class="cls-1" d="M28.8 40.58h-8.33c.81 1.24 1.87 2.99 2.49 4.48l-3.98 1h8.08v17.17h-5.41v-.93h-9.96v26.31H5.91V47.85c-.12 0-.25 0-.31-.06C4.54 46.98 0 45.8 0 45.8c6.03-4.48 10.14-11.75 10.76-14.68 0 0 5.04 1.12 5.78 1.31.56.12.93.5.93.81 0 .37-.5.68-1.8.75-.25.56-.56 1.24-.93 1.99H28.8v4.6zm-16.79 0c-1.24 1.93-2.67 3.92-4.1 5.47h9.7c-.56-1.8-1.87-4.23-2.49-5.47h-3.11zm-.31 9.14v2.74h9.95v-2.74h-9.96zm0 6.16v2.74h9.95v-2.74h-9.96zm45.46-15.3H45.47c.87 1.18 1.93 2.8 2.55 4.23l-4.1 1.24h9.27v26.06c0 .87.12 5.97.12 8.96 0 5.1-3.92 7.15-9.27 7.15-.56 0-1.18 0-1.8-.06-.25 0-.44-.06-.5-.31-.19-.87-1.18-2.61-1.93-3.92h-5.1v-1.49H24.26v1.87H19.1V65.22h20.84v17.17c1.49.19 2.92.37 4.04.37 2.11 0 3.48-.56 3.48-2.67V62.3H37.01v.93H31.6V46.06h11.13c-.68-1.8-2.18-4.35-2.86-5.47h-4.42c-2.3 3.48-4.42 5.66-4.6 5.66-.06 0-.12 0-.19-.06-1.24-.75-5.29-1.74-5.29-1.74 4.98-3.86 8.21-10.45 8.89-13.19 0 0 4.6 1 5.6 1.24.56.12.93.5.93.81 0 .37-.5.68-1.8.68-.25.62-.56 1.31-.93 1.99h19.09v4.6zM24.26 69v2.92h10.45V69H24.26zm0 6.47v3.23h10.45v-3.23H24.26zm12.75-25.75v2.74h10.45v-2.74H37.01zm0 6.16v2.74h10.45v-2.74H37.01zm75.56 13.49h-5.47v-1.49H94.23v5.1h24.26v5.47H94.23v9.83h-5.54v-9.83H64.87v-5.47h23.82v-5.1H76.75v1.68h-5.47V43.19h5.97c-2.3-4.85-5.97-8.89-5.97-8.89l5.47-1.74s3.98 4.73 6.22 9.39l-3.23 1.24h10.57c-1.43-5.35-4.79-10.45-4.79-10.45l5.47-1.12s3.79 5.29 5.1 10.32l-4.04 1.24h7.77c1.49-2.11 4.29-6.65 5.6-11.13 0 0 5.16 1.06 6.53 1.62.68.25 1.06.62 1.06.93 0 .37-.56.68-1.74.68h-.37c-1.12 2.43-3.42 5.78-4.91 7.9h6.59v26.18zM76.68 48.1v5.1h12v-5.1h-12zm0 9.64l.06 5.47h11.94v-5.47h-12zm17.54-9.64v5.1h12.87v-5.1H94.22zm0 9.64v5.47h12.87v-5.47H94.22z"/></g></g></svg>