<svg xmlns="http://www.w3.org/2000/svg" viewBox="0 0 58.7 57.54"><defs><linearGradient id="b" x1="-155.81" y1="61.59" x2="-155.23" y2="61.59" gradientTransform="matrix(99.43 0 0 -99.43 15492.87 6131.14)" gradientUnits="userSpaceOnUse"><stop offset="0" stop-color="#ad327e"/><stop offset=".21" stop-color="#864f96"/><stop offset=".42" stop-color="#5c6bb0"/><stop offset=".6" stop-color="#4084b7"/><stop offset=".82" stop-color="#2b9caa"/><stop offset="1" stop-color="#1aafa1"/></linearGradient><clipPath id="a"><path d="M11.1 3.09C7.14 5.5.05 12.66.05 12.66c-.44 1.45 2.06 1.62 3.11 1.19 1.06-.43 4.72-4.88 7.56-7.29s6.53-4.11 8.06-3.9c2.25.32 3.09 4.06 4.88 8.08 1.79 4.02 6.65 3.19 8.24 2.1 1.59-1.09 6.45-6.66 7.21-6.66s2.18 2.23 2.8 3.15c.62.93 3.01 4.95 6.91 4.95s8.39-5.87 9.07-7.11c.68-1.24 0-1.67-1.15-1.73-1.15-.06-1.79.36-2.04.62s-3.91 5.48-5.44 5.32c-1.05-.11-3.36-2.91-4.1-4.15-.74-1.24-2.38-4.08-4.54-4.08s-4.57 1.24-5.99 3.01c-1.42 1.77-4.38 5.24-5.44 4.65-.41-.23-1.46-1.36-2.62-4.65-1.53-4.35-3.56-6.17-6.74-6.17-2.35 0-4.79.68-8.74 3.09" fill="none"/></clipPath></defs><g clip-path="url(#a)"><path fill="url(#b)" d="M-.38 0h58.97v14.76H-.38z"/></g><path d="M17.5 53.1v4.43c-1.1 0-2.01-.17-2.74-.52-.73-.35-1.3-.9-1.74-1.65-1.07.58-2.32.87-3.74.87-2.2 0-3.99-.67-5.35-2.02s-2.04-3.12-2.04-5.33V32.27c0-2.2.68-3.98 2.04-5.33s3.14-2.02 5.35-2.02 3.99.67 5.35 2.02 2.04 3.12 2.04 5.33v16.61c0 1.42-.29 2.68-.87 3.78.38.29.94.43 1.7.43zm-5.43-20.83c0-.96-.25-1.7-.74-2.22-.49-.52-1.17-.78-2.04-.78s-1.55.26-2.04.78-.74 1.26-.74 2.22v16.61c0 .96.25 1.7.74 2.22.49.52 1.17.78 2.04.78s1.55-.26 2.04-.78.74-1.26.74-2.22V32.27zM33.94 55.8l-.96-1.57c-1.19 1.26-2.6 1.89-4.22 1.89-1.47 0-2.67-.48-3.6-1.44-.93-.96-1.39-2.36-1.39-4.19 0-1.26.24-2.35.72-3.28.48-.93 1.23-1.94 2.26-3.02l-.48-.77c-.53-.9-.96-1.76-1.3-2.61s-.5-1.73-.5-2.67c0-1.47.45-2.68 1.36-3.63.91-.95 2.11-1.42 3.6-1.42s2.58.44 3.46 1.31 1.31 2.05 1.31 3.52c0 .81-.1 1.51-.3 2.11s-.54 1.22-1.01 1.87c-.47.65-1.2 1.51-2.18 2.58l2.14 3.33c.19-.66.44-1.73.74-3.2h3.39c-.6 2.75-1.27 4.92-2.02 6.5l3.04 4.7h-4.06zm-3.46-3.15c.32-.18.63-.5.93-.94l-2.94-4.7c-.47.58-.81 1.12-1.01 1.62s-.3 1.07-.3 1.71c0 1.73.75 2.59 2.24 2.59.41 0 .77-.09 1.09-.27zm-2.29-15.99c-.31.36-.46.85-.46 1.47 0 1.09.44 2.34 1.31 3.74.73-.72 1.25-1.36 1.57-1.92.32-.55.48-1.16.48-1.82s-.14-1.16-.42-1.5c-.28-.34-.68-.51-1.22-.51s-.96.18-1.26.54zM53 49.06h-4.96l-1 6.74h-4.61l5.04-30.43h6.17l5.04 30.43h-4.7l-1-6.74zm-.61-4.43l-1.87-12.74-1.87 12.74h3.74z" fill="#fff"/></svg>