<svg xmlns="http://www.w3.org/2000/svg" viewBox="0 0 17.23 36"><path d="M17.23 31.1V36c-1.22 0-2.22-.19-3.02-.58-.8-.38-1.44-.99-1.92-1.82-1.18.64-2.56.96-4.13.96-2.43 0-4.4-.74-5.9-2.23S0 28.88 0 26.45V8.11c0-2.43.75-4.39 2.26-5.88C3.76.74 5.73 0 8.16 0s4.4.74 5.9 2.23 2.26 3.45 2.26 5.88v18.34c0 1.57-.32 2.96-.96 4.18.42.32 1.04.48 1.87.48zm-6-22.99c0-1.06-.27-1.87-.82-2.45-.54-.58-1.3-.86-2.26-.86s-1.71.29-2.26.86c-.54.58-.82 1.39-.82 2.45v18.34c0 1.06.27 1.87.82 2.45.54.58 1.3.86 2.26.86s1.71-.29 2.26-.86c.54-.58.82-1.39.82-2.45V8.11z" fill="#333"/></svg>