<svg id="_レイヤー_2" xmlns="http://www.w3.org/2000/svg" xmlns:xlink="http://www.w3.org/1999/xlink" viewBox="0 0 162.88 93.57"><defs><linearGradient id="_新規グラデーションスウォッチ_3" x1="1.47" y1="28.71" x2="65.75" y2="28.71" gradientUnits="userSpaceOnUse"><stop offset="0" stop-color="#ad327e"/><stop offset=".21" stop-color="#864f96"/><stop offset=".42" stop-color="#5c6bb0"/><stop offset=".6" stop-color="#4084b7"/><stop offset=".82" stop-color="#2b9caa"/><stop offset="1" stop-color="#1aafa1"/></linearGradient><linearGradient id="_新規グラデーションスウォッチ_3-2" x1="306.99" y1="4260.98" x2="307.65" y2="4260.98" gradientTransform="matrix(99.43 0 0 -99.43 -30523.97 423706.11)" xlink:href="#_新規グラデーションスウォッチ_3"/><clipPath id="clippath"><path class="cls-4" d="M13.03 24.12C8.54 26.86.49 34.97.49 34.97c-.49 1.64 2.33 1.84 3.53 1.35 1.2-.49 5.36-5.54 8.58-8.28 3.23-2.74 7.41-4.67 9.15-4.42 2.55.37 3.51 4.61 5.54 9.17 2.03 4.56 7.55 3.62 9.35 2.38 1.8-1.24 7.32-7.55 8.18-7.55S47.3 30.15 48 31.2c.7 1.05 3.42 5.61 7.84 5.61s9.51-6.66 10.29-8.07c.77-1.4 0-1.9-1.31-1.97-1.31-.07-2.03.4-2.32.7-.29.3-4.44 6.22-6.17 6.04-1.19-.13-3.81-3.3-4.65-4.7-.84-1.4-2.7-4.63-5.15-4.63s-5.19 1.41-6.8 3.42c-1.61 2.01-4.97 5.95-6.17 5.28-.47-.26-1.65-1.54-2.97-5.28-1.74-4.93-4.04-7-7.65-7-2.67 0-5.43.77-9.92 3.51"/></clipPath><style>.cls-4{fill:url(#_新規グラデーションスウォッチ_3)}</style></defs><g id="_レイヤー_1-2"><path fill="none" stroke="#fff" stroke-miterlimit="10" stroke-width="1.42" d="M108.23 71.95l54.15-54.16"/><path d="M7.46.33h5.48c1.67 0 3 .5 3.99 1.5.99 1 1.49 2.34 1.49 4.01v2.71c0 1.67-.5 3.01-1.49 4.01s-2.32 1.5-3.99 1.5h-1.98v9.38h-3.5V.33zm5.31 10.43c.68 0 1.21-.19 1.58-.56.37-.37.56-.9.56-1.58V5.78c0-.68-.19-1.21-.56-1.58-.37-.37-.9-.56-1.58-.56h-1.82v7.13h1.82zm9.84 11.47c-1.03-1.02-1.55-2.37-1.55-4.04V5.58c0-1.67.52-3.02 1.55-4.04S25 .01 26.67.01s3.03.51 4.06 1.53c1.03 1.02 1.55 2.37 1.55 4.04v12.61c0 1.67-.52 3.02-1.55 4.04s-2.39 1.54-4.06 1.54-3.03-.51-4.06-1.54zm5.61-2.36c.37-.4.56-.96.56-1.68V5.58c0-.73-.19-1.29-.56-1.68-.37-.4-.89-.59-1.55-.59s-1.18.2-1.55.59c-.37.4-.56.96-.56 1.68v12.61c0 .73.19 1.29.56 1.68.37.4.89.59 1.55.59s1.18-.2 1.55-.59zM35.82.33h3.5v23.11h-3.5V.33zm7.32 0H47l4.46 15.52V.33h3.43v23.11h-3.7L46.57 8.65v14.79h-3.43V.33zm14.46 0h11.16v3.3h-3.83v19.81h-3.5V3.63H57.6V.33zM32.81 86.18h15.52v7.39H23.49v-6.8l11.45-18.25c2.12-3.35 3.57-6.07 4.36-8.17.79-2.09 1.18-4.15 1.18-6.17 0-1.82-.41-3.21-1.22-4.18-.81-.96-1.98-1.44-3.51-1.44s-2.7.48-3.51 1.44c-.81.96-1.22 2.35-1.22 4.18v3.03h-7.54v-2.44c0-4.24 1.1-7.56 3.29-9.98 2.19-2.41 5.21-3.62 9.05-3.62s6.95 1.13 9.16 3.4c2.22 2.27 3.33 5.4 3.33 9.39 0 2.81-.51 5.56-1.52 8.24-1.01 2.69-2.82 6.12-5.43 10.31l-8.57 13.67z" fill="#fff"/><path class="cls-4" d="M13.03 24.12C8.54 26.86.49 34.97.49 34.97c-.49 1.64 2.33 1.84 3.53 1.35 1.2-.49 5.36-5.54 8.58-8.28 3.23-2.74 7.41-4.67 9.15-4.42 2.55.37 3.51 4.61 5.54 9.17 2.03 4.56 7.55 3.62 9.35 2.38 1.8-1.24 7.32-7.55 8.18-7.55S47.3 30.15 48 31.2c.7 1.05 3.42 5.61 7.84 5.61s9.51-6.66 10.29-8.07c.77-1.4 0-1.9-1.31-1.97-1.31-.07-2.03.4-2.32.7-.29.3-4.44 6.22-6.17 6.04-1.19-.13-3.81-3.3-4.65-4.7-.84-1.4-2.7-4.63-5.15-4.63s-5.19 1.41-6.8 3.42c-1.61 2.01-4.97 5.95-6.17 5.28-.47-.26-1.65-1.54-2.97-5.28-1.74-4.93-4.04-7-7.65-7-2.67 0-5.43.77-9.92 3.51"/><g clip-path="url(#clippath)"><path fill="url(#_新規グラデーションスウォッチ_3-2)" d="M0 20.61h66.91v16.75H0z"/></g></g></svg>