<svg id="_レイヤー_2" xmlns="http://www.w3.org/2000/svg" xmlns:xlink="http://www.w3.org/1999/xlink" viewBox="0 0 149.17 98.45"><defs><linearGradient id="_新規グラデーションスウォッチ_3" x1="1.19" y1="45.79" x2="53.38" y2="45.79" gradientUnits="userSpaceOnUse"><stop offset="0" stop-color="#ad327e"/><stop offset=".21" stop-color="#864f96"/><stop offset=".42" stop-color="#5c6bb0"/><stop offset=".6" stop-color="#4084b7"/><stop offset=".82" stop-color="#2b9caa"/><stop offset="1" stop-color="#1aafa1"/></linearGradient><linearGradient id="_新規グラデーションスウォッチ_3-2" x1="20.32" y1="1409.61" x2="20.86" y2="1409.61" gradientTransform="matrix(99.43 0 0 -99.43 -2019.95 140206.07)" xlink:href="#_新規グラデーションスウォッチ_3"/><clipPath id="clippath"><path class="cls-4" d="M10.58 42.06C6.93 44.28.4 50.87.4 50.87c-.4 1.33 1.89 1.5 2.87 1.1.97-.4 4.35-4.5 6.97-6.72 2.62-2.22 6.02-3.79 7.43-3.59 2.07.3 2.85 3.74 4.5 7.44s6.13 2.94 7.59 1.93c1.47-1 5.94-6.13 6.64-6.13s2.01 2.05 2.58 2.91c.57.85 2.77 4.56 6.36 4.56s7.73-5.41 8.35-6.55c.63-1.14 0-1.54-1.06-1.6-1.06-.06-1.65.33-1.88.57-.23.24-3.61 5.05-5.01 4.9-.96-.1-3.09-2.68-3.78-3.82-.68-1.14-2.19-3.76-4.18-3.76s-4.21 1.14-5.52 2.78c-1.31 1.63-4.04 4.83-5.01 4.29-.38-.21-1.34-1.25-2.41-4.29-1.41-4.01-3.28-5.68-6.21-5.68-2.16 0-4.41.63-8.05 2.85"/></clipPath><style>.cls-4{fill:url(#_新規グラデーションスウォッチ_3)}</style></defs><g id="_レイヤー_1-2"><path fill="none" stroke="#fff" stroke-miterlimit="10" stroke-width="1.22" d="M102.24 46.93L148.73.43"/><path d="M6.06 22.74h4.45c1.36 0 2.44.41 3.24 1.22.8.81 1.21 1.9 1.21 3.26v2.2c0 1.36-.4 2.44-1.21 3.26s-1.89 1.22-3.24 1.22H8.9v7.61H6.06V22.74zm4.32 8.47c.55 0 .98-.15 1.29-.46.3-.3.46-.73.46-1.29v-2.31c0-.55-.15-.98-.46-1.29s-.73-.46-1.29-.46H8.91v5.79h1.47zm7.98 9.32c-.84-.83-1.26-1.92-1.26-3.28V27.01c0-1.36.42-2.45 1.26-3.28.84-.83 1.94-1.25 3.3-1.25s2.46.42 3.3 1.25c.84.83 1.26 1.93 1.26 3.28v10.24c0 1.36-.42 2.45-1.26 3.28-.84.83-1.94 1.25-3.3 1.25s-2.46-.42-3.3-1.25zm4.56-1.92c.3-.32.46-.78.46-1.37V27c0-.59-.15-1.04-.46-1.37-.3-.32-.72-.48-1.26-.48s-.96.16-1.26.48c-.3.32-.46.78-.46 1.37v10.24c0 .59.15 1.04.46 1.37.3.32.72.48 1.26.48s.96-.16 1.26-.48zm6.16-15.87h2.84V41.5h-2.84V22.74zm5.95 0h3.14l3.62 12.6v-12.6h2.79V41.5h-3l-3.75-12.01V41.5h-2.79V22.74zm11.74 0h9.06v2.68h-3.11V41.5h-2.84V25.42h-3.11v-2.68zM26.64 92.45h12.6v6H19.08v-5.52l9.3-14.82c1.72-2.72 2.9-4.93 3.54-6.63.64-1.7.96-3.37.96-5.01 0-1.48-.33-2.61-.99-3.39-.66-.78-1.61-1.17-2.85-1.17s-2.19.39-2.85 1.17c-.66.78-.99 1.91-.99 3.39v2.46h-6.12v-1.98c0-3.44.89-6.14 2.67-8.1 1.78-1.96 4.23-2.94 7.35-2.94s5.64.92 7.44 2.76c1.8 1.84 2.7 4.38 2.7 7.62 0 2.28-.41 4.51-1.23 6.69-.82 2.18-2.29 4.97-4.41 8.37l-6.96 11.1z" fill="#fff"/><path class="cls-4" d="M10.58 42.06C6.93 44.28.4 50.87.4 50.87c-.4 1.33 1.89 1.5 2.87 1.1.97-.4 4.35-4.5 6.97-6.72 2.62-2.22 6.02-3.79 7.43-3.59 2.07.3 2.85 3.74 4.5 7.44s6.13 2.94 7.59 1.93c1.47-1 5.94-6.13 6.64-6.13s2.01 2.05 2.58 2.91c.57.85 2.77 4.56 6.36 4.56s7.73-5.41 8.35-6.55c.63-1.14 0-1.54-1.06-1.6-1.06-.06-1.65.33-1.88.57-.23.24-3.61 5.05-5.01 4.9-.96-.1-3.09-2.68-3.78-3.82-.68-1.14-2.19-3.76-4.18-3.76s-4.21 1.14-5.52 2.78c-1.31 1.63-4.04 4.83-5.01 4.29-.38-.21-1.34-1.25-2.41-4.29-1.41-4.01-3.28-5.68-6.21-5.68-2.16 0-4.41.63-8.05 2.85"/><g clip-path="url(#clippath)"><path fill="url(#_新規グラデーションスウォッチ_3-2)" d="M0 39.21h54.32v13.6H0z"/></g></g></svg>