<svg id="_レイヤー_2" xmlns="http://www.w3.org/2000/svg" xmlns:xlink="http://www.w3.org/1999/xlink" viewBox="0 0 180.91 94.31"><defs><linearGradient id="_新規グラデーションスウォッチ_3" x1=".44" y1="28.71" x2="66.44" y2="28.71" gradientUnits="userSpaceOnUse"><stop offset="0" stop-color="#ad327e"/><stop offset=".21" stop-color="#864f96"/><stop offset=".42" stop-color="#5c6bb0"/><stop offset=".6" stop-color="#4084b7"/><stop offset=".82" stop-color="#2b9caa"/><stop offset="1" stop-color="#1aafa1"/></linearGradient><linearGradient id="_新規グラデーションスウォッチ_3-2" x1="0" y1="28.98" x2="66.91" y2="28.98" xlink:href="#_新規グラデーションスウォッチ_3"/><clipPath id="clippath"><path class="cls-4" d="M13.03 24.12C8.54 26.86.49 34.98.49 34.98c-.49 1.64 2.33 1.84 3.53 1.35 1.2-.49 5.36-5.54 8.58-8.28 3.23-2.74 7.41-4.67 9.15-4.42 2.55.37 3.51 4.61 5.54 9.17 2.03 4.56 7.55 3.62 9.35 2.38 1.8-1.24 7.32-7.55 8.18-7.55s2.48 2.53 3.18 3.58c.7 1.05 3.42 5.61 7.84 5.61s9.52-6.66 10.29-8.07c.77-1.4 0-1.9-1.31-1.97-1.31-.07-2.03.4-2.32.7-.29.3-4.44 6.22-6.17 6.04-1.19-.13-3.81-3.3-4.65-4.7-.84-1.4-2.7-4.63-5.15-4.63s-5.19 1.41-6.8 3.42c-1.61 2.01-4.97 5.95-6.17 5.28-.47-.26-1.65-1.54-2.97-5.28-1.74-4.93-4.04-7-7.65-7-2.67 0-5.43.77-9.92 3.51"/></clipPath><style>.cls-4{fill:url(#_新規グラデーションスウォッチ_3)}</style></defs><g id="_レイヤー_1-2"><path fill="none" stroke="#e3f1ff" stroke-miterlimit="10" stroke-width="1.42" d="M126.26 76.55l54.15-54.16"/><path d="M7.46.33h5.48c1.67 0 3 .5 3.99 1.5.99 1 1.49 2.34 1.49 4.01v2.71c0 1.67-.5 3.01-1.49 4.01s-2.32 1.5-3.99 1.5h-1.98v9.38h-3.5V.33zm5.31 10.43c.68 0 1.21-.19 1.58-.56.37-.37.56-.9.56-1.58V5.78c0-.68-.19-1.21-.56-1.58-.37-.37-.9-.56-1.58-.56h-1.82v7.13h1.82zm9.84 11.47c-1.03-1.02-1.55-2.37-1.55-4.04V5.58c0-1.67.52-3.02 1.55-4.04S25 0 26.67 0s3.03.51 4.06 1.54c1.03 1.02 1.55 2.37 1.55 4.04v12.61c0 1.67-.52 3.02-1.55 4.04s-2.39 1.54-4.06 1.54-3.03-.51-4.06-1.54zm5.61-2.36c.37-.4.56-.96.56-1.68V5.58c0-.73-.19-1.29-.56-1.68-.37-.4-.89-.59-1.55-.59s-1.18.2-1.55.59c-.37.4-.56.96-.56 1.68v12.61c0 .73.19 1.29.56 1.68.37.4.89.59 1.55.59s1.18-.2 1.55-.59zM35.82.33h3.5v23.11h-3.5V.33zm7.32 0H47l4.46 15.52V.33h3.43v23.11h-3.7L46.57 8.65v14.79h-3.43V.33zm14.46 0h11.16v3.3h-3.83v19.81h-3.5V3.63H57.6V.33zM46.78 76.79v4.8c0 3.94-1.11 7.05-3.33 9.31-2.22 2.27-5.27 3.4-9.16 3.4s-6.95-1.13-9.16-3.4c-2.22-2.27-3.33-5.37-3.33-9.31v-1.55l7.54-.74V81c0 3.94 1.6 5.91 4.8 5.91 1.53 0 2.71-.44 3.55-1.33.84-.89 1.26-2.17 1.26-3.84v-5.4c0-2.07-.47-3.57-1.4-4.51-.94-.94-2.44-1.4-4.51-1.4h-3.1v-7.39h2.59c2.07 0 3.57-.47 4.51-1.4.94-.94 1.4-2.44 1.4-4.51v-3.99c0-1.53-.38-2.69-1.15-3.47-.76-.79-1.86-1.18-3.29-1.18-2.96 0-4.43 1.8-4.43 5.4v1.18h-7.54V53.3c0-3.74 1.07-6.71 3.21-8.9 2.14-2.19 5.11-3.29 8.9-3.29s6.76 1.1 8.91 3.29c2.14 2.19 3.21 5.16 3.21 8.9v3.4c0 2.32-.47 4.31-1.4 5.99-.94 1.68-2.32 2.98-4.14 3.92 4.04 1.87 6.06 5.27 6.06 10.2z" fill="#fff"/><path class="cls-4" d="M13.03 24.12C8.54 26.86.49 34.98.49 34.98c-.49 1.64 2.33 1.84 3.53 1.35 1.2-.49 5.36-5.54 8.58-8.28 3.23-2.74 7.41-4.67 9.15-4.42 2.55.37 3.51 4.61 5.54 9.17 2.03 4.56 7.55 3.62 9.35 2.38 1.8-1.24 7.32-7.55 8.18-7.55s2.48 2.53 3.18 3.58c.7 1.05 3.42 5.61 7.84 5.61s9.52-6.66 10.29-8.07c.77-1.4 0-1.9-1.31-1.97-1.31-.07-2.03.4-2.32.7-.29.3-4.44 6.22-6.17 6.04-1.19-.13-3.81-3.3-4.65-4.7-.84-1.4-2.7-4.63-5.15-4.63s-5.19 1.41-6.8 3.42c-1.61 2.01-4.97 5.95-6.17 5.28-.47-.26-1.65-1.54-2.97-5.28-1.74-4.93-4.04-7-7.65-7-2.67 0-5.43.77-9.92 3.51"/><g clip-path="url(#clippath)"><path fill="url(#_新規グラデーションスウォッチ_3-2)" d="M0 20.61h66.91v16.75H0z"/></g></g></svg>