<svg id="_レイヤー_2" xmlns="http://www.w3.org/2000/svg" xmlns:xlink="http://www.w3.org/1999/xlink" viewBox="0 0 147.99 88.48"><defs><linearGradient id="_新規グラデーションスウォッチ_3" x1=".41" y1="27.15" x2="62.83" y2="27.15" gradientUnits="userSpaceOnUse"><stop offset="0" stop-color="#ad327e"/><stop offset=".21" stop-color="#864f96"/><stop offset=".42" stop-color="#5c6bb0"/><stop offset=".6" stop-color="#4084b7"/><stop offset=".82" stop-color="#2b9caa"/><stop offset="1" stop-color="#1aafa1"/></linearGradient><linearGradient id="_新規グラデーションスウォッチ_3-2" x1="0" y1="27.41" x2="63.27" y2="27.41" xlink:href="#_新規グラデーションスウォッチ_3"/><clipPath id="clippath"><path class="cls-4" d="M12.32 22.81C8.08 25.4.47 33.07.47 33.07c-.47 1.56 2.2 1.75 3.34 1.28 1.13-.46 5.06-5.24 8.12-7.83 3.05-2.59 7.01-4.41 8.65-4.18 2.41.35 3.32 4.36 5.24 8.67 1.92 4.31 7.14 3.42 8.85 2.25s6.92-7.14 7.74-7.14 2.34 2.39 3.01 3.38c.66.99 3.23 5.31 7.41 5.31s9-6.3 9.73-7.63c.73-1.33 0-1.79-1.24-1.86-1.24-.07-1.92.38-2.19.66s-4.2 5.88-5.84 5.71c-1.12-.12-3.6-3.12-4.4-4.45-.8-1.33-2.55-4.38-4.87-4.38s-4.9 1.33-6.43 3.23c-1.53 1.9-4.7 5.62-5.83 4.99-.44-.25-1.56-1.46-2.81-4.99-1.65-4.67-3.82-6.62-7.23-6.62-2.52 0-5.14.73-9.38 3.32"/></clipPath><style>.cls-4{fill:url(#_新規グラデーションスウォッチ_3)}</style></defs><g id="_レイヤー_1-2"><path fill="none" stroke="#e3f1ff" stroke-miterlimit="10" stroke-width="1.42" d="M93.33 65.7l54.16-54.15"/><path d="M7.05.31h5.18c1.58 0 2.84.47 3.78 1.42s1.4 2.21 1.4 3.79v2.56c0 1.58-.47 2.85-1.4 3.79-.94.95-2.2 1.42-3.78 1.42h-1.87v8.87H7.05V.31zm5.03 9.86c.64 0 1.14-.18 1.5-.53.35-.35.53-.85.53-1.5V5.46c0-.64-.18-1.14-.53-1.5-.35-.35-.85-.53-1.5-.53h-1.72v6.74h1.72zm9.3 10.85c-.98-.97-1.47-2.24-1.47-3.82V5.28c0-1.58.49-2.86 1.47-3.82.98-.97 2.26-1.45 3.84-1.45s2.86.48 3.84 1.45 1.47 2.24 1.47 3.82V17.2c0 1.58-.49 2.86-1.47 3.82s-2.26 1.45-3.84 1.45-2.86-.48-3.84-1.45zm5.31-2.23c.35-.37.53-.91.53-1.59V5.28c0-.69-.18-1.22-.53-1.59-.35-.37-.84-.56-1.47-.56s-1.11.19-1.47.56c-.35.37-.53.91-.53 1.59V17.2c0 .69.18 1.22.53 1.59.35.37.84.56 1.47.56s1.11-.19 1.47-.56zM33.87.31h3.31v21.85h-3.31V.31zm6.93 0h3.65l4.21 14.67V.31h3.25v21.85h-3.5L44.04 8.18v13.98h-3.25V.31zm13.67 0h10.55v3.12H61.4v18.73h-3.31V3.43h-3.62V.31zM34.6 48.79h-9.92v-3.84c8.46-.56 11.11-5.03 11.95-7.55h4.33v51.09H34.6v-39.7z" fill="#fff"/><path class="cls-4" d="M12.32 22.81C8.08 25.4.47 33.07.47 33.07c-.47 1.56 2.2 1.75 3.34 1.28 1.13-.46 5.06-5.24 8.12-7.83 3.05-2.59 7.01-4.41 8.65-4.18 2.41.35 3.32 4.36 5.24 8.67 1.92 4.31 7.14 3.42 8.85 2.25s6.92-7.14 7.74-7.14 2.34 2.39 3.01 3.38c.66.99 3.23 5.31 7.41 5.31s9-6.3 9.73-7.63c.73-1.33 0-1.79-1.24-1.86-1.24-.07-1.92.38-2.19.66s-4.2 5.88-5.84 5.71c-1.12-.12-3.6-3.12-4.4-4.45-.8-1.33-2.55-4.38-4.87-4.38s-4.9 1.33-6.43 3.23c-1.53 1.9-4.7 5.62-5.83 4.99-.44-.25-1.56-1.46-2.81-4.99-1.65-4.67-3.82-6.62-7.23-6.62-2.52 0-5.14.73-9.38 3.32"/><g clip-path="url(#clippath)"><path fill="url(#_新規グラデーションスウォッチ_3-2)" d="M0 19.49h63.27v15.84H0z"/></g></g></svg>